<?xml version="1.0" encoding="UTF-8"?>
<svg version="1.1" xmlns="http://www.w3.org/2000/svg" width="512" height="512">
<path d="M0 0 C0.86238281 0.33902344 1.72476563 0.67804687 2.61328125 1.02734375 C9.05536049 3.84262255 13.60795425 8.11509638 18.45703125 13.0859375 C20.80865149 15.27294113 20.80865149 15.27294113 23.54296875 14.9140625 C25.91739321 14.0307313 28.20369973 13.06950971 30.5 12 C41.46851588 7.54098909 53.57124847 8.15740765 64.51171875 12.34375 C75.75954617 17.49951089 84.03279466 24.58181456 89.2578125 35.96875 C90 38 90 38 90 40 C91.258125 39.9175 92.51625 39.835 93.8125 39.75 C105.21513224 39.78580104 114.95291432 46.11194204 123.125 53.5625 C126.43336688 56.92256011 128.16624518 60.29241448 130.125 64.5625 C133.22370915 70.73155482 136.40141561 72.79203006 142.65673828 75.47998047 C152.6586979 79.85567115 158.34170953 87.49820128 162.94140625 97.140625 C164.03658134 100.09881012 164.58903444 102.87850875 165 106 C165.60360352 105.97905273 166.20720703 105.95810547 166.82910156 105.93652344 C182.11314527 105.47619578 194.68424881 105.272257 206.80859375 115.80078125 C215.23771724 124.25995509 218.34256475 133.94663365 218.33988953 145.7562561 C218.32440567 146.79833221 218.30892181 147.84040833 218.29296875 148.9140625 C218.28872391 150.00971527 218.28447906 151.10536804 218.28010559 152.23422241 C218.263452 155.69807599 218.22582458 159.16132536 218.1875 162.625 C218.17243596 164.98827279 218.15875058 167.35155479 218.14648438 169.71484375 C218.11359213 175.47679162 218.06190263 181.23829374 218 187 C213.71 187 209.42 187 205 187 C205.24886963 187.94472168 205.49773926 188.88944336 205.75415039 189.86279297 C208.43667746 200.21235035 210.57356923 210.59953811 212.4375 221.125 C212.5861853 221.95948669 212.73487061 222.79397339 212.88806152 223.65374756 C216.07017601 241.61020702 218.69022735 259.61510726 220.74285889 277.73516846 C220.9104752 279.21148901 221.08048431 280.68754046 221.25323486 282.16326904 C227.26723709 333.57252183 229.38137756 393.09912533 214 443 C214.72445313 443.42410156 215.44890625 443.84820312 216.1953125 444.28515625 C226.56569808 450.5765235 232.2383071 456.79435701 235.75 468.5 C236.76539645 478.65396449 235.51085027 487.76568936 229 496 C222.94288066 502.71194305 216.5501347 507.6412322 207.27932739 508.24050903 C205.87518766 508.24624549 204.47097541 508.24112915 203.06689453 508.22705078 C202.2954863 508.22734283 201.52407806 508.22763489 200.72929382 508.22793579 C198.1970162 508.22655011 195.66503828 508.21102512 193.1328125 508.1953125 C191.37019003 508.19157966 189.60756548 508.18873396 187.84494019 508.18673706 C183.21877251 508.17912198 178.59273157 508.15949182 173.96661377 508.1373291 C169.24078078 508.11682481 164.5149272 508.10772556 159.7890625 508.09765625 C150.52597719 508.07624384 141.26301899 508.04107909 132 508 C132 502.72 132 497.44 132 492 C135.40626709 491.98598145 135.40626709 491.98598145 138.88134766 491.97167969 C146.39327462 491.93787735 153.90492781 491.88231035 161.41663551 491.81609726 C165.9699915 491.77662707 170.52315422 491.7444364 175.07666016 491.72900391 C179.47299746 491.71383421 183.86880346 491.6793834 188.26490402 491.63169098 C189.94013215 491.61688036 191.61543614 491.60895917 193.29072952 491.60811615 C195.64182087 491.60574368 197.99144721 491.57864422 200.34228516 491.54589844 C201.03136963 491.5509288 201.7204541 491.55595917 202.43041992 491.56114197 C207.37802396 491.45486968 210.17338558 490.06849297 214 487 C217.66422264 482.64254605 219.27394891 478.65430551 219 473 C217.40949733 467.7866857 215.22705141 464.44062324 211 461 C205.27981341 458.38948355 199.42445216 458.65161376 193.2578125 458.5859375 C192.13430389 458.56657135 191.01079529 458.5472052 189.85324097 458.5272522 C186.27723702 458.46764125 182.70120057 458.42114452 179.125 458.375 C176.69529874 458.33680326 174.26561077 458.29775054 171.8359375 458.2578125 C165.89073343 458.16195469 159.94546598 458.07785503 154 458 C154 452.72 154 447.44 154 442 C168.19 442 182.38 442 197 442 C204.24379427 407.39076072 209.25400488 372.45042638 208 337 C207.9383667 335.18677246 207.9383667 335.18677246 207.87548828 333.33691406 C206.228583 287.96557465 199.64611105 242.80989347 190.22190857 198.42410278 C190.06174759 197.65234711 189.90158661 196.88059143 189.73657227 196.08544922 C189.59405533 195.41456268 189.45153839 194.74367615 189.30470276 194.05245972 C189 192 189 192 189 187 C72.18 187 -44.64 187 -165 187 C-165.66 191.29 -166.32 195.58 -167 200 C-167.48445157 202.62110903 -167.98678161 205.23904828 -168.515625 207.8515625 C-168.79804202 209.27139863 -169.07957678 210.69141047 -169.36035156 212.11157227 C-169.50541138 212.84449493 -169.65047119 213.5774176 -169.79992676 214.33255005 C-174.07412643 236.10320404 -177.3115522 257.98064338 -180 280 C-180.09301392 280.74628662 -180.18602783 281.49257324 -180.28186035 282.26147461 C-182.8836511 303.2596812 -183.3001035 324.26423128 -183.36746979 345.40233994 C-183.37483553 347.39304809 -183.38703904 349.38373647 -183.39935303 351.37442017 C-183.54259442 381.88507851 -180.40184293 411.39262829 -173 441 C-158.81 441.33 -144.62 441.66 -130 442 C-130 447.28 -130 452.56 -130 458 C-131.50828369 458.01458252 -133.01656738 458.02916504 -134.57055664 458.04418945 C-140.18228511 458.1022909 -145.79361731 458.1795239 -151.4050293 458.26245117 C-153.83074498 458.29564466 -156.25653686 458.32369384 -158.68237305 458.34643555 C-162.17529684 458.38008331 -165.66752585 458.43240631 -169.16015625 458.48828125 C-170.77930687 458.49786613 -170.77930687 458.49786613 -172.4311676 458.50764465 C-179.88728763 458.65226331 -184.96398935 459.43625768 -190.8125 464.375 C-193.86903044 468.04283652 -194.8397193 470.58418711 -195.375 475.3125 C-194.91894764 479.79701484 -193.89273801 483.48376457 -191 487 C-184.74762494 491.60783739 -179.34129676 491.56806745 -171.73782349 491.51225281 C-170.50339882 491.51904849 -169.26897415 491.52584418 -167.99714267 491.5328458 C-164.58271417 491.54766999 -161.16914785 491.54469331 -157.75475979 491.53414643 C-154.06835468 491.52713422 -150.38204121 491.54320682 -146.69566345 491.55648804 C-140.31257241 491.57638154 -133.92960086 491.58184043 -127.54648209 491.57755089 C-118.31654533 491.57145647 -109.08676109 491.58832637 -99.85685526 491.61096082 C-84.87983391 491.6471594 -69.90284257 491.66632889 -54.92578125 491.67407227 C-40.38117087 491.68164199 -25.836588 491.69475087 -11.29199219 491.71704102 C-10.39531099 491.71841171 -9.49862978 491.71978241 -8.57477643 491.72119465 C1.20706464 491.73631096 10.98890239 491.75303804 20.7707386 491.77101612 C21.62944299 491.77258809 22.48814737 491.77416006 23.37287311 491.77577967 C30.43570351 491.78871809 30.43570351 491.78871809 33.66837145 491.79479728 C43.72867731 491.81363623 53.788963 491.8275006 63.84928568 491.83259294 C70.15292768 491.8358247 76.45656126 491.84207312 82.76019816 491.8507212 C87.10418744 491.85645985 91.44815119 491.85806401 95.79214364 491.85648732 C99.02801017 491.85658915 102.26386433 491.86310972 105.49972534 491.86869812 C106.6632131 491.86694775 107.82670086 491.86519738 109.02544582 491.86339396 C110.07162204 491.86640161 111.11779827 491.86940926 112.1956768 491.87250805 C113.10586913 491.8729978 114.01606146 491.87348755 114.95383537 491.87399215 C117 492 117 492 118 493 C118.07313567 495.53049402 118.09247527 498.03304837 118.0625 500.5625 C118.05573242 501.62887695 118.05573242 501.62887695 118.04882812 502.71679688 C118.03700864 504.47790013 118.01907263 506.23896036 118 508 C79.31504367 508.09158398 40.63010369 508.16205317 1.94506086 508.20426132 C-2.62354034 508.20926406 -7.19214131 508.21444136 -11.76074219 508.21972656 C-13.12501379 508.22130043 -13.12501379 508.22130043 -14.51684643 508.22290608 C-29.23763801 508.24030454 -43.95836701 508.27183916 -58.67912148 508.30861118 C-73.78743166 508.34603616 -88.8957091 508.36823915 -104.00406373 508.37635398 C-113.32443453 508.38183852 -122.64462845 508.39915208 -131.96494479 508.43166587 C-138.35890697 508.45283297 -144.75277789 508.45919508 -151.14677255 508.45400551 C-154.83411786 508.45144713 -158.52115439 508.45532938 -162.2084446 508.4768219 C-166.21198879 508.49998658 -170.21487912 508.49192938 -174.21847534 508.48101807 C-175.95489157 508.49849512 -175.95489157 508.49849512 -177.7263869 508.51632524 C-187.60947382 508.44360283 -195.84672657 506.06351384 -203.17578125 499.1953125 C-210.27595773 490.65077464 -212.85528465 480.88112144 -212 470 C-210.1938241 459.85174052 -205.1925952 453.16656442 -196.9296875 447.2265625 C-195.00589271 446.00374557 -193.04426957 445.00434237 -191 444 C-191.57514441 437.90346922 -192.5294341 431.98617517 -193.71386719 425.97973633 C-195.81927135 415.29644288 -197.5629208 404.63786165 -198.75 393.8125 C-198.86520996 392.76465332 -198.98041992 391.71680664 -199.09912109 390.63720703 C-200.57234134 376.40647889 -201.21021632 362.2348031 -201.1875 347.9375 C-201.18656342 347.16110168 -201.18562683 346.38470337 -201.18466187 345.58477783 C-201.08498268 306.92594923 -196.3032272 268.70719345 -189.9375 230.625 C-189.77191589 229.63396271 -189.60633179 228.64292542 -189.43572998 227.62185669 C-187.20546429 214.36220215 -184.70993746 201.16973914 -182 188 C-185.96 187.67 -189.92 187.34 -194 187 C-194.09945555 179.9382734 -194.17174596 172.87696157 -194.21972656 165.81469727 C-194.23974509 163.41618744 -194.26696833 161.01772582 -194.30175781 158.61938477 C-194.35070613 155.15629118 -194.37306731 151.6938472 -194.390625 148.23046875 C-194.41127014 147.17168015 -194.43191528 146.11289154 -194.45318604 145.02201843 C-194.45654643 133.67446755 -191.03747179 124.14504789 -183 116 C-173.36233796 107.67435582 -163.89216674 105.48661916 -151.375 105.8125 C-150.37082031 105.82603516 -149.36664063 105.83957031 -148.33203125 105.85351562 C-145.88743136 105.88843848 -143.44402266 105.93747252 -141 106 C-140.8146167 105.33178223 -140.6292334 104.66356445 -140.43823242 103.97509766 C-137.1885811 92.64303304 -130.94058371 83.62705581 -121 77 C-119.78643401 74.2379518 -119.78643401 74.2379518 -118.75 71 C-113.81118815 57.74703447 -105.86542953 49.49269193 -93 43.5 C-90.32274308 42.35822867 -88.97465831 42 -86 42 C-85.88914062 41.12988281 -85.77828125 40.25976562 -85.6640625 39.36328125 C-83.11116765 26.43361967 -73.42732013 14.6436921 -63 7 C-44.49708887 -4.89280144 -20.68912296 -9.04589359 0 0 Z M-60.875 26.8125 C-64.38785202 31.12103417 -66.75060043 35.94144245 -69 41 C-68.04480469 41.268125 -67.08960938 41.53625 -66.10546875 41.8125 C-52.78676563 45.75935867 -43.09979194 51.64325829 -36 64 C-35.59007812 64.70769531 -35.18015625 65.41539063 -34.7578125 66.14453125 C-31.40157139 72.74677197 -30.84944696 79.70891356 -30 87 C-35.28 87 -40.56 87 -46 87 C-46 84.69 -46 82.38 -46 80 C-48.75420705 69.89147412 -54.05389581 64.14438707 -63 59 C-70.53876835 55.62216426 -78.21013511 55.07543135 -86 58 C-93.90936196 62.06120438 -100.83188563 68.06900583 -103.9375 76.5625 C-105.05401763 80.48392779 -105.258937 83.94332036 -105 88 C-106.32451172 88.36158203 -106.32451172 88.36158203 -107.67578125 88.73046875 C-111.29238938 90.11166457 -113.35490213 91.69948336 -116.1875 94.3125 C-117.02667969 95.07175781 -117.86585937 95.83101563 -118.73046875 96.61328125 C-122.66264256 100.70944183 -122.66264256 100.70944183 -124 106 C-110.14 106 -96.28 106 -82 106 C-82 111.28 -82 116.56 -82 122 C-84.34077637 121.97381592 -86.68155273 121.94763184 -89.09326172 121.9206543 C-96.85633863 121.8375364 -104.619436 121.78246945 -112.38284111 121.74093914 C-117.08652297 121.71492582 -121.78974613 121.67968032 -126.49316406 121.62280273 C-131.03843777 121.56818607 -135.58327231 121.5385174 -140.12884903 121.52561378 C-141.85671012 121.5164268 -143.58454914 121.49848728 -145.31222153 121.47134972 C-158.89633985 121.24883515 -158.89633985 121.24883515 -171 127 C-173.28560125 129.1966831 -173.28560125 129.1966831 -174.5625 131.625 C-175.01753906 132.38039063 -175.47257812 133.13578125 -175.94140625 133.9140625 C-181.90271281 145.66069609 -178 155.4523913 -178 171 C-52.6 171 72.8 171 202 171 C204.40168084 146.38517499 204.40168084 146.38517499 195.75 128.25 C188.94797316 122.68470531 183.11178894 121.41377149 174.43310547 121.51898193 C173.39313132 121.51556423 172.35315718 121.51214653 171.28166866 121.50862527 C167.80989121 121.50205626 164.33889328 121.52400719 160.8671875 121.54589844 C158.37342853 121.54702712 155.87966823 121.54639265 153.38591003 121.54412842 C148.02370247 121.54321864 142.66173582 121.55453634 137.29959106 121.57707977 C129.5469683 121.60965192 121.79443957 121.62001209 114.0417558 121.62503174 C101.46219126 121.63377624 88.88273075 121.66036881 76.30322266 121.69824219 C64.08675658 121.7349842 51.8703188 121.76328522 39.65380859 121.78027344 C38.9002005 121.78132433 38.14659241 121.78237523 37.37014771 121.78345796 C33.58934293 121.78867829 29.80853796 121.79373308 26.02773285 121.79870558 C-5.3149204 121.84014129 -36.65744437 121.91086493 -68 122 C-68 116.72 -68 111.44 -68 106 C3.28 106 74.56 106 148 106 C145.31969987 97.95909961 140.69491565 91.92005137 133 88 C126.11818393 85.81662906 126.11818393 85.81662906 119 85 C118.9071875 83.329375 118.9071875 83.329375 118.8125 81.625 C117.63604715 72.74670248 113.17043599 66.20029232 106.3046875 60.62890625 C98.87913868 55.38067937 90.95545378 54.81756996 82 56 C73.28275694 58.85844482 67.2901231 63.26815032 62.7578125 71.1640625 C59.96926482 76.76038922 60 79.0904024 60 86 C54.72 86 49.44 86 44 86 C45.73564416 71.24702461 48.65906189 59.69170094 60.56640625 49.88671875 C64.57623519 47.00035902 68.353829 44.71652499 73 43 C72.05347878 37.75323422 68.84093825 34.51969614 65 31 C58.23252852 26.38272849 51.05548239 24.2653275 42.875 25.2578125 C40.83580862 25.69592002 38.95654302 26.27916836 37 27 C36.34257812 27.23460937 35.68515625 27.46921875 35.0078125 27.7109375 C27.97188156 30.69504829 22.36498348 36.62249799 19.0625 43.5 C17.78045912 47.7231935 17.33833553 51.6016381 17 56 C11.72 56 6.44 56 1 56 C4.64850751 37.10521528 4.64850751 37.10521528 9.2421875 30.7265625 C10.24342764 28.96960143 10.24342764 28.96960143 9.3203125 26.95703125 C3.70981518 18.6408799 -6.55902247 14.23419992 -16 12 C-32.88226292 10.18444377 -48.92676674 14.03847092 -60.875 26.8125 Z " fill="#000000" transform="translate(244,4)"/>
<path d="M0 0 C2.53289883 1.37925058 4.59729311 3.00142124 6.8046875 4.86328125 C8.25294922 6.07757813 8.25294922 6.07757813 9.73046875 7.31640625 C13.75645902 10.74823321 17.76867927 14.19632735 21.77539062 17.65063477 C26.72933128 21.91110621 31.78566324 26.02090049 36.9296875 30.05078125 C35.41415346 33.52853304 33.3523419 36.00657965 30.8046875 38.80078125 C30.08023437 39.6 29.35578125 40.39921875 28.609375 41.22265625 C28.05507813 41.8259375 27.50078125 42.42921875 26.9296875 43.05078125 C21.26031831 39.47012703 16.12506227 35.28100735 10.9296875 31.05078125 C10.89230469 32.29730469 10.85492188 33.54382813 10.81640625 34.828125 C9.43990472 73.18056712 -3.85112124 105.17003869 -31.8671875 131.69921875 C-58.93583215 155.40297664 -93.42074703 166.04852831 -129.0703125 164.05078125 C-158.70618271 161.6056919 -184.76742052 148.44639504 -206.0703125 128.05078125 C-206.81667969 127.36757813 -207.56304687 126.684375 -208.33203125 125.98046875 C-223.03047516 112.07722861 -232.51802896 93.97074893 -239.0703125 75.05078125 C-239.0703125 74.39078125 -239.0703125 73.73078125 -239.0703125 73.05078125 C-236.96779389 72.37893507 -234.86323487 71.71347157 -232.7578125 71.05078125 C-231.58605469 70.67953125 -230.41429687 70.30828125 -229.20703125 69.92578125 C-226.0703125 69.05078125 -226.0703125 69.05078125 -223.0703125 69.05078125 C-222.73205444 69.89503662 -222.73205444 69.89503662 -222.38696289 70.75634766 C-210.81612505 99.36713187 -193.87436445 124.05179332 -164.78955078 137.07177734 C-159.30977203 139.36094166 -153.74077695 141.29241013 -148.0703125 143.05078125 C-146.90757812 143.41300781 -145.74484375 143.77523437 -144.546875 144.1484375 C-115.81488868 151.34817766 -83.89182595 145.23891141 -58.59082031 130.47900391 C-50.5611612 125.54827316 -43.67618109 119.74344227 -37.0703125 113.05078125 C-36.25949219 112.23867188 -35.44867188 111.4265625 -34.61328125 110.58984375 C-12.82156535 87.64728765 -6.48180926 57.7183388 -7.0703125 27.05078125 C-8.02292969 27.870625 -8.97554687 28.69046875 -9.95703125 29.53515625 C-11.22392019 30.62374231 -12.49084941 31.71228149 -13.7578125 32.80078125 C-14.38365234 33.33960938 -15.00949219 33.8784375 -15.65429688 34.43359375 C-16.885052 35.49036778 -18.11920566 36.54319825 -19.35693359 37.59179688 C-20.86694633 38.87760994 -22.35520326 40.18887913 -23.83984375 41.50390625 C-24.57589844 42.014375 -25.31195313 42.52484375 -26.0703125 43.05078125 C-29.85111643 41.79051327 -30.84326675 40.11531591 -33.2578125 36.98828125 C-34.33095703 35.60962891 -34.33095703 35.60962891 -35.42578125 34.203125 C-35.96847656 33.49285156 -36.51117188 32.78257812 -37.0703125 32.05078125 C-35.49188161 27.74319243 -32.18515439 25.31970373 -28.7578125 22.48828125 C-28.13841797 21.96741943 -27.51902344 21.44655762 -26.88085938 20.90991211 C-25.58998027 19.82495116 -24.2968144 18.74270562 -23.00146484 17.66308594 C-20.56727725 15.63080087 -18.15049302 13.57847502 -15.73364258 11.52563477 C-13.18443456 9.36107167 -10.62878855 7.20439207 -8.0703125 5.05078125 C-7.29494141 4.32737549 -7.29494141 4.32737549 -6.50390625 3.58935547 C-2.62810292 0.0644629 -2.62810292 0.0644629 0 0 Z " fill="#000000" transform="translate(373.0703125,306.94921875)"/>
<path d="M0 0 C1.06833503 33.11838604 -7.73505041 62.82113609 -29.79296875 88.05078125 C-43.76077299 102.91204845 -66.78770549 116.10948256 -87.56640625 117.12548828 C-88.87931641 117.14264893 -88.87931641 117.14264893 -90.21875 117.16015625 C-103.95045924 117.56261397 -110.65987477 122.00195242 -119.875 131.6875 C-123.34546455 135.37792309 -126.71000892 139.14709135 -130 143 C-133.31115963 141.42400077 -135.66702538 139.68825694 -138.3125 137.125 C-139.38951172 136.10792969 -139.38951172 136.10792969 -140.48828125 135.0703125 C-142 133 -142 133 -141.87890625 131.12719727 C-140.66868156 128.19811735 -138.88939517 126.90543667 -136.44921875 124.89453125 C-123.84044921 113.9057909 -117.79490835 106.10635973 -116.4609375 88.8359375 C-116.39616211 87.83788086 -116.33138672 86.83982422 -116.26464844 85.81152344 C-115.64620498 79.2414175 -113.30479029 73.14610744 -111 67 C-110.55914062 65.80375 -110.11828125 64.6075 -109.6640625 63.375 C-100.03611674 39.11895986 -80.70160125 20.79945273 -57.125 10.25 C-39.01096354 2.44301348 -19.60294857 -0.14794678 0 0 Z M-75 41 C-75.92039062 41.77730469 -75.92039062 41.77730469 -76.859375 42.5703125 C-87.47672123 52.26229369 -98.29860056 70.54380917 -99.1875 85.0625 C-99.0946875 86.0215625 -99.0946875 86.0215625 -99 87 C-94.33125463 83.10023279 -89.90872191 79.04785356 -85.62890625 74.7265625 C-85.06171371 74.15795502 -84.49452118 73.58934753 -83.91014099 73.00350952 C-82.12520087 71.21303764 -80.34379744 69.41909516 -78.5625 67.625 C-77.34203061 66.39950677 -76.12132947 65.17424428 -74.90039062 63.94921875 C-71.93091244 60.96880226 -68.96459743 57.98527106 -66 55 C-62.92543087 56.47512158 -60.65248419 57.99823629 -58.1875 60.375 C-57.56230469 60.96023438 -56.93710937 61.54546875 -56.29296875 62.1484375 C-55 64 -55 64 -55.23423767 65.90948486 C-56.11817578 68.32261742 -57.13632017 69.49903693 -58.95922852 71.29980469 C-59.5797963 71.92014587 -60.20036407 72.54048706 -60.83973694 73.17962646 C-61.51266281 73.83706848 -62.18558868 74.4945105 -62.87890625 75.171875 C-63.5655687 75.8542926 -64.25223114 76.53671021 -64.95970154 77.23980713 C-67.15369415 79.41701196 -69.35788916 81.58355281 -71.5625 83.75 C-73.05211634 85.22456971 -74.5410572 86.69982213 -76.02929688 88.17578125 C-79.67840808 91.79182176 -83.33670379 95.39833288 -87 99 C-79.92482035 101.35839322 -68.7335919 95.38905145 -62.15625 92.23828125 C-41.31438238 81.04281857 -27.81559948 62.46281088 -20.6875 40.1875 C-18.47722228 32.45627106 -16.64902848 25.07234504 -17 17 C-38.13384652 17 -59.45006879 27.46177317 -75 41 Z " fill="#000000" transform="translate(324,272)"/>
<path d="M0 0 C2.50305584 2.21775312 4.94982481 4.48315066 7.3828125 6.77734375 C8.04796875 7.37804687 8.713125 7.97875 9.3984375 8.59765625 C17.80171268 16.48853661 25.07599374 26.54807861 30.3828125 36.77734375 C30.3828125 37.76734375 30.3828125 38.75734375 30.3828125 39.77734375 C28.44911019 40.78466774 26.51070944 41.78297663 24.5703125 42.77734375 C23.49136719 43.33421875 22.41242188 43.89109375 21.30078125 44.46484375 C18.3828125 45.77734375 18.3828125 45.77734375 15.3828125 45.77734375 C13.65625 43.3203125 13.65625 43.3203125 11.7578125 39.96484375 C7.88555898 33.36120392 3.45907133 27.52319822 -1.6171875 21.77734375 C-2.20628906 21.09285156 -2.79539062 20.40835938 -3.40234375 19.703125 C-20.02048302 1.69709717 -46.77090747 -9.99434268 -71.08789062 -11.36157227 C-104.60218546 -12.56825291 -134.13135383 -3.12019252 -159.33203125 19.1796875 C-175.05998425 34.13214821 -187.34833062 56.02020044 -189.6171875 77.77734375 C-188.17085937 76.46056641 -188.17085937 76.46056641 -186.6953125 75.1171875 C-185.41986023 73.98241011 -184.143786 72.84833151 -182.8671875 71.71484375 C-181.91585937 70.84375977 -181.91585937 70.84375977 -180.9453125 69.95507812 C-180.0171875 69.13813477 -180.0171875 69.13813477 -179.0703125 68.3046875 C-178.50473633 67.79671631 -177.93916016 67.28874512 -177.35644531 66.76538086 C-175.6171875 65.77734375 -175.6171875 65.77734375 -173.53515625 65.98095703 C-170.62138482 67.19082496 -169.27947463 69.24657684 -167.3671875 71.71484375 C-166.66078125 72.61074219 -165.954375 73.50664062 -165.2265625 74.4296875 C-163.6171875 76.77734375 -163.6171875 76.77734375 -163.6171875 78.77734375 C-165.12505911 80.15225674 -166.70258511 81.45098837 -168.3046875 82.71484375 C-169.30886719 83.51792969 -170.31304687 84.32101562 -171.34765625 85.1484375 C-172.15082275 85.79014893 -172.15082275 85.79014893 -172.97021484 86.44482422 C-175.72629738 88.67469354 -178.41882102 90.97828711 -181.1171875 93.27734375 C-182.20935105 94.20085723 -183.30179808 95.12403558 -184.39453125 96.046875 C-186.52214146 97.84499089 -188.63714396 99.6566194 -190.74609375 101.4765625 C-192.19822266 102.70826172 -192.19822266 102.70826172 -193.6796875 103.96484375 C-194.53691406 104.70089844 -195.39414063 105.43695313 -196.27734375 106.1953125 C-198.6171875 107.77734375 -198.6171875 107.77734375 -202.6171875 107.77734375 C-204.921875 106.23046875 -204.921875 106.23046875 -207.4921875 104.02734375 C-208.45769531 103.20878906 -209.42320312 102.39023437 -210.41796875 101.546875 C-211.48495731 100.624371 -212.55133866 99.70116433 -213.6171875 98.77734375 C-214.7768429 97.78066695 -215.9370126 96.78458829 -217.09765625 95.7890625 C-218.88745771 94.25354977 -220.67668622 92.71743083 -222.46289062 91.17773438 C-227.41653036 86.91683449 -232.47313019 82.8072504 -237.6171875 78.77734375 C-237.0524574 74.8690529 -235.19586779 72.87814152 -232.5546875 70.02734375 C-231.82121094 69.228125 -231.08773437 68.42890625 -230.33203125 67.60546875 C-229.76613281 67.0021875 -229.20023438 66.39890625 -228.6171875 65.77734375 C-224.42121803 67.17100504 -221.82420176 69.13574596 -218.6171875 72.15234375 C-215.38039424 75.17672245 -212.10749807 78.04742227 -208.6171875 80.77734375 C-208.43712158 79.94879883 -208.43712158 79.94879883 -208.25341797 79.10351562 C-200.38544317 43.36825475 -184.25620718 12.5671984 -152.69921875 -7.75390625 C-146.24488096 -11.74009042 -139.53751968 -15.1270548 -132.6171875 -18.22265625 C-131.54082031 -18.70476562 -130.46445313 -19.186875 -129.35546875 -19.68359375 C-86.93219325 -37.24906541 -34.95906116 -29.68911314 0 0 Z " fill="#000000" transform="translate(337.6171875,245.22265625)"/>
<path d="M0 0 C5.28 0 10.56 0 16 0 C16 5.28 16 10.56 16 16 C10.72 16 5.44 16 0 16 C0 10.72 0 5.44 0 0 Z " fill="#000000" transform="translate(263,142)"/>
<path d="M0 0 C5.28 0 10.56 0 16 0 C16 5.28 16 10.56 16 16 C10.72 16 5.44 16 0 16 C0 10.72 0 5.44 0 0 Z " fill="#000000" transform="translate(233,142)"/>
</svg>
