<?xml version="1.0" standalone="no"?>
<!DOCTYPE svg PUBLIC "-//W3C//DTD SVG 20010904//EN"
 "http://www.w3.org/TR/2001/REC-SVG-20010904/DTD/svg10.dtd">
<svg version="1.0" xmlns="http://www.w3.org/2000/svg"
 width="300.000000pt" height="300.000000pt" viewBox="0 0 300.000000 300.000000"
 preserveAspectRatio="xMidYMid meet">
<metadata>
Created by potrace 1.10, written by Peter Selinger 2001-2011
</metadata>
<g transform="translate(0.000000,300.000000) scale(0.100000,-0.100000)"
fill="#000000" stroke="none">
<path d="M1296 2985 c-8 -9 -13 -22 -10 -30 4 -8 -1 -18 -10 -21 -22 -9 -24
-172 -2 -180 13 -5 14 -47 10 -282 -6 -320 -7 -323 -95 -466 -77 -126 -121
-213 -150 -301 l-24 -70 -3 -777 -3 -777 28 -31 c21 -24 39 -32 73 -36 l45 -5
-25 20 c-14 11 -38 30 -53 42 l-28 21 3 772 3 771 24 65 c31 86 71 165 143
282 99 163 99 162 94 496 -2 158 -7 314 -11 347 -5 49 -2 71 14 113 12 29 21
55 21 57 0 11 -30 4 -44 -10z"/>
<path d="M1660 2995 c0 -2 9 -27 20 -55 24 -61 26 -134 4 -186 -14 -32 -15
-77 -12 -303 5 -307 3 -297 113 -481 78 -130 101 -176 134 -265 l26 -70 3
-768 3 -768 -29 -27 c-16 -15 -40 -35 -53 -45 l-24 -18 45 5 c34 4 52 12 73
36 l28 31 -3 777 -3 777 -24 70 c-29 88 -73 175 -150 301 -89 143 -89 146 -95
465 -5 239 -4 278 9 283 23 8 22 171 -1 180 -9 3 -14 13 -10 21 6 17 -19 45
-40 45 -8 0 -14 -2 -14 -5z"/>
<path d="M1491 2233 c-19 -13 -28 -14 -42 -5 -10 7 -25 12 -33 12 -21 0 -56
-49 -56 -79 0 -14 -27 -68 -60 -121 -78 -123 -102 -172 -108 -226 -6 -59 15
-84 72 -84 23 0 49 7 60 15 16 12 21 12 40 0 16 -12 61 -15 217 -15 177 0 197
2 212 18 38 42 13 120 -94 293 -32 53 -59 108 -59 122 0 14 -12 39 -26 56 -20
24 -34 31 -63 31 -20 0 -47 -7 -60 -17z m-56 -70 c-3 -27 -22 -83 -41 -125
-43 -96 -69 -172 -79 -226 l-7 -42 -45 0 -45 0 7 32 c12 54 39 109 109 217 55
88 66 112 66 148 0 37 3 43 21 43 20 0 21 -4 14 -47z m165 4 c0 -36 11 -60 66
-148 70 -108 97 -163 109 -217 l7 -32 -205 0 -204 0 8 43 c10 52 26 98 73 203
19 45 38 106 42 138 l7 56 48 0 49 0 0 -43z"/>
<path d="M1402 1260 c-18 -4 -43 -17 -56 -29 -34 -32 -111 -172 -111 -203 0
-19 -10 -33 -35 -50 -24 -17 -37 -34 -41 -58 -4 -19 -13 -49 -20 -66 -11 -27
-10 -38 5 -77 26 -70 91 -164 125 -181 41 -22 212 -22 244 -1 21 13 26 12 58
-10 34 -25 37 -25 72 -10 20 8 48 15 62 15 37 0 79 45 125 133 45 88 48 112
21 166 -31 59 -99 159 -113 163 -7 3 -11 20 -10 44 2 35 -3 45 -56 100 -40 41
-69 63 -92 67 -42 9 -136 7 -178 -3z m195 -44 c11 -4 31 -26 44 -51 20 -38 26
-42 43 -33 16 9 18 8 13 -6 -4 -9 -14 -41 -22 -71 -9 -30 -21 -57 -26 -61 -5
-3 -44 2 -85 12 -64 15 -73 20 -59 30 14 11 15 16 3 37 -13 25 -13 25 -57 -53
l-44 -79 -26 18 c-14 10 -46 29 -71 41 -57 29 -56 27 -38 47 8 10 34 51 57 91
28 46 51 74 65 77 54 12 167 12 203 1z m233 -386 c0 -31 -77 -178 -99 -190
-11 -5 -40 -10 -65 -10 -41 0 -46 -3 -46 -22 0 -19 -9 -13 -61 37 l-61 60 4
-42 4 -43 -102 0 c-56 0 -109 3 -118 6 -22 9 -116 167 -116 196 0 13 11 40 25
60 23 34 24 38 8 47 -24 13 -19 15 64 32 l72 15 10 -25 c17 -46 41 -124 41
-134 0 -5 -7 -4 -15 3 -12 10 -18 10 -30 0 -33 -27 -16 -35 70 -31 l85 3 0
-41 c0 -23 3 -41 8 -41 4 0 30 28 57 61 42 51 51 57 53 40 2 -15 11 -21 28
-21 13 0 24 2 24 5 0 3 -20 36 -45 75 -48 75 -50 80 -35 80 5 0 37 18 71 39
l62 39 53 -89 c30 -48 54 -98 54 -109z m-297 143 c10 -3 17 -15 17 -29 0 -13
8 -39 17 -59 17 -35 17 -36 -9 -62 -23 -23 -29 -24 -43 -13 -9 7 -33 16 -53
19 -30 5 -38 12 -45 38 -8 28 -5 36 29 77 26 31 44 44 54 40 8 -3 23 -9 33
-11z"/>
</g>
</svg>
