<?xml version="1.0" standalone="no"?>
<!DOCTYPE svg PUBLIC "-//W3C//DTD SVG 20010904//EN"
 "http://www.w3.org/TR/2001/REC-SVG-20010904/DTD/svg10.dtd">
<svg version="1.0" xmlns="http://www.w3.org/2000/svg"
 width="300.000000pt" height="300.000000pt" viewBox="0 0 300.000000 300.000000"
 preserveAspectRatio="xMidYMid meet">
<metadata>
Created by potrace 1.10, written by Peter Selinger 2001-2011
</metadata>
<g transform="translate(0.000000,300.000000) scale(0.100000,-0.100000)"
fill="#000000" stroke="none">
<path d="M1309 2758 c-299 -22 -576 -152 -795 -373 -234 -237 -364 -553 -364
-885 0 -543 349 -1026 866 -1199 188 -63 189 -63 988 -68 401 -3 745 -2 764 2
43 8 82 49 82 86 0 51 -70 232 -101 262 l-29 27 -206 0 -206 0 47 48 c134 135
253 374 302 602 27 130 25 363 -6 500 -82 375 -321 689 -658 863 -211 109
-438 154 -684 135z m318 -107 c237 -46 435 -149 601 -313 236 -231 354 -512
355 -838 0 -317 -123 -612 -346 -833 l-59 -57 -176 0 -177 0 42 20 c70 31 164
100 238 175 387 386 389 997 5 1386 -121 123 -271 211 -445 261 -70 20 -102
23 -250 23 -147 0 -181 -3 -249 -23 -294 -85 -507 -261 -637 -527 -72 -147
-94 -247 -94 -425 0 -178 22 -278 94 -425 128 -262 334 -435 621 -522 81 -25
101 -26 415 -34 182 -4 510 -8 730 -8 l400 -1 31 -90 30 -90 -725 0 c-605 0
-740 3 -813 15 -478 84 -851 446 -954 925 -25 117 -25 343 0 460 94 438 413
780 839 900 159 44 363 52 524 21z m8 -289 c164 -45 292 -119 406 -232 108
-108 174 -217 225 -370 27 -80 28 -95 28 -260 0 -165 -1 -180 -28 -260 -124
-374 -431 -610 -816 -627 -361 -16 -682 178 -840 508 -63 133 -82 220 -82 379
0 159 19 246 82 379 53 109 113 193 192 266 127 118 263 190 428 226 110 24
301 20 405 -9z m671 -1704 c-22 -31 -20 -45 9 -73 l24 -25 -81 0 -81 0 64 60
c66 61 91 76 65 38z m-476 -15 l-22 -28 31 -27 31 -28 -177 0 c-97 0 -174 2
-172 4 2 2 43 14 92 26 48 12 118 34 155 50 84 36 88 36 62 3z m900 -104 c17
-31 7 -33 -20 -4 -19 20 -20 25 -7 25 9 0 21 -9 27 -21z m60 -244 c-7 -8 -19
-15 -27 -15 -10 0 -7 8 9 31 18 24 24 27 26 14 2 -9 -2 -22 -8 -30z"/>
<path d="M1240 2180 c-128 -33 -213 -83 -316 -185 -79 -78 -98 -103 -137 -185
-58 -122 -72 -181 -72 -310 0 -128 14 -188 70 -305 208 -435 780 -532 1120
-190 89 89 135 159 171 264 67 193 45 413 -58 589 -53 92 -179 210 -275 260
-158 82 -339 104 -503 62z m304 -85 c219 -46 404 -227 461 -450 19 -76 19
-214 0 -290 -57 -223 -242 -404 -461 -450 -207 -44 -404 14 -554 164 -129 128
-183 256 -183 431 0 175 54 303 183 431 150 150 347 208 554 164z"/>
<path d="M1279 1897 c-278 -95 -373 -426 -191 -665 95 -124 299 -184 453 -132
79 27 123 56 182 119 115 123 143 303 72 459 -28 61 -110 151 -169 186 -102
59 -233 72 -347 33z m278 -102 c66 -33 136 -110 162 -181 59 -156 -14 -336
-167 -411 -79 -39 -191 -40 -272 -2 -66 31 -130 93 -162 157 -33 68 -33 216 0
284 42 85 128 155 219 178 61 15 160 4 220 -25z"/>
</g>
</svg>
