<?xml version="1.0" encoding="UTF-8"?>
<svg version="1.1" xmlns="http://www.w3.org/2000/svg" width="512" height="512">
<path d="M0 0 C0.2431041 0.67333374 0.48620819 1.34666748 0.73667908 2.04040527 C3.07227822 8.50856351 5.40933309 14.97619425 7.74787045 21.44329071 C8.94895884 24.76498232 10.14955786 28.0868488 11.34887695 31.40917969 C12.50921738 34.62347981 13.67109919 37.83721953 14.83382034 41.05065918 C15.29633164 42.32983542 15.75828354 43.60921407 16.21967697 44.88879395 C18.65717619 51.64785247 21.1321719 58.38831219 23.73486328 65.0859375 C24.37289635 66.73825378 24.37289635 66.73825378 25.02381897 68.4239502 C25.82168465 70.47996243 26.63002619 72.53195179 27.45066833 74.57897949 C27.80282913 75.4881311 28.15498993 76.39728271 28.51782227 77.33398438 C28.82969986 78.11914429 29.14157745 78.9043042 29.46290588 79.71325684 C30.11336679 82.48267281 29.80286042 84.28887553 29 87 C27.53564453 88.63061523 27.53564453 88.63061523 25.6328125 90.05859375 C24.92213623 90.60177246 24.21145996 91.14495117 23.47924805 91.70458984 C22.70234619 92.2764502 21.92544434 92.84831055 21.125 93.4375 C19.91420776 94.35329834 19.91420776 94.35329834 18.67895508 95.28759766 C16.13076444 97.20766632 13.56797438 99.10649264 11 101 C10.21641113 101.57991699 9.43282227 102.15983398 8.62548828 102.75732422 C5.52878243 105.04727566 2.42873934 107.33248988 -0.67919922 109.60717773 C-6.67564562 113.99941327 -12.59831561 118.4814297 -18.5 123 C-25.88632009 128.65365962 -33.33194732 134.21470389 -40.8359375 139.7109375 C-47.67606295 144.73308941 -54.41990994 149.87611662 -61.1574707 155.03466797 C-66.95380929 159.46423345 -72.79953926 163.81815557 -78.6875 168.125 C-84.87256071 172.6511537 -90.96904047 177.27050653 -97 182 C-103.80240433 187.3344624 -110.70659786 192.50593814 -117.68359375 197.609375 C-123.67751178 202.00231167 -129.59959344 206.48240806 -135.5 211 C-142.88632009 216.65365962 -150.33194732 222.21470389 -157.8359375 227.7109375 C-163.77671484 232.0727707 -169.64751917 236.52056197 -175.5 241 C-184.55362501 247.92923111 -193.6969058 254.72752451 -202.90478516 261.45019531 C-204.36312544 262.52891171 -205.80997046 263.62327077 -207.24755859 264.72949219 C-207.96379395 265.28024414 -208.6800293 265.83099609 -209.41796875 266.3984375 C-210.05887451 266.89778809 -210.69978027 267.39713867 -211.36010742 267.91162109 C-213 269 -213 269 -215 269 C-217.53514622 240.94361658 -219.6175098 212.85635352 -221.64428711 184.75927734 C-222.09958491 178.45123786 -222.56209454 172.1437482 -223.02622509 165.8363533 C-223.3876491 160.90867291 -223.74417134 155.98064656 -224.09935951 151.05251312 C-224.26783524 148.72585051 -224.43804314 146.39931256 -224.6101284 144.07291412 C-225.4991062 132.02952221 -226.288697 120.08092939 -226 108 C-211.38497232 100.63301677 -196.71008818 93.41697199 -181.92724609 86.39306641 C-176.90433105 84.00267831 -171.889632 81.5952046 -166.875 79.1875 C-165.84785889 78.69451416 -164.82071777 78.20152832 -163.76245117 77.69360352 C-155.00623193 73.48854037 -146.25939458 69.26413354 -137.5133667 65.03793335 C-128.59982533 60.73127065 -119.67549991 56.44782006 -110.74169922 52.18334961 C-102.98390807 48.47735971 -95.24082042 44.74125359 -87.5 41 C-76.90261855 35.87840502 -66.29286194 30.78342566 -55.671875 25.7109375 C-50.66736953 23.32043925 -45.66668121 20.92205798 -40.66723633 18.52099609 C-38.57358615 17.51556631 -36.47967776 16.51067402 -34.38549805 15.50634766 C-29.04568593 12.94528468 -23.70955741 10.3769573 -18.37890625 7.796875 C-16.27344307 6.78123845 -14.16797453 5.76561303 -12.0625 4.75 C-10.58716797 4.03263672 -10.58716797 4.03263672 -9.08203125 3.30078125 C-8.1796875 2.86636719 -7.27734375 2.43195313 -6.34765625 1.984375 C-5.15668335 1.40768066 -5.15668335 1.40768066 -3.94165039 0.81933594 C-2 0 -2 0 0 0 Z " fill="#000000" transform="translate(482,141)"/>
<path d="M0 0 C19.22621321 2.4341514 38.329651 5.58447552 57.45017219 8.72333574 C62.00609973 9.47073361 66.56251338 10.21515766 71.11885071 10.96005249 C78.74306592 12.20698059 86.36688948 13.4562809 93.99047852 14.70703125 C102.80173651 16.15260225 111.61362919 17.59425417 120.42585725 19.03389895 C128.93827352 20.42466133 137.45023121 21.8182112 145.96198463 23.21302414 C149.57381132 23.80483659 153.18579821 24.39565701 156.79791832 24.98567581 C161.03461535 25.6778397 165.27090684 26.37243375 169.50689316 27.06893349 C171.06162783 27.32416443 172.61650182 27.57854834 174.17152214 27.83203316 C176.28914444 28.17737026 178.40624545 28.52574163 180.52323914 28.87490845 C181.70866649 29.06919748 182.89409384 29.26348652 184.11544323 29.4636631 C187 30 187 30 190 31 C191.84449736 47.80082329 193.04520938 64.64228111 194.2220788 81.49988079 C194.49487787 85.39836555 194.77105709 89.29661097 195.04684448 93.19488525 C195.56618608 100.54286926 196.08258317 107.89105696 196.59786403 115.23932672 C197.18565198 123.61948138 197.77681142 131.99939721 198.36822343 140.37929678 C199.58250912 157.58593885 200.79266046 174.79286917 202 192 C197.32754026 191.42896759 193.06267813 190.52650085 188.59228516 189.06079102 C187.35303787 188.65776764 186.11379059 188.25474426 184.83699036 187.83950806 C183.48766344 187.39436089 182.13835471 186.9491586 180.7890625 186.50390625 C179.36470227 186.03877009 177.94015224 185.57421478 176.51542664 185.11019897 C173.47359705 184.1185136 170.43286809 183.12355114 167.39297485 182.12594604 C160.11429107 179.7377616 152.82974062 177.36757484 145.54530525 174.99700356 C143.89845595 174.46102406 142.25167055 173.92484817 140.60494804 173.38847923 C125.53564188 168.4806706 110.43410753 163.68191939 95.3125 158.9375 C72.57302893 151.79720478 49.89053179 144.48999906 27.22042847 137.13317871 C9.2270656 131.29415898 -8.77264056 125.48210648 -26.84130859 119.87915039 C-28.06156738 119.50008545 -29.28182617 119.12102051 -30.5390625 118.73046875 C-31.56209473 118.41489014 -32.58512695 118.09931152 -33.63916016 117.77416992 C-36 117 -36 117 -38 116 C-37.40915546 110.87112423 -36.24872125 106.20811962 -34.56665039 101.32177734 C-34.31922089 100.587052 -34.07179138 99.85232666 -33.81686401 99.09533691 C-32.99963361 96.67351724 -32.17372715 94.25475453 -31.34765625 91.8359375 C-30.76718344 90.12196886 -30.18723232 88.40782346 -29.60777283 86.69351196 C-28.07666425 82.16872432 -26.5380903 77.64650891 -24.99804688 73.12475586 C-23.46981162 68.63297254 -21.94923558 64.13859897 -20.42773438 59.64453125 C-13.68446404 39.74024068 -6.87961326 19.85758404 0 0 Z " fill="#000000" transform="translate(38,222)"/>
<path d="M0 0 C1.94036133 0.28778824 1.94036133 0.28778824 3.91992188 0.58139038 C7.44724215 1.10488863 10.97340826 1.63579853 14.49934602 2.1685195 C17.44670301 2.61313834 20.39459984 3.05411785 23.34249991 3.49511921 C30.29343149 4.53503706 37.24343445 5.58100129 44.19287109 6.63085938 C51.36153361 7.71373561 58.53162249 8.78675484 65.70249063 9.85491931 C71.86653581 10.77343774 78.02968253 11.69781454 84.19213408 12.62696469 C87.86983615 13.18142695 91.54783279 13.73369941 95.22669411 14.28042221 C99.32172397 14.88932237 103.41480755 15.51044655 107.5078125 16.1328125 C108.72810654 16.31263672 109.94840057 16.49246094 111.20567322 16.67773438 C112.31731842 16.84876678 113.42896362 17.01979919 114.57429504 17.1960144 C115.54192685 17.3416577 116.50955866 17.48730099 117.50651264 17.63735771 C119.93041992 18.19580078 119.93041992 18.19580078 122.93041992 20.19580078 C110.71631643 26.33191322 98.46061211 32.38061301 86.18041992 38.38330078 C85.23312012 38.84655762 84.28582031 39.30981445 83.30981445 39.78710938 C71.17514471 45.7168514 59.00590849 51.53908318 46.72631836 57.16333008 C35.8734132 62.16213296 25.15635328 67.43144854 14.43041992 72.69580078 C2.6480006 78.47868265 -9.13583845 84.23022165 -21.06958008 89.69580078 C-35.83916762 96.46204111 -50.41090891 103.63036785 -64.98574829 110.80435181 C-66.72644203 111.65641959 -68.47059045 112.50146572 -70.21810913 113.33944702 C-74.67547246 115.48292026 -79.02705201 117.71300068 -83.32006836 120.17089844 C-84.2004628 120.64928665 -85.08085724 121.12767487 -85.9879303 121.62055969 C-87.62642252 122.51236198 -89.24415804 123.44438656 -90.82884216 124.42863464 C-99.25089871 128.88057673 -107.71597328 126.42346351 -116.63109398 124.80588722 C-120.43310097 124.13130171 -124.24304992 123.51676185 -128.0572052 122.91581726 C-134.24506615 121.93866849 -140.43066136 120.94897731 -146.61392212 119.94309998 C-147.43841164 119.80898984 -148.26290115 119.6748797 -149.1123752 119.53670561 C-150.81052786 119.26034685 -152.50866386 118.98388567 -154.20678377 118.7073257 C-156.81851242 118.28200157 -159.4303104 117.85710553 -162.0421257 117.43231392 C-170.23563735 116.09949854 -178.42885426 114.76489099 -186.62167132 113.42781252 C-196.04584186 111.88981636 -205.47100833 110.35811514 -214.89704382 108.83159155 C-222.22059066 107.64516181 -229.54321179 106.45312962 -236.86515176 105.2568236 C-241.22556676 104.54452473 -245.58634218 103.83463902 -249.94810867 103.1306591 C-254.0320021 102.47138116 -258.11470598 101.80518591 -262.19658852 101.13357353 C-263.6946047 100.88833673 -265.19303659 100.6456242 -266.69189644 100.40559769 C-268.73373281 100.07822731 -270.77388924 99.74187584 -272.81387329 99.40318298 C-273.9563534 99.21719008 -275.0988335 99.03119719 -276.27593422 98.83956814 C-279.06958008 98.19580078 -279.06958008 98.19580078 -282.06958008 96.19580078 C-268.67013741 90.74453786 -255.1853231 85.57975004 -241.60717773 80.5914917 C-235.70140064 78.42112081 -229.79946621 76.24034494 -223.89770508 74.05908203 C-223.2686174 73.82664795 -222.63952972 73.59421387 -221.99137878 73.35473633 C-206.42101261 67.60034991 -190.88200243 61.7626761 -175.34279251 55.92480087 C-156.07082267 48.68471026 -136.79577682 41.45353467 -117.49536133 34.28955078 C-116.35838554 33.86748352 -116.35838554 33.86748352 -115.19844055 33.43688965 C-107.72480138 30.66286996 -100.25015347 27.89159118 -92.77371597 25.12512207 C-79.14387902 20.08099845 -65.52589927 15.01471804 -51.96411133 9.78955078 C-50.89548355 9.37927643 -49.82685577 8.96900208 -48.72584534 8.54629517 C-43.87989148 6.68561815 -39.03897464 4.81402648 -34.20751953 2.91601562 C-32.54977982 2.27693744 -30.89183492 1.63839112 -29.23364258 1.00048828 C-28.51316238 0.71129517 -27.79268219 0.42210205 -27.05036926 0.12414551 C-26.37302231 -0.13338501 -25.69567535 -0.39091553 -24.99780273 -0.65625 C-24.14202133 -0.99162277 -24.14202133 -0.99162277 -23.26895142 -1.33377075 C-15.61093861 -2.97176028 -7.6084091 -1.15601547 0 0 Z " fill="#000000" transform="translate(338.069580078125,99.80419921875)"/>
</svg>
