<?xml version="1.0" standalone="no"?>
<!DOCTYPE svg PUBLIC "-//W3C//DTD SVG 20010904//EN"
 "http://www.w3.org/TR/2001/REC-SVG-20010904/DTD/svg10.dtd">
<svg version="1.0" xmlns="http://www.w3.org/2000/svg"
 width="300.000000pt" height="300.000000pt" viewBox="0 0 300.000000 300.000000"
 preserveAspectRatio="xMidYMid meet">
<metadata>
Created by potrace 1.10, written by Peter Selinger 2001-2011
</metadata>
<g transform="translate(0.000000,300.000000) scale(0.100000,-0.100000)"
fill="#000000" stroke="none">
<path d="M496 2955 c-47 -16 -91 -57 -117 -107 -18 -36 -19 -78 -19 -1348 0
-1278 0 -1312 19 -1349 26 -50 81 -97 128 -110 24 -7 232 -11 578 -11 l540 0
0 418 0 417 30 54 c16 29 44 65 62 78 66 51 79 52 518 53 l410 0 -5 887 c-5
811 -6 891 -22 919 -24 44 -81 91 -125 103 -25 7 -358 11 -998 11 -789 -1
-967 -3 -999 -15z m1973 -36 c38 -8 58 -20 85 -49 20 -22 38 -50 41 -62 3 -13
4 -403 3 -868 l-3 -845 -400 -5 c-393 -5 -401 -5 -447 -28 -56 -28 -112 -88
-142 -151 -20 -44 -21 -64 -26 -441 l-5 -395 -505 -3 c-541 -3 -562 -2 -613
46 -61 57 -57 -35 -57 1382 0 1100 2 1305 14 1328 23 43 68 81 111 91 58 13
1881 14 1944 0z"/>
<path d="M958 2433 c-49 -8 -68 -45 -68 -134 0 -68 3 -81 24 -106 l24 -28 562
0 562 0 19 24 c28 34 28 188 0 222 l-19 24 -539 1 c-296 1 -550 -1 -565 -3z
m1102 -133 l0 -95 -565 0 -565 0 0 95 0 95 565 0 565 0 0 -95z"/>
<path d="M915 1934 c-22 -24 -25 -36 -25 -111 0 -76 2 -86 25 -108 l24 -25
559 0 559 0 21 23 c19 20 22 35 22 114 0 145 57 133 -607 133 l-554 0 -24 -26z
m1145 -109 l0 -95 -565 0 -565 0 0 95 0 95 565 0 565 0 0 -95z"/>
<path d="M958 1483 c-49 -8 -68 -45 -68 -134 0 -68 3 -81 24 -106 l24 -28 230
0 c285 0 272 -7 272 135 0 140 10 135 -249 136 -113 1 -218 0 -233 -3z m452
-133 l0 -95 -240 0 -240 0 0 95 0 95 240 0 240 0 0 -95z"/>
<path d="M2210 863 c-358 -3 -365 -3 -382 -24 -16 -19 -18 -53 -18 -388 l0
-366 387 387 c213 213 385 388 383 390 -3 2 -169 2 -370 1z m258 -53 c-6 -20
-602 -609 -610 -604 -12 8 -10 572 2 595 10 18 24 19 311 19 203 0 300 -3 297
-10z"/>
</g>
</svg>
