<?xml version="1.0" encoding="UTF-8"?>
<svg version="1.1" xmlns="http://www.w3.org/2000/svg" width="512" height="512">
<path d="M0 0 C4.21075767 2.11119802 8.18288679 4.5869628 12.1875 7.0625 C14.61533921 8.53777388 17.04821655 10.00467278 19.48046875 11.47265625 C20.1025119 11.84967682 20.72455505 12.22669739 21.365448 12.61514282 C27.84183198 16.53251381 34.41401648 20.27024185 41 24 C51.35847207 29.87966845 61.62380853 35.90150171 71.85546875 42 C79.85426538 46.75654341 87.90882732 51.40340593 96 56 C105.22386814 61.24007821 114.38691059 66.5683573 123.5 72 C132.6775781 77.46894535 141.90249783 82.84149347 151.1875 88.125 C162.8617401 94.76846103 174.48162951 101.50001247 186.07324219 108.28662109 C191.0050806 111.17381178 195.93955816 114.05647417 200.875 116.9375 C201.86016602 117.51258301 202.84533203 118.08766602 203.86035156 118.68017578 C211.2272234 122.97612199 218.61066141 127.2428357 226 131.5 C237.3674082 138.04901974 248.70563612 144.64679855 260.03222656 151.26611328 C264.02040006 153.59615673 268.01018206 155.92343657 272.00024414 158.25024414 C273.98676358 159.40897978 275.97293391 160.56831415 277.95874023 161.72827148 C283.18795144 164.78197937 288.42334849 167.82438444 293.66796875 170.8515625 C294.75916016 171.48320312 295.85035156 172.11484375 296.97460938 172.765625 C299.06382181 173.97470114 301.15487335 175.1806069 303.24804688 176.3828125 C304.19099609 176.929375 305.13394531 177.4759375 306.10546875 178.0390625 C307.34526489 178.75376709 307.34526489 178.75376709 308.61010742 179.48291016 C309.39877197 179.9835498 310.18743652 180.48418945 311 181 C311.85963852 181.49077026 312.71927704 181.98154053 313.60496521 182.48718262 C317.20218148 186.26130214 316.73125202 189.68019081 316.71044922 194.72216797 C316.72563599 195.70797852 316.74082275 196.69378906 316.75646973 197.70947266 C316.79889277 200.97072399 316.80376622 204.23067737 316.8046875 207.4921875 C316.81821291 209.75896747 316.8326398 212.02574223 316.84793091 214.29251099 C316.87336592 219.04556422 316.87862044 223.79815858 316.87158203 228.55126953 C316.86548391 234.64085525 316.92335963 240.7279571 316.99824333 246.81701469 C317.0463467 251.49944584 317.05329341 256.18127712 317.0485878 260.86392593 C317.05264083 263.10865624 317.07114842 265.35340886 317.10439682 267.59789658 C317.14617288 270.73999876 317.13075679 273.87691291 317.10107422 277.01904297 C317.12557648 277.94496246 317.15007874 278.87088196 317.17532349 279.82485962 C317.08515894 283.78477891 316.97212919 286.07078299 314.02811718 288.88483906 C311.74213064 290.42662131 309.45201699 291.7430505 307 293 C306.01136963 293.60062256 305.02273926 294.20124512 304.00415039 294.82006836 C303.12750732 295.32159424 302.25086426 295.82312012 301.34765625 296.33984375 C300.33767578 296.91992188 299.32769531 297.5 298.28710938 298.09765625 C297.22298828 298.70480469 296.15886719 299.31195313 295.0625 299.9375 C293.3326544 300.92992138 291.60281157 301.92234765 289.87313843 302.91506958 C288.09060128 303.93764091 286.30731803 304.95890134 284.52392578 305.97998047 C279.00810231 309.139699 273.50476433 312.32106868 268 315.5 C265.83600547 316.7488157 263.67194277 317.9975133 261.5078125 319.24609375 C260.43563477 319.86468262 259.36345703 320.48327148 258.25878906 321.12060547 C254.98300434 323.00980166 251.70644107 324.89764109 248.4296875 326.78515625 C238.96092476 332.24107454 229.49528759 337.7013572 220.06274414 343.21972656 C216.12250189 345.52368605 212.17721333 347.81893793 208.23193359 350.11425781 C205.93278815 351.4557444 203.63623623 352.80106604 201.34228516 354.15136719 C198.16813613 356.01942935 194.9873558 357.87575059 191.8024292 359.72537231 C190.57270549 360.44221813 189.34530264 361.1630623 188.12042236 361.88815308 C186.40816624 362.90095508 184.68664047 363.89803488 182.96484375 364.89453125 C181.9812085 365.47050049 180.99757324 366.04646973 179.98413086 366.63989258 C175.68532151 368.59920428 171.97004156 369.71144007 167.41479492 368.06640625 C166.61146729 367.57011719 165.80813965 367.07382812 164.98046875 366.5625 C164.05451904 366.0051416 163.12856934 365.4477832 162.17456055 364.87353516 C161.18883057 364.25526855 160.20310059 363.63700195 159.1875 363 C157.03194022 361.69417246 154.87566581 360.38952399 152.71875 359.0859375 C151.60886719 358.40756836 150.49898438 357.72919922 149.35546875 357.03027344 C144.01962708 353.80174759 138.60176172 350.7195104 133.1875 347.625 C124.2895504 342.50976004 115.4434891 337.31339886 106.625 332.0625 C96.23821961 325.8800717 85.77983611 319.83933982 75.27441406 313.86181641 C66.79559317 309.03611628 58.35709206 304.14521851 49.93676758 299.21826172 C42.64045382 294.95093751 35.3246826 290.71842634 28 286.5 C14.6497785 278.80893898 1.34266785 271.04516989 -11.95898438 263.27050781 C-23.2885306 256.6497809 -34.62990067 250.05088349 -46 243.5 C-54.75838697 238.45190036 -63.51141563 233.39481778 -72.25 228.3125 C-73.24386719 227.73628906 -74.23773438 227.16007813 -75.26171875 226.56640625 C-88.54591327 218.82804051 -88.54591327 218.82804051 -90.0625 216.0625 C-89.97319062 213.11529035 -88.65267522 211.37985232 -87 209 C-79.62166282 209.21978026 -74.26212701 212.96919203 -68.0625 216.6875 C-66.90496155 217.37026874 -65.74674606 218.05189084 -64.58789062 218.73242188 C-62.20896111 220.13148096 -59.83371623 221.53649101 -57.46142578 222.94677734 C-52.3266962 225.99716646 -47.16155082 228.99530933 -42 232 C-40.02080674 233.15620447 -38.04164028 234.31245484 -36.0625 235.46875 C-29.72104363 239.16793288 -23.36162597 242.835643 -17 246.5 C-7.66136793 251.8791408 1.65640317 257.29259447 10.9609375 262.73046875 C18.29283764 267.01222146 25.64270807 271.26204691 33 275.5 C46.35015665 283.19117469 59.65733128 290.9548296 72.95898438 298.72949219 C84.2885296 305.35021852 95.62982135 311.94925544 107 318.5 C126.74061664 329.87502705 146.39906141 341.38605804 166 353 C166.33 346.73 166.66 340.46 167 334 C165.35 333.34 163.7 332.68 162 332 C160.42626722 331.1794454 158.86798545 330.32875569 157.32421875 329.453125 C155.97759155 328.69140991 155.97759155 328.69140991 154.60375977 327.91430664 C153.64139404 327.36508545 152.67902832 326.81586426 151.6875 326.25 C150.67421631 325.67435303 149.66093262 325.09870605 148.61694336 324.50561523 C138.36847185 318.66861726 128.18319313 312.72410338 118.00732422 306.76171875 C113.04930249 303.85726309 108.08761895 300.95909225 103.125 298.0625 C102.14023682 297.48765869 101.15547363 296.91281738 100.14086914 296.32055664 C92.7736093 292.02433377 85.38974972 287.75740115 78 283.5 C64.64990822 275.80871162 51.34266958 268.0451709 38.04101562 260.27050781 C26.71147109 253.64978188 15.37023397 247.05064773 4 240.5 C-9.35009178 232.80871162 -22.65733042 225.0451709 -35.95898438 217.27050781 C-47.28852891 210.64978188 -58.62976603 204.05064773 -70 197.5 C-81.34237068 190.96540494 -92.65582332 184.38247679 -103.95751953 177.77783203 C-109.32470128 174.64159246 -114.69354022 171.50819442 -120.0625 168.375 C-121.05588379 167.79484131 -122.04926758 167.21468262 -123.07275391 166.61694336 C-128.03518044 163.7207001 -133.00530507 160.84025648 -138 158 C-138.8894252 164.39316159 -139.69726016 170.95403828 -137 177 C-131.80966942 182.11282624 -124.87949845 185.03076827 -118.25244141 187.859375 C-115.95784765 189.02134574 -114.53012435 189.93360229 -113 192 C-113.3125 195.6875 -113.3125 195.6875 -114 199 C-119.59390962 200.24537701 -122.23007742 199.90552945 -127.08203125 196.88671875 C-128.17837891 196.21576172 -129.27472656 195.54480469 -130.40429688 194.85351562 C-131.54047461 194.13168357 -132.67654116 193.40967648 -133.8125 192.6875 C-134.96705672 191.97552066 -136.12264834 191.26521664 -137.27929688 190.55664062 C-145.58741751 185.41258249 -145.58741751 185.41258249 -148 183 C-148.27123547 181.17769241 -148.27123547 181.17769241 -148.30107117 178.92755127 C-148.31682693 178.07522919 -148.3325827 177.2229071 -148.34881592 176.34475708 C-148.35576477 175.40759857 -148.36271362 174.47044006 -148.36987305 173.50488281 C-148.38462173 172.51936432 -148.39937042 171.53384583 -148.41456604 170.51846313 C-148.45920461 167.24669448 -148.48734342 163.97510463 -148.51171875 160.703125 C-148.52111795 159.58712669 -148.53051716 158.47112839 -148.54020119 157.32131195 C-148.58781649 151.41409506 -148.62148349 145.50696768 -148.64526367 139.59960938 C-148.67297836 133.49445978 -148.75214711 127.39110144 -148.84280682 121.28660965 C-148.90258521 116.59569645 -148.92252651 111.9052108 -148.93177223 107.21395111 C-148.94336797 104.96358024 -148.97025236 102.71323431 -149.01270103 100.46323395 C-149.06863324 97.31158645 -149.06784279 94.16469892 -149.0534668 91.01269531 C-149.08268219 90.08363373 -149.11189758 89.15457214 -149.14199829 88.19735718 C-149.09458181 85.5143447 -148.95391981 83.51179769 -148 81 C-145.2842672 78.39757713 -142.33243612 76.70531159 -139 75 C-138.01136963 74.39937744 -137.02273926 73.79875488 -136.00415039 73.17993164 C-135.12750732 72.67840576 -134.25086426 72.17687988 -133.34765625 71.66015625 C-132.33767578 71.08007812 -131.32769531 70.5 -130.28710938 69.90234375 C-129.22298828 69.29519531 -128.15886719 68.68804687 -127.0625 68.0625 C-125.3326544 67.07007862 -123.60281157 66.07765235 -121.87313843 65.08493042 C-120.09060128 64.06235909 -118.30731803 63.04109866 -116.52392578 62.02001953 C-111.00810212 58.86030089 -105.50479254 55.67888278 -100 52.5 C-97.83339031 51.24990125 -95.6667235 49.99990149 -93.5 48.75 C-92.4275 48.13125 -91.355 47.5125 -90.25 46.875 C-78.33333333 40 -66.41666667 33.125 -54.5 26.25 C-53.42556641 25.63012207 -52.35113281 25.01024414 -51.24414062 24.37158203 C-49.09704864 23.13289998 -46.94991386 21.8942921 -44.80273438 20.65576172 C-39.70411191 17.7146665 -34.60594704 14.77278587 -29.50927734 11.82830811 C-27.08952335 10.43041399 -24.66952737 9.03293911 -22.24951172 7.63549805 C-20.53198948 6.64347676 -18.81481948 5.65084571 -17.09765625 4.65820312 C-15.54884766 3.76391602 -15.54884766 3.76391602 -13.96875 2.8515625 C-12.59879883 2.05999756 -12.59879883 2.05999756 -11.20117188 1.25244141 C-7.09171533 -1.08579197 -4.54385265 -1.40367107 0 0 Z M-10.91796875 13.5703125 C-11.91393066 14.13057129 -12.90989258 14.69083008 -13.93603516 15.26806641 C-15.54551025 16.18724854 -15.54551025 16.18724854 -17.1875 17.125 C-18.2914209 17.74938965 -19.3953418 18.3737793 -20.53271484 19.01708984 C-31.26977107 25.10878803 -41.92957263 31.3332011 -52.57519531 37.58300781 C-55.70410456 39.41146022 -58.84869025 41.21047508 -62 43 C-60.68596821 46.94209538 -59.21143347 47.30057532 -55.62109375 49.30078125 C-53.91638916 50.2609314 -53.91638916 50.2609314 -52.17724609 51.24047852 C-51.56838562 51.57782013 -50.95952515 51.91516174 -50.33221436 52.26272583 C-47.76424468 53.68551984 -45.20750864 55.12797827 -42.64978027 56.56907654 C-41.33829734 57.30759806 -40.02619789 58.04502577 -38.71350098 58.78138733 C-32.72748945 62.14080272 -26.7953145 65.58868308 -20.875 69.0625 C-12.66595488 73.86884272 -4.43430673 78.63376574 3.8125 83.375 C12.70905577 88.49271117 21.55646964 93.68657657 30.375 98.9375 C40.76038225 105.11909609 51.21761037 111.15853218 61.72119141 117.13598633 C72.21665164 123.11024791 82.65147527 129.18492884 93.07324219 135.28662109 C98.0050806 138.17381178 102.93955816 141.05647417 107.875 143.9375 C108.86016602 144.51258301 109.84533203 145.08766602 110.86035156 145.68017578 C118.2272234 149.97612199 125.61066141 154.2428357 133 158.5 C146.35009178 166.19128838 159.65733042 173.9548291 172.95898438 181.72949219 C175.93065504 183.46606835 178.902703 185.20199609 181.875 186.9375 C182.85710449 187.51105225 183.83920898 188.08460449 184.85107422 188.67553711 C190.08732884 191.72994796 195.33116736 194.77051139 200.5859375 197.79296875 C202.23807251 198.74345093 202.23807251 198.74345093 203.92358398 199.71313477 C206.12263789 200.97704604 208.32265514 202.23928286 210.52368164 203.49975586 C215.70148397 206.47525633 220.83950989 209.49325489 225.91015625 212.6484375 C226.82571289 213.21481934 227.74126953 213.78120117 228.68457031 214.36474609 C230.388618 215.42510576 232.08515468 216.49767059 233.77246094 217.58447266 C234.52430664 218.05159668 235.27615234 218.5187207 236.05078125 219 C236.69700439 219.4125 237.34322754 219.825 238.0090332 220.25 C240.7576352 221.28540225 242.2099283 220.87346369 245 220 C246.93527142 219.04545333 248.8329214 218.01290909 250.69921875 216.9296875 C251.81458008 216.28708984 252.92994141 215.64449219 254.07910156 214.98242188 C255.28197743 214.28007872 256.48477516 213.57760175 257.6875 212.875 C258.92507628 212.15884909 260.16303733 211.4433627 261.40136719 210.72851562 C263.97010106 209.24425905 266.53649445 207.75607085 269.10107422 206.26464844 C272.93816169 204.03399855 276.78248866 201.81607632 280.62890625 199.6015625 C286.75587348 196.07335632 292.87921144 192.53891747 299 189 C297.68596821 185.05790462 296.21143347 184.69942468 292.62109375 182.69921875 C291.48446289 182.05903809 290.34783203 181.41885742 289.17675781 180.75927734 C288.5678772 180.42192566 287.95899658 180.08457397 287.33166504 179.73699951 C284.7659473 178.31541298 282.21153109 176.87404768 279.65609741 175.43408203 C278.34553236 174.69601417 277.03434833 173.9590444 275.7225647 173.22314453 C269.69311544 169.83940315 263.71516471 166.37077114 257.75 162.875 C256.77587158 162.30539551 255.80174316 161.73579102 254.7980957 161.14892578 C252.84069762 160.00423147 250.88358283 158.85905259 248.92675781 157.71337891 C243.99491931 154.82618816 239.0603982 151.94360074 234.125 149.0625 C233.13765869 148.4859668 232.15031738 147.90943359 231.13305664 147.31542969 C223.83359787 143.05775721 216.51283646 138.83794891 209.1875 134.625 C200.29102939 129.50713788 191.44353286 124.31342492 182.625 119.0625 C172.23961775 112.88090391 161.78238963 106.84146782 151.27880859 100.86401367 C140.78334836 94.88975209 130.34852473 88.81507116 119.92675781 82.71337891 C114.99491931 79.82618816 110.0603982 76.94360074 105.125 74.0625 C103.64398804 73.1977002 103.64398804 73.1977002 102.13305664 72.31542969 C94.83359787 68.05775721 87.51283646 63.83794891 80.1875 59.625 C71.29103215 54.50713946 62.4434306 49.31359394 53.625 44.0625 C43.04921107 37.76509491 32.39674704 31.618111 21.69213867 25.54321289 C14.23362924 21.3034767 6.86354411 16.9554955 -0.41015625 12.40625 C-4.77504357 10.03617544 -6.86134411 11.27444665 -10.91796875 13.5703125 Z M-80.7265625 53.53515625 C-81.66395264 54.09033936 -82.60134277 54.64552246 -83.56713867 55.2175293 C-84.57623291 55.82636963 -85.58532715 56.43520996 -86.625 57.0625 C-88.77946132 58.34196555 -90.934428 59.62058045 -93.08984375 60.8984375 C-94.77762939 61.90342285 -94.77762939 61.90342285 -96.49951172 62.92871094 C-102.36099573 66.40762339 -108.27776967 69.79147301 -114.1875 73.1875 C-116.34794438 74.43048892 -118.50811978 75.67394551 -120.66796875 76.91796875 C-121.57828857 77.44156982 -122.4886084 77.9651709 -123.42651367 78.50463867 C-125.9654359 79.97991603 -128.48582646 81.48299726 -131 83 C-129.78416075 86.64751775 -128.99712003 86.85255743 -125.71484375 88.64453125 C-124.80420166 89.14911865 -123.89355957 89.65370605 -122.95532227 90.17358398 C-121.95944092 90.71442627 -120.96355957 91.25526855 -119.9375 91.8125 C-117.8194589 92.9854391 -115.70229773 94.15996828 -113.5859375 95.3359375 C-112.49249023 95.94147461 -111.39904297 96.54701172 -110.27246094 97.17089844 C-105.16339267 100.02654895 -100.11167377 102.9775964 -95.0625 105.9375 C-94.06903564 106.51870605 -93.07557129 107.09991211 -92.05200195 107.69873047 C-90.03678581 108.87802799 -88.02189269 110.05787767 -86.00732422 111.23828125 C-81.04930249 114.14273691 -76.08761895 117.04090775 -71.125 119.9375 C-70.14023682 120.51234131 -69.15547363 121.08718262 -68.14086914 121.67944336 C-60.7736093 125.97566623 -53.38974972 130.24259885 -46 134.5 C-32.64990822 142.19128838 -19.34266958 149.9548291 -6.04101562 157.72949219 C-3.06934495 159.46606836 -0.09730626 161.20201192 2.875 162.9375 C3.86218018 163.51395264 4.84936035 164.09040527 5.86645508 164.68432617 C13.16611349 168.94201655 20.48700606 173.16196052 27.8125 177.375 C36.70897084 182.49286226 45.55646055 187.68658575 54.375 192.9375 C64.86185149 199.17932886 75.40970703 205.3019379 86.03100586 211.31176758 C91.33282607 214.31564344 96.60771971 217.34347314 101.80859375 220.51953125 C102.68386719 221.04828857 103.55914062 221.5770459 104.4609375 222.12182617 C106.06011034 223.09245977 107.65073798 224.07738061 109.23046875 225.0793457 C109.9265625 225.49917725 110.62265625 225.91900879 111.33984375 226.3515625 C111.93144287 226.72104004 112.52304199 227.09051758 113.13256836 227.47119141 C116.63022439 228.4616376 119.41752258 226.30278512 122.48168945 224.70996094 C123.35011475 224.22301758 124.21854004 223.73607422 125.11328125 223.234375 C126.10295898 222.68056152 127.09263672 222.12674805 128.11230469 221.55615234 C129.16836914 220.96012207 130.22443359 220.3640918 131.3125 219.75 C132.40594727 219.13463379 133.49939453 218.51926758 134.62597656 217.88525391 C142.52609095 213.42602291 150.40078862 208.92326573 158.25 204.375 C159.25458252 203.79588867 160.25916504 203.21677734 161.29418945 202.62011719 C162.23351318 202.07258789 163.17283691 201.52505859 164.140625 200.9609375 C164.96079102 200.48446777 165.78095703 200.00799805 166.62597656 199.51708984 C169.24117795 197.84587826 171.60905658 195.9757974 174 194 C173.29319092 193.59910156 172.58638184 193.19820312 171.8581543 192.78515625 C158.67281896 185.29857653 145.5245748 177.76379677 132.5 170 C123.32244782 164.53101018 114.09750179 159.15850631 104.8125 153.875 C93.1382599 147.23153897 81.51837049 140.49998753 69.92675781 133.71337891 C64.9949194 130.82618822 60.06044184 127.94352583 55.125 125.0625 C54.13983398 124.48741699 53.15466797 123.91233398 52.13964844 123.31982422 C44.7727766 119.02387801 37.38933859 114.7571643 30 110.5 C16.64990822 102.80871162 3.34266958 95.0451709 -9.95898438 87.27050781 C-12.93065505 85.53393164 -15.90269445 83.79798928 -18.875 82.0625 C-19.853479 81.49112305 -20.83195801 80.91974609 -21.84008789 80.33105469 C-30.49758839 75.2813759 -39.18084497 70.27679224 -47.87304688 65.28710938 C-52.55739954 62.59196321 -57.22802896 59.88536153 -61.83203125 57.0546875 C-62.5293335 56.62647705 -63.22663574 56.1982666 -63.94506836 55.75708008 C-65.71629969 54.66073158 -67.47965216 53.55168083 -69.2421875 52.44140625 C-73.87623627 50.01936093 -76.52120246 51.0138431 -80.7265625 53.53515625 Z M-138 94 C-139.4737209 100.39976946 -140.60862637 106.76128229 -138 113 C-132.44394619 118.7806661 -124.50912117 121.92141404 -117.37792969 125.33496094 C-112.12631466 127.92357141 -107.14639626 130.93329958 -102.125 133.9375 C-100.12924441 135.10567137 -98.1318282 136.27101001 -96.1328125 137.43359375 C-94.62895996 138.30927002 -94.62895996 138.30927002 -93.09472656 139.20263672 C-87.73704301 142.314286 -82.36851072 145.40708013 -77 148.5 C-63.64990822 156.19128838 -50.34266958 163.9548291 -37.04101562 171.72949219 C-34.06934495 173.46606836 -31.09730626 175.20201192 -28.125 176.9375 C-27.13781982 177.51395264 -26.15063965 178.09040527 -25.13354492 178.68432617 C-17.83388651 182.94201655 -10.51299394 187.16196052 -3.1875 191.375 C5.70897061 196.49286212 14.55646714 201.68657508 23.375 206.9375 C32.59529535 212.42561208 41.86245459 217.81757662 51.1875 223.125 C59.97983329 228.1300279 68.75966548 233.15447764 77.5 238.25 C78.4691333 238.81493164 79.4382666 239.37986328 80.43676758 239.96191406 C85.26764881 242.78739265 90.07897299 245.64181677 94.8671875 248.5390625 C96.2603418 249.38162598 96.2603418 249.38162598 97.68164062 250.24121094 C99.43561828 251.305172 101.18706217 252.37332495 102.93554688 253.44628906 C103.70705078 253.91518555 104.47855469 254.38408203 105.2734375 254.8671875 C105.94810059 255.28081543 106.62276367 255.69444336 107.31787109 256.12060547 C108.9790465 257.15443184 108.9790465 257.15443184 111 257 C112.23559433 250.16258192 113.03065039 243.46627401 110 237 C103.81816619 230.87001119 95.34512222 227.46214937 87.56689453 223.75146484 C82.16375014 221.09833973 77.03731731 218.02612832 71.875 214.9375 C69.89189603 213.77647211 67.90751923 212.61761555 65.921875 211.4609375 C62.96149279 209.73095805 60.00125418 208.00073305 57.04101562 206.27050781 C54.06934495 204.53393164 51.09730626 202.79798808 48.125 201.0625 C47.13781982 200.48604736 46.15063965 199.90959473 45.13354492 199.31567383 C37.83388651 195.05798345 30.51299394 190.83803948 23.1875 186.625 C14.29102939 181.50713788 5.44353286 176.31342492 -3.375 171.0625 C-13.76038225 164.88090391 -24.21761037 158.84146782 -34.72119141 152.86401367 C-45.21665164 146.88975209 -55.65147527 140.81507116 -66.07324219 134.71337891 C-71.00508063 131.8261882 -75.9395733 128.9435518 -80.875 126.0625 C-81.85509033 125.49031738 -82.83518066 124.91813477 -83.8449707 124.32861328 C-92.45490926 119.30737741 -101.08805996 114.32678136 -109.72802734 109.35742188 C-114.61741502 106.54220703 -119.49840631 103.71593835 -124.34765625 100.83203125 C-125.14308838 100.35926758 -125.93852051 99.88650391 -126.75805664 99.39941406 C-128.20885522 98.53427489 -129.65742137 97.66537628 -131.10327148 96.79199219 C-134.32608094 94.69564276 -134.32608094 94.69564276 -138 94 Z M-138 126 C-138.99386581 132.32696276 -139.91521054 138.76788083 -138 145 C-134.52567889 149.4881611 -128.7341292 151.47109001 -123.69091797 153.72753906 C-118.79243112 156.04389848 -114.20939399 158.90964772 -109.5625 161.6875 C-107.50299358 162.89221925 -105.44176055 164.09399113 -103.37890625 165.29296875 C-102.33234863 165.90188965 -101.28579102 166.51081055 -100.20751953 167.13818359 C-93.71951919 170.90416705 -87.21770491 174.64619991 -80.7175293 178.39111328 C-68.46337702 185.45487367 -56.2523699 192.59209667 -44.04101562 199.72949219 C-32.71147109 206.35021812 -21.37023397 212.94935227 -10 219.5 C3.35009178 227.19128838 16.65733042 234.9548291 29.95898438 242.72949219 C41.28852891 249.35021812 52.62976603 255.94935227 64 262.5 C77.35009178 270.19128838 90.65733042 277.9548291 103.95898438 285.72949219 C106.93065505 287.46606836 109.90269445 289.20201072 112.875 290.9375 C114.34271851 291.79456543 114.34271851 291.79456543 115.84008789 292.66894531 C124.49596636 297.71767802 133.18019272 302.71666908 141.86645508 307.71289062 C148.59133753 311.58826403 155.28235725 315.51182686 161.90258789 319.5637207 C164.28579785 321.27541027 164.28579785 321.27541027 167 322 C167 315.4 167 308.8 167 302 C165.2571875 301.00742187 163.514375 300.01484375 161.71875 298.9921875 C149.09020782 291.7923294 136.48279169 284.56087222 123.93676758 277.21777344 C116.70564345 272.98742549 109.45037531 268.80055478 102.1875 264.625 C93.29094423 259.50728883 84.44353036 254.31342343 75.625 249.0625 C65.23961775 242.88090391 54.78238963 236.84146782 44.27880859 230.86401367 C33.78334836 224.88975209 23.34852473 218.81507116 12.92675781 212.71337891 C7.99491931 209.82618816 3.0603982 206.94360074 -1.875 204.0625 C-2.86234131 203.4859668 -3.84968262 202.90943359 -4.86694336 202.31542969 C-12.16640213 198.05775721 -19.48716354 193.83794891 -26.8125 189.625 C-35.70897061 184.50713788 -44.55646714 179.31342492 -53.375 174.0625 C-63.75530497 167.88392601 -74.20731338 161.84724702 -84.70581055 155.87280273 C-92.39086058 151.49835772 -100.05128719 147.08419154 -107.6875 142.625 C-109.15280151 141.76986816 -109.15280151 141.76986816 -110.64770508 140.89746094 C-115.17525467 138.25090555 -119.69441733 135.59135669 -124.19921875 132.90625 C-124.99432861 132.43364746 -125.78943848 131.96104492 -126.60864258 131.47412109 C-128.075694 130.60081224 -129.5405328 129.72377116 -131.00268555 128.84228516 C-134.27367233 126.71459441 -134.27367233 126.71459441 -138 126 Z M300.12890625 199.75390625 C299.0915332 200.35420654 298.05416016 200.95450684 296.98535156 201.57299805 C295.85581055 202.22953369 294.72626953 202.88606934 293.5625 203.5625 C292.39692733 204.23823971 291.23123567 204.91377421 290.06542969 205.58911133 C288.24577894 206.64324709 286.42622931 207.69755346 284.60714722 208.75267029 C280.31055462 211.24415164 276.00689524 213.72305188 271.69921875 216.1953125 C270.52202846 216.87161889 269.34486338 217.54796917 268.16772461 218.22436523 C265.93104769 219.50910837 263.69360946 220.79252723 261.45532227 222.07446289 C259.46702636 223.21827006 257.48532555 224.37366271 255.51220703 225.54345703 C253 227 253 227 250.95263672 227.96826172 C249.04452473 228.84107417 249.04452473 228.84107417 247 231 C246.29220562 234.28470446 246.43261801 237.41044592 246.625 240.75 C246.65207031 241.63816406 246.67914063 242.52632812 246.70703125 243.44140625 C246.77763376 245.63008395 246.87614473 247.81379568 247 250 C250.78518732 248.5839494 254.19749321 246.84578935 257.69921875 244.83203125 C259.37226074 243.87296875 259.37226074 243.87296875 261.07910156 242.89453125 C262.28194857 242.20060322 263.48474697 241.50659091 264.6875 240.8125 C265.92530356 240.10129759 267.16326139 239.39036362 268.40136719 238.6796875 C271.62028636 236.83077913 274.83678408 234.97770365 278.0524292 233.12310791 C279.98658899 232.00773374 281.92119876 230.89314424 283.85595703 229.77880859 C291.2407653 225.52518512 298.62182583 221.26512394 306 217 C306 210.4 306 203.8 306 197 C303.93260459 197 301.84166342 198.76014354 300.12890625 199.75390625 Z M190 204 C190 210.6 190 217.2 190 224 C192.10761719 225.18142578 192.10761719 225.18142578 194.2578125 226.38671875 C205.65038093 232.7912593 216.97793988 239.27968051 228.16650391 246.03588867 C229.03581543 246.55642822 229.90512695 247.07696777 230.80078125 247.61328125 C231.56559814 248.07516846 232.33041504 248.53705566 233.1184082 249.01293945 C234.94105321 250.1548493 234.94105321 250.1548493 237 250 C238.33302065 243.62439113 239.41352993 237.2339037 237 231 C232.07017699 225.57583661 224.80018359 222.73455079 218.29150391 219.6328125 C212.57688358 216.79796747 207.15853507 213.46094201 201.6875 210.1875 C199.65231293 208.98910859 197.61476503 207.79471189 195.57421875 206.60546875 C194.71401123 206.10168701 193.85380371 205.59790527 192.9675293 205.07885742 C191.22784514 203.91986753 191.22784514 203.91986753 190 204 Z M171.4375 208.125 C170.64682129 208.56513428 169.85614258 209.00526855 169.04150391 209.45874023 C161.23598883 213.82709517 153.51746178 218.34183233 145.80053711 222.86425781 C137.58606792 227.67408492 129.31353579 232.36360504 121 237 C121 243.6 121 250.2 121 257 C128.98319195 253.09094811 136.72602471 248.9614752 144.375 244.4375 C145.39215088 243.83977783 146.40930176 243.24205566 147.45727539 242.6262207 C149.57268041 241.38218168 151.68701491 240.1363206 153.80029297 238.88867188 C157.00096767 236.99942882 160.20520119 235.11634585 163.41015625 233.234375 C165.41945938 232.05240379 167.42858126 230.87012442 169.4375 229.6875 C170.3847998 229.13054443 171.33209961 228.57358887 172.30810547 227.99975586 C173.1745166 227.48807861 174.04092773 226.97640137 174.93359375 226.44921875 C175.69728271 225.99893311 176.46097168 225.54864746 177.24780273 225.0847168 C178.95754322 224.11880012 178.95754322 224.11880012 180 223 C180.08651611 221.58429877 180.10704904 220.164405 180.09765625 218.74609375 C180.09443359 217.89208984 180.09121094 217.03808594 180.08789062 216.15820312 C180.07951172 215.26037109 180.07113281 214.36253906 180.0625 213.4375 C180.05798828 212.53580078 180.05347656 211.63410156 180.04882812 210.70507812 C180.03700225 208.46998686 180.0205222 206.23502563 180 204 C177.26628841 204 173.85048573 206.77780527 171.4375 208.125 Z M300.56640625 231.53515625 C299.14618164 232.36768921 299.14618164 232.36768921 297.69726562 233.21704102 C296.66279297 233.82604248 295.62832031 234.43504395 294.5625 235.0625 C292.37666634 236.34437133 290.19045475 237.62559838 288.00390625 238.90625 C287.43564117 239.23923599 286.8673761 239.57222198 286.28189087 239.91529846 C282.16510858 242.32514242 278.03720636 244.71507693 273.90234375 247.09375 C273.32263321 247.42733017 272.74292267 247.76091034 272.14564514 248.104599 C269.34244891 249.71697346 266.53810535 251.32732236 263.73266602 252.93579102 C261.71815065 254.09410965 259.7097988 255.26324102 257.70898438 256.44506836 C255 258 255 258 252.49414062 259.19750977 C250.30730079 260.30709454 248.67928985 261.21163863 247 263 C246.05760304 266.32952749 246.2343663 269.38735772 246.5 272.8125 C246.53609375 273.69615234 246.5721875 274.57980469 246.609375 275.49023438 C246.70329047 277.66202972 246.84678493 279.83158115 247 282 C250.78518732 280.5839494 254.19749321 278.84578935 257.69921875 276.83203125 C259.37226074 275.87296875 259.37226074 275.87296875 261.07910156 274.89453125 C262.28194857 274.20060322 263.48474697 273.50659091 264.6875 272.8125 C265.92530356 272.10129759 267.16326139 271.39036362 268.40136719 270.6796875 C271.62028636 268.83077913 274.83678408 266.97770365 278.0524292 265.12310791 C279.98658899 264.00773374 281.92119876 262.89314424 283.85595703 261.77880859 C291.2407653 257.52518512 298.62182583 253.26512394 306 249 C306 242.4 306 235.8 306 229 C304.03252675 229 302.20289779 230.57246771 300.56640625 231.53515625 Z M178.5234375 236.0078125 C177.38849854 236.6584668 176.25355957 237.30912109 175.08422852 237.97949219 C173.84768945 238.69443742 172.61128288 239.40961187 171.375 240.125 C170.1146444 240.85083335 168.85414497 241.57641699 167.59350586 242.30175781 C164.35835674 244.16491735 161.12665952 246.03398858 157.89556885 247.9041748 C156.06761662 248.96091094 154.23805426 250.01478783 152.40771484 251.06738281 C149.12325366 252.95691897 145.84223814 254.85228024 142.5625 256.75 C141.07339111 257.60682373 141.07339111 257.60682373 139.55419922 258.48095703 C138.63010254 259.01833496 137.70600586 259.55571289 136.75390625 260.109375 C135.95283447 260.57311523 135.1517627 261.03685547 134.32641602 261.51464844 C131.72736677 263.17406869 129.37609724 265.03760649 127 267 C128.76949892 268.04953368 130.53903946 269.09899718 132.30859375 270.1484375 C133.44087402 270.82011963 134.5731543 271.49180176 135.73974609 272.18383789 C138.21118446 273.64919197 140.6842846 275.11168591 143.15869141 276.57202148 C148.59760675 279.7838962 154.03054542 283.00059309 159.40234375 286.32421875 C160.17199463 286.7948877 160.94164551 287.26555664 161.73461914 287.75048828 C163.12524274 288.60291342 164.50904433 289.46660601 165.88452148 290.34326172 C169.36743499 292.49014613 169.36743499 292.49014613 173.34301758 292.78955078 C176.46117603 291.8629566 178.95362669 290.52601692 181.76953125 288.89453125 C183.45780029 287.92302124 183.45780029 287.92302124 185.18017578 286.93188477 C186.39104667 286.22558799 187.6018193 285.51912274 188.8125 284.8125 C190.05679141 284.09308457 191.30142437 283.37425959 192.54638672 282.65600586 C196.36987603 280.44694635 200.18529544 278.22418348 204 276 C205.20908601 275.29611894 206.41823183 274.59234062 207.62744141 273.88867188 C213.76237792 270.31763384 219.89234886 266.738275 226.01416016 263.14477539 C227.32127574 262.39126359 228.6505316 261.6747342 230 261 C228.65903112 256.97709336 226.97383496 256.56724361 223.3046875 254.5234375 C222.72444824 254.19642853 222.14420898 253.86941956 221.54638672 253.53250122 C219.6604744 252.47164413 217.76787724 251.42337012 215.875 250.375 C213.94713743 249.2949629 212.02107225 248.21177479 210.09524536 247.12811279 C208.82600339 246.41395226 207.55620915 245.70077235 206.28585815 244.98858643 C200.26279253 241.60566679 194.36519459 238.04127517 188.4921875 234.40625 C184.20957377 231.98972814 182.58537379 233.66994682 178.5234375 236.0078125 Z M299.6171875 264.3515625 C298.70864014 264.8664624 297.80009277 265.3813623 296.86401367 265.91186523 C295.87763916 266.47719971 294.89126465 267.04253418 293.875 267.625 C292.85833252 268.20386963 291.84166504 268.78273926 290.79418945 269.37915039 C280.38701752 275.31938979 269.97402751 281.26843762 259.70214844 287.44042969 C257 289 257 289 254.10253906 290.39550781 C249.06845192 292.77019852 249.06845192 292.77019852 246.21850586 297.25073242 C246.01380843 299.86517209 246.11961292 302.26612279 246.375 304.875 C246.42011719 305.75414062 246.46523438 306.63328125 246.51171875 307.5390625 C246.62892553 309.69566722 246.80830327 311.84873672 247 314 C250.54434427 312.65544302 253.80799193 311.08771656 257.11328125 309.234375 C258.10295898 308.68048096 259.09263672 308.12658691 260.11230469 307.5559082 C261.16836914 306.9599585 262.22443359 306.36400879 263.3125 305.75 C264.40594727 305.13535889 265.49939453 304.52071777 266.62597656 303.88745117 C278.15680362 297.38463943 289.60456623 290.73718107 301 284 C301.91515381 283.53770996 302.83030762 283.07541992 303.77319336 282.59912109 C306.17245575 281.23082009 306.17245575 281.23082009 306.56762695 278.9152832 C306.54144287 278.13499756 306.51525879 277.35471191 306.48828125 276.55078125 C306.47216797 275.70322266 306.45605469 274.85566406 306.43945312 273.98242188 C306.39755859 273.10134766 306.35566406 272.22027344 306.3125 271.3125 C306.27866211 269.97348633 306.27866211 269.97348633 306.24414062 268.60742188 C306.18520574 266.40325728 306.10300818 264.20247328 306 262 C303.3136775 262 301.95361763 263.02176826 299.6171875 264.3515625 Z M230.62109375 272.0078125 C229.4830127 272.6584668 228.34493164 273.30912109 227.17236328 273.97949219 C225.92732137 274.69450915 224.68236896 275.40968196 223.4375 276.125 C222.17174185 276.85063758 220.90595382 277.57622306 219.64013672 278.30175781 C211.28765382 283.09342448 202.94901507 287.90904645 194.625 292.75 C193.14858032 293.60682373 193.14858032 293.60682373 191.64233398 294.48095703 C189.85164592 295.52582532 188.06766153 296.58231812 186.29248047 297.65332031 C184 299 184 299 182.02392578 299.93261719 C180.10532504 300.81309691 180.10532504 300.81309691 178 303 C177.28636698 306.28317281 177.43264695 309.4109484 177.625 312.75 C177.65207031 313.63816406 177.67914063 314.52632813 177.70703125 315.44140625 C177.77763376 317.63008395 177.87614473 319.81379568 178 322 C186.93145553 317.72535726 195.48838774 313.04201856 203.98828125 307.97265625 C209.67917333 304.58180838 215.41695308 301.27251245 221.15612793 297.96435547 C222.9186583 296.94836112 224.68054053 295.93124948 226.44238281 294.9140625 C234.74154788 290.12922606 234.74154788 290.12922606 237 289 C237 282.4 237 275.8 237 269 C234.822217 269 232.41593044 270.98011571 230.62109375 272.0078125 Z M231.63671875 303.5 C230.70005371 304.04994629 229.76338867 304.59989258 228.79833984 305.16650391 C227.7717627 305.77155762 226.74518555 306.37661133 225.6875 307 C218.60849004 311.15528262 211.51970662 315.2895967 204.38671875 319.3515625 C203.44432594 319.88834625 203.44432594 319.88834625 202.4828949 320.43597412 C199.41322753 322.18327176 196.3416461 323.92713238 193.26831055 325.66796875 C192.14593994 326.30605469 191.02356934 326.94414062 189.8671875 327.6015625 C188.87831543 328.16182129 187.88944336 328.72208008 186.87060547 329.29931641 C185.92330566 329.86054199 184.97600586 330.42176758 184 331 C182.35161133 331.95447021 182.35161133 331.95447021 180.66992188 332.92822266 C177.86367928 334.69713418 177.86367928 334.69713418 177.31884766 337.19824219 C177.35026855 337.97329102 177.38168945 338.74833984 177.4140625 339.546875 C177.43339844 340.39121094 177.45273437 341.23554688 177.47265625 342.10546875 C177.52292969 342.97816406 177.57320313 343.85085938 177.625 344.75 C177.65207031 345.63816406 177.67914063 346.52632813 177.70703125 347.44140625 C177.77763376 349.63008395 177.87614473 351.81379568 178 354 C181.78518732 352.5839494 185.19749321 350.84578935 188.69921875 348.83203125 C190.37226074 347.87296875 190.37226074 347.87296875 192.07910156 346.89453125 C193.28194857 346.20060322 194.48474697 345.50659091 195.6875 344.8125 C196.92530356 344.10129759 198.16326139 343.39036362 199.40136719 342.6796875 C202.62028636 340.83077913 205.83678408 338.97770365 209.0524292 337.12310791 C210.98658899 336.00773374 212.92119876 334.89314424 214.85595703 333.77880859 C222.2407653 329.52518512 229.62182583 325.26512394 237 321 C237 314.4 237 307.8 237 301 C235.04926567 301 233.26018305 302.54275593 231.63671875 303.5 Z " fill="#000000" transform="translate(172,72)"/>
<path d="M0 0 C3.375 1.6875 3.375 1.6875 6 4 C6.5625 7.625 6.5625 7.625 6 11 C3 13 3 13 0.25 12.9375 C-3.769815 11.77793798 -7.0550192 10.00988396 -10 7 C-10.94572066 4.42526312 -11.14913452 3.43497569 -10.25 0.8125 C-7.36571548 -3.36971255 -3.98836995 -1.64226998 0 0 Z " fill="#000000" transform="translate(73,271)"/>
</svg>
