<?xml version="1.0" standalone="no"?>
<!DOCTYPE svg PUBLIC "-//W3C//DTD SVG 20010904//EN"
 "http://www.w3.org/TR/2001/REC-SVG-20010904/DTD/svg10.dtd">
<svg version="1.0" xmlns="http://www.w3.org/2000/svg"
 width="300.000000pt" height="300.000000pt" viewBox="0 0 300.000000 300.000000"
 preserveAspectRatio="xMidYMid meet">
<metadata>
Created by potrace 1.10, written by Peter Selinger 2001-2011
</metadata>
<g transform="translate(0.000000,300.000000) scale(0.100000,-0.100000)"
fill="#000000" stroke="none">
<path d="M2447 2989 c-72 -17 -123 -52 -240 -167 l-117 -116 -58 56 c-102 101
-122 98 -259 -35 l-103 -100 -46 42 c-25 24 -71 55 -102 69 l-57 27 -605 0
-605 0 -56 -26 c-76 -36 -133 -90 -166 -157 l-28 -57 0 -1140 0 -1140 26 -56
c33 -71 87 -125 158 -158 l56 -26 1010 0 c973 0 1012 1 1060 19 65 26 147 103
176 169 l24 52 0 740 c0 739 0 740 -22 787 -12 26 -43 70 -69 98 l-47 51 108
109 c105 107 108 111 102 147 -5 27 -22 52 -67 98 l-60 61 68 66 67 67 178 3
179 3 24 28 c24 28 24 31 24 233 l0 206 -29 29 -29 29 -229 -1 c-125 -1 -245
-5 -266 -10z m373 -254 l0 -85 -135 0 c-99 0 -143 -4 -163 -14 -15 -8 -63 -51
-107 -95 l-79 -81 -58 57 c-32 32 -58 62 -58 69 0 18 197 204 232 219 24 10
79 14 201 15 l167 0 0 -85z m-670 -340 l225 -225 -63 -62 -62 -63 -227 227
-228 228 60 60 c33 33 62 60 65 60 3 0 106 -101 230 -225z m-703 185 c32 -12
856 -830 879 -872 12 -23 14 -138 14 -730 0 -672 -1 -704 -19 -732 -10 -15
-32 -37 -47 -47 -28 -18 -66 -19 -1013 -19 -962 0 -984 0 -1016 20 -71 44 -66
-40 -63 1197 l3 1111 25 27 c50 55 41 54 647 55 367 0 571 -4 590 -10z"/>
<path d="M504 2386 c-28 -13 -67 -43 -87 -67 -66 -76 -68 -95 -65 -559 l3
-412 28 -24 c26 -22 36 -24 147 -24 181 0 256 34 316 142 l29 53 3 338 c4 405
1 422 -81 502 -81 79 -192 98 -293 51z m165 -172 l31 -26 0 -329 0 -330 -25
-24 c-20 -21 -34 -25 -85 -25 l-60 0 0 354 0 354 31 26 c17 14 41 26 54 26 13
0 37 -12 54 -26z"/>
<path d="M1175 1446 c-16 -8 -44 -29 -62 -47 -44 -48 -143 -228 -143 -262 0
-42 40 -77 88 -77 47 0 63 16 126 127 26 44 53 87 61 93 21 18 36 3 91 -93 63
-111 79 -127 126 -127 47 0 88 35 88 76 0 35 -109 230 -152 271 -18 17 -46 37
-61 42 -39 15 -126 13 -162 -3z"/>
<path d="M812 868 c-35 -18 -154 -233 -160 -291 -6 -63 19 -126 68 -171 51
-46 92 -56 233 -56 157 0 187 15 187 93 -1 70 -37 87 -188 87 -91 0 -121 3
-125 14 -3 7 21 60 54 117 67 119 72 148 30 190 -31 30 -60 35 -99 17z"/>
<path d="M1609 851 c-18 -18 -29 -40 -29 -57 0 -15 25 -72 56 -126 30 -54 54
-106 52 -116 -3 -15 -18 -17 -113 -19 -61 -2 -120 -5 -132 -8 -34 -8 -63 -45
-63 -81 0 -79 29 -94 187 -94 141 0 182 10 233 56 49 45 74 108 68 171 -6 62
-125 274 -163 291 -41 19 -64 14 -96 -17z"/>
</g>
</svg>
