<?xml version="1.0" encoding="UTF-8"?>
<svg version="1.1" xmlns="http://www.w3.org/2000/svg" width="512" height="512">
<path d="M0 0 C1.185417 -0.00668677 1.185417 -0.00668677 2.39478183 -0.01350862 C3.68815081 -0.01323207 3.68815081 -0.01323207 5.00764847 -0.01294994 C5.92830447 -0.01662663 6.84896048 -0.02030332 7.79751515 -0.02409142 C10.8896396 -0.03512489 13.98173043 -0.03897152 17.07387161 -0.04278088 C19.28805523 -0.04904572 21.5022378 -0.05569253 23.71641922 -0.0626936 C30.99344018 -0.08373161 38.27046134 -0.09409483 45.54750443 -0.10406017 C48.05225765 -0.10810764 50.55701076 -0.11222456 53.06176376 -0.11641026 C63.47946597 -0.13327756 73.89716662 -0.14791288 84.31488037 -0.155159 C87.01677069 -0.1570688 89.71866101 -0.15898915 92.4205513 -0.16094494 C93.09206975 -0.16142868 93.7635882 -0.16191242 94.45545569 -0.16241082 C105.33301356 -0.17071074 116.21046145 -0.1960486 127.0879713 -0.22852562 C138.26169483 -0.26161449 149.43537858 -0.2792767 160.60915494 -0.28280324 C166.88043389 -0.28515501 173.1515389 -0.2941325 179.42277145 -0.31926441 C185.32267098 -0.34252651 191.22228179 -0.34678568 197.12221527 -0.33650303 C199.28614512 -0.33600713 201.45008909 -0.34234339 203.61397552 -0.35605907 C206.57155491 -0.37375491 209.52809556 -0.36668281 212.48567581 -0.35352612 C213.33899892 -0.36449536 214.19232202 -0.37546461 215.0715034 -0.38676625 C221.88425969 -0.31375655 227.09117008 1.58464259 232.24281693 6.09906483 C232.78164505 6.75004139 233.32047318 7.40101795 233.87562943 8.07172108 C234.4299263 8.72011951 234.98422318 9.36851795 235.55531693 10.03656483 C238.94327433 14.95368139 239.31934197 19.55442956 239.33656693 25.39984608 C239.34322372 26.19267994 239.34988052 26.9855138 239.35673904 27.80237293 C239.36683766 29.47660482 239.37155693 31.15087673 239.37123489 32.82513905 C239.37559204 35.36245119 239.41189418 37.89799936 239.44984818 40.43500233 C239.57196898 56.87546564 234.81718042 64.24302837 223.39341068 75.88124752 C221.61554587 77.67102291 219.83501929 79.4581568 218.05234146 81.24313831 C217.05645117 82.24376974 216.0607669 83.24460626 215.06526917 84.24562824 C212.34730854 86.97738586 209.62628335 89.70607231 206.90467513 92.43419528 C204.56634574 94.77893024 202.22985121 97.12548939 199.89336763 99.47206344 C192.20371011 107.19490642 184.50826978 114.91197307 176.8112016 122.62742931 C174.80622575 124.63720697 172.80134034 126.6470748 170.79647422 128.65696192 C158.33033285 141.15406412 145.86204291 153.64902016 133.38881016 166.13904476 C130.50523654 169.02656741 127.62168996 171.91411707 124.73817825 174.80170155 C124.02155571 175.51933245 123.30493318 176.23696335 122.5665948 176.97634064 C110.95158573 188.60836615 99.34868608 200.25239483 87.75060568 211.90129711 C75.82860833 223.87510344 63.89527832 235.83752243 51.95097417 247.78907764 C45.25059729 254.49411066 38.55532418 261.20407294 31.8728466 267.9269495 C26.18410601 273.65004165 20.48522591 279.3627882 14.7729641 285.06240787 C11.86153654 287.96802215 8.95511233 290.8782041 6.06173706 293.80180454 C3.40780775 296.48322957 0.7401358 299.15016948 -1.93868718 301.80671833 C-3.35220605 303.21552595 -4.75104828 304.63901338 -6.14913577 306.06313622 C-13.70050199 313.50451819 -22.97968899 320.23948819 -33.99874115 320.26844215 C-34.78901915 320.2729 -35.57929716 320.27735784 -36.39352298 320.28195077 C-37.68689196 320.28167423 -37.68689196 320.28167423 -39.00638962 320.2813921 C-39.92704562 320.28506879 -40.84770163 320.28874547 -41.7962563 320.29253358 C-44.88838075 320.30356705 -47.98047158 320.30741368 -51.07261276 320.31122303 C-53.28679638 320.31748787 -55.50097895 320.32413469 -57.71516037 320.33113575 C-64.99218133 320.35217377 -72.26920249 320.36253698 -79.54624557 320.37250233 C-82.0509988 320.37654979 -84.55575191 320.38066671 -87.06050491 320.38485241 C-97.47820712 320.40171972 -107.89590777 320.41635504 -118.31362152 320.42360115 C-121.01551184 320.42551096 -123.71740216 320.4274313 -126.41929245 320.42938709 C-127.0908109 320.42987083 -127.76232935 320.43035457 -128.45419684 320.43085297 C-139.33175471 320.43915289 -150.2092026 320.46449075 -161.08671245 320.49696777 C-172.26043598 320.53005664 -183.43411973 320.54771885 -194.60789609 320.55124539 C-200.87917504 320.55359716 -207.15028005 320.56257465 -213.4215126 320.58770657 C-219.32141213 320.61096867 -225.22102294 320.61522783 -231.12095642 320.60494518 C-233.28488627 320.60444928 -235.44883024 320.61078554 -237.61271667 320.62450123 C-240.57029606 320.64219707 -243.52683671 320.63512496 -246.48441696 320.62196827 C-247.76440162 320.63842214 -247.76440162 320.63842214 -249.07024455 320.65520841 C-255.88300084 320.5821987 -261.08991123 318.68379956 -266.24155807 314.16937733 C-266.7803862 313.51840076 -267.31921432 312.8674242 -267.87437057 312.19672108 C-268.42866745 311.54832264 -268.98296432 310.8999242 -269.55405807 310.23187733 C-272.94201548 305.31476077 -273.31808312 300.71401259 -273.33530807 294.86859608 C-273.34196487 294.07576221 -273.34862167 293.28292835 -273.35548019 292.46606922 C-273.36557881 290.79183733 -273.37029808 289.11756542 -273.36997604 287.44330311 C-273.37433319 284.90599097 -273.41063533 282.37044279 -273.44858932 279.83343983 C-273.54787348 266.46735229 -271.41439611 258.90042874 -261.99937057 249.13422108 C-261.06776481 248.1452178 -260.13682406 247.15558786 -259.20640182 246.16547108 C-256.55943329 243.36327124 -253.87564341 240.5996561 -251.17466354 237.84955311 C-250.05062035 236.69864558 -248.93380742 235.54063527 -247.82407761 234.3759203 C-246.20123695 232.67405601 -244.55660456 230.996242 -242.90562057 229.32172108 C-242.41686447 228.79997303 -241.92810837 228.27822498 -241.42454147 227.74066639 C-238.69202776 225.02360103 -237.1873714 224.15716017 -233.31772995 223.68500233 C-229.99937057 224.13422108 -229.99937057 224.13422108 -226.99937057 226.13422108 C-224.83447428 229.38156552 -224.54496714 231.03611288 -225.13950729 234.86078358 C-227.00042211 239.78095357 -231.29050025 243.12304385 -235.06187057 246.63422108 C-235.91587448 247.45664295 -236.76987839 248.27906483 -237.6497612 249.12640858 C-239.7513296 251.14579274 -241.86743663 253.14700292 -243.99937057 255.13422108 C-212.42068159 261.47725828 -180.75057824 265.47538513 -148.62437057 267.75922108 C-147.42681798 267.84688409 -146.22926538 267.93454711 -144.99542332 268.02486658 C-81.82990858 272.51998811 -31.54753896 264.7103829 16.65513992 223.22455311 C41.30869199 201.7240086 64.01405467 178.26783441 86.12562943 154.19672108 C86.67990077 153.59428707 87.23417211 152.99185307 87.80523956 152.37116349 C108.36666801 130.02059409 128.60973501 107.3868529 148.03987503 84.04253101 C148.48020506 83.51416859 148.9205351 82.98580618 149.37420847 82.44143277 C153.89558211 77.01441515 158.39066852 71.56778516 162.83579445 66.07801723 C164.24513532 64.35971649 165.65449978 62.6414351 167.06389236 60.92317677 C167.68501899 60.14011408 168.30614563 59.35705139 168.94609427 58.55025953 C173.20085518 53.39534715 173.20085518 53.39534715 177.26230049 52.06928635 C180.69845792 52.15076887 182.30554578 53.03804491 185.00062943 55.13422108 C187.00062943 58.13422108 187.00062943 58.13422108 187.11243916 61.29990959 C185.52001236 66.79173087 182.27845884 69.59220761 178.21167374 73.48320484 C177.38594173 74.29712981 176.56020973 75.11105478 175.70945555 75.94964415 C173.41910257 78.20171871 171.11592552 80.43967251 168.80687988 82.67254722 C166.31787052 85.08620346 163.84645308 87.51774377 161.37332535 89.94765186 C157.0854012 94.15687084 152.78800588 98.35621408 148.48532295 102.55034161 C141.67612447 109.19006534 134.90169639 115.86467024 128.13309097 122.54573536 C125.81451711 124.83356233 123.49579557 127.12123961 121.17708302 129.40892601 C120.59760331 129.98068952 120.0181236 130.55245303 119.42108391 131.14154271 C112.8259036 137.6483409 106.22552368 144.14984799 99.62147903 150.64764881 C99.01794035 151.24149903 98.41440167 151.83534926 97.79257394 152.44719494 C88.02777005 162.05304883 78.22981512 171.62449171 68.4218015 181.18619495 C58.33853589 191.01838062 48.30209646 200.89673163 38.30461603 210.81613261 C32.14479871 216.92456014 25.95062891 222.99326348 19.70599688 229.01497937 C15.42101843 233.15342977 11.18181863 237.33539585 6.9748184 241.55307823 C4.55105375 243.98028571 2.11275486 246.38434786 -0.38299561 248.73766422 C-13.1050202 260.73104273 -13.1050202 260.73104273 -17.2457518 277.1505571 C-17.11974257 281.86099738 -16.73221313 286.47959523 -15.99937057 291.13422108 C14.03215062 261.24002907 44.04786155 231.33004496 74.04244922 201.39879325 C77.58348964 197.86525709 81.12466073 194.33185193 84.66591263 190.79852772 C85.37091078 190.09510343 86.07590894 189.39167913 86.80227067 188.66693895 C98.21824844 177.27706998 109.64478047 165.897846 121.07524733 154.52251995 C132.80347513 142.85039869 144.52029034 131.16691234 156.22658652 119.47279495 C163.45053691 112.25707779 170.68324506 105.05037484 177.92740407 97.85494523 C182.89395363 92.92010814 187.84937564 87.97427612 192.79619602 83.01966275 C195.6507314 80.16128386 198.50991307 77.30799948 201.38241577 74.46766758 C204.01397566 71.86536569 206.63122043 69.24949711 209.23793193 66.62231194 C210.62744298 65.22907654 212.03172433 63.85061987 213.43653041 62.47280794 C219.2260021 56.59981191 222.29579618 51.66829887 223.3412056 43.46014881 C223.32549515 42.7531786 223.3097847 42.04620838 223.29359818 41.31781483 C223.28393021 40.53470936 223.27426224 39.75160389 223.2643013 38.94476795 C223.22659622 37.77010975 223.22659622 37.77010975 223.18812943 36.57172108 C223.16782669 35.34485584 223.16782669 35.34485584 223.1471138 34.09320545 C223.11226077 32.10658297 223.05847659 30.120307 223.00062943 28.13422108 C222.49725052 28.67949451 221.99387161 29.22476795 221.4752388 29.78656483 C219.1717885 32.25680942 216.83710349 34.69520583 214.50062943 37.13422108 C213.70914505 37.9927367 212.91766068 38.85125233 212.10219193 39.73578358 C205.36013107 46.69889561 205.36013107 46.69889561 200.56312943 46.79437733 C197.00062943 46.13422108 197.00062943 46.13422108 194.50062943 44.57172108 C192.3199128 41.02805655 192.2473122 39.24322414 193.00062943 35.13422108 C196.26933858 30.111061 201.04131807 26.08615244 205.25844193 21.87250233 C206.14934525 20.98216297 207.04024857 20.09182362 207.95814896 19.17450428 C208.96917679 18.16456409 208.96917679 18.16456409 210.00062943 17.13422108 C182.49746195 17.04077533 154.99431827 16.97024059 127.49102402 16.92697239 C114.72073433 16.90634813 101.95054329 16.87822995 89.18031693 16.83246326 C78.04965191 16.79259155 66.91905833 16.76678728 55.78832388 16.7578671 C49.89479446 16.75265297 44.00146943 16.74040034 38.10800552 16.71130085 C32.55945994 16.6841267 27.01120271 16.67578025 21.46259689 16.68179035 C19.42766884 16.68069102 17.39273102 16.67274922 15.35786057 16.65739918 C12.5752233 16.63744013 9.79366875 16.64230355 7.0110054 16.65320301 C6.20942709 16.64155164 5.40784879 16.62990028 4.58198023 16.61789584 C-5.61906565 16.72558701 -11.44043555 21.986153 -18.31725693 29.00473499 C-19.11544608 29.80303427 -19.91363522 30.60133355 -20.73601192 31.42382371 C-23.39924184 34.0921594 -26.04790129 36.774497 -28.69688034 39.45697498 C-30.60582684 41.3775064 -32.51785529 43.29495833 -34.42982101 45.21248341 C-38.54095726 49.33854554 -42.64497319 53.47157967 -46.74445915 57.60921574 C-52.67665765 63.59615657 -58.6223497 69.56955365 -64.57185518 75.53929059 C-74.23187183 85.23242137 -83.88474465 94.93262966 -93.531353 104.63910389 C-94.39656754 105.50967877 -94.39656754 105.50967877 -95.27926116 106.39784102 C-101.71733966 112.87603175 -108.15423935 119.3553927 -114.59043503 125.83545399 C-116.92616995 128.1870357 -119.26194607 130.53857647 -121.59775925 132.89008045 C-122.46236604 133.76050411 -122.46236604 133.76050411 -123.34443963 134.64851208 C-132.95555345 144.3237178 -142.57641439 153.98916992 -152.20468754 163.64729917 C-158.14008239 169.60198404 -164.06673813 175.56511715 -169.98239421 181.53941308 C-174.03467393 185.63067956 -178.09582534 189.71299488 -182.1640758 193.7883804 C-184.5107315 196.1397743 -186.85151744 198.49632569 -189.18439293 200.8614378 C-191.71436013 203.42516982 -194.25925421 205.97310035 -196.80846786 208.51767445 C-197.90779997 209.64294558 -197.90779997 209.64294558 -199.0293408 210.79094946 C-203.18421083 214.90061381 -206.15821568 217.23898406 -211.99937057 218.13422108 C-215.03405179 217.45984747 -216.41514399 216.85122643 -218.37437057 214.44672108 C-219.28085824 211.09271671 -219.14814382 208.37323205 -217.99937057 205.13422108 C-215.79780939 202.04593742 -213.14352355 199.46887049 -210.44301987 196.81596851 C-209.64208886 196.00567757 -208.84115786 195.19538662 -208.01595622 194.3605414 C-205.32492975 191.64555853 -202.61293288 188.95255479 -199.90049362 186.25897694 C-197.96619561 184.31985073 -196.03638827 182.37627682 -194.10631943 180.43294239 C-189.40204097 175.70197969 -184.68167813 170.98738774 -179.95535734 166.27845614 C-176.11149691 162.44815233 -172.27354056 158.61202462 -168.43971825 154.77167416 C-167.89379689 154.2248334 -167.34787553 153.67799264 -166.78541109 153.11458095 C-165.676302 152.00355345 -164.56720636 150.89251253 -163.45812402 149.78145833 C-153.05483117 139.36105282 -142.63322296 128.95912109 -132.20526759 118.56340409 C-123.27064818 109.65555396 -114.35182432 100.73214271 -105.44443893 91.79706287 C-95.0933984 81.41385427 -84.73261677 71.04052596 -74.3562873 60.68258482 C-73.24784445 59.57605317 -72.13941408 58.46950902 -71.03099632 57.36295223 C-70.48568602 56.81856759 -69.94037572 56.27418294 -69.37854087 55.71330179 C-65.54893318 51.88885979 -61.72630176 48.05753022 -57.90635872 44.22343731 C-53.24266307 39.54284669 -48.56829148 34.87323409 -43.88025524 30.2170183 C-41.49143893 27.84388722 -39.10935686 25.46493665 -36.73670959 23.07557774 C-34.15566588 20.47804164 -31.55668455 17.89983867 -28.95254135 15.32549 C-28.21776981 14.57733412 -27.48299826 13.82917825 -26.72596091 13.05835098 C-19.58200069 6.07116454 -10.29566166 0.02705316 0 0 Z M-256.99937057 272.13422108 C-258.92128233 275.9780446 -258.18417254 280.71890279 -258.18687057 284.94672108 C-258.19911667 285.94509998 -258.21136276 286.94347889 -258.22397995 287.9721117 C-258.22591354 288.93955311 -258.22784714 289.90699451 -258.22983932 290.90375233 C-258.23394821 291.78651844 -258.2380571 292.66928455 -258.2422905 293.57880116 C-257.81913107 298.03026816 -256.4616138 301.27302704 -252.99937057 304.13422108 C-250.02504491 304.42277904 -247.26136018 304.52566598 -244.28655624 304.49498463 C-242.93513905 304.49882954 -242.93513905 304.49882954 -241.55642051 304.50275213 C-238.52526123 304.5077095 -235.4945956 304.49116485 -232.4634819 304.47479725 C-230.29557939 304.4739514 -228.12767602 304.47442529 -225.95977402 304.47612476 C-220.0633707 304.47698778 -214.16714935 304.45931236 -208.27078843 304.43840289 C-202.1128355 304.41968717 -195.95487869 304.41788968 -189.7969017 304.41432667 C-178.13094162 304.40499118 -166.46506557 304.38035703 -154.79914254 304.3502782 C-141.52001207 304.31678097 -128.24088714 304.30025996 -114.96172297 304.28519189 C-87.64089061 304.2538088 -60.32013884 304.20041691 -32.99937057 304.13422108 C-32.99937057 293.57422108 -32.99937057 283.01422108 -32.99937057 272.13422108 C-106.91937057 272.13422108 -180.83937057 272.13422108 -256.99937057 272.13422108 Z " fill="#000000" transform="translate(272.9993705749512,95.86577892303467)"/>
</svg>
