<?xml version="1.0" standalone="no"?>
<!DOCTYPE svg PUBLIC "-//W3C//DTD SVG 20010904//EN"
 "http://www.w3.org/TR/2001/REC-SVG-20010904/DTD/svg10.dtd">
<svg version="1.0" xmlns="http://www.w3.org/2000/svg"
 width="300.000000pt" height="300.000000pt" viewBox="0 0 300.000000 300.000000"
 preserveAspectRatio="xMidYMid meet">
<metadata>
Created by potrace 1.10, written by Peter Selinger 2001-2011
</metadata>
<g transform="translate(0.000000,300.000000) scale(0.100000,-0.100000)"
fill="#000000" stroke="none">
<path d="M1430 2601 c0 -418 0 -421 -45 -421 -45 0 -45 4 -45 412 0 317 -2
388 -13 388 -23 0 -139 -41 -192 -67 -89 -46 -160 -99 -237 -182 -59 -63 -87
-103 -127 -183 -80 -165 -83 -181 -88 -518 -5 -330 -3 -343 62 -374 41 -20 68
-20 105 -1 48 25 60 52 60 133 0 41 6 88 14 107 33 78 129 96 190 36 28 -29
31 -37 36 -123 6 -103 17 -131 60 -153 37 -19 73 -19 110 0 43 22 54 50 60
153 5 87 7 94 38 125 28 27 39 32 82 32 43 0 54 -5 82 -32 31 -31 33 -38 38
-125 6 -103 17 -131 60 -153 37 -19 73 -19 110 0 43 22 54 50 60 153 5 86 8
94 36 123 61 60 157 42 190 -36 8 -19 14 -66 14 -107 0 -81 12 -108 60 -133
37 -19 64 -19 104 0 63 30 66 44 66 337 0 221 -3 278 -20 357 -49 238 -214
452 -435 564 -53 26 -169 67 -192 67 -10 0 -13 -52 -13 -275 l0 -275 -25 -12
c-21 -9 -28 -8 -45 7 -19 17 -20 31 -20 297 l0 279 -22 -7 c-13 -3 -23 -7 -23
-8 0 0 2 -125 5 -277 5 -259 6 -278 25 -299 27 -30 55 -39 87 -28 53 19 58 39
58 251 0 107 3 216 6 242 7 46 7 47 38 41 49 -9 167 -71 232 -121 89 -68 170
-168 219 -270 73 -151 77 -174 82 -493 4 -250 3 -286 -12 -308 -23 -36 -60
-47 -94 -29 -35 18 -41 32 -41 98 0 77 -18 127 -59 168 -47 48 -95 58 -157 34
-66 -25 -98 -77 -102 -169 -4 -89 -16 -121 -52 -136 -23 -9 -34 -9 -58 4 -36
19 -42 32 -42 104 0 77 -14 120 -52 159 -63 65 -141 67 -208 6 -45 -40 -60
-81 -60 -165 0 -72 -6 -85 -42 -104 -24 -12 -36 -13 -58 -4 -37 15 -48 42 -53
132 -5 99 -34 147 -101 173 -60 23 -106 14 -155 -31 -44 -39 -61 -90 -61 -179
0 -48 -4 -60 -26 -80 -15 -14 -30 -25 -34 -25 -26 0 -69 25 -79 46 -17 38 -15
502 3 596 35 183 129 341 271 459 63 52 198 125 251 135 l31 6 6 -228 c4 -125
7 -288 7 -361 l0 -135 29 -29 c17 -16 40 -29 54 -29 29 0 74 39 82 72 3 12 6
193 8 400 l2 377 -22 4 -23 4 0 -396z"/>
<path d="M1594 2330 c-36 -14 -66 -61 -59 -90 14 -53 69 -89 108 -69 73 38 73
120 0 158 -25 13 -21 12 -49 1z m56 -50 c11 -11 20 -24 20 -30 0 -15 -38 -50
-54 -50 -20 0 -46 28 -46 50 0 22 26 50 46 50 8 0 23 -9 34 -20z"/>
<path d="M974 1416 c-29 -29 -34 -41 -34 -80 0 -88 90 -142 168 -102 106 55
65 216 -54 216 -39 0 -51 -5 -80 -34z m131 -31 c45 -44 22 -109 -42 -121 -26
-5 -37 -1 -57 19 -33 33 -33 71 -1 102 13 14 36 25 50 25 14 0 37 -11 50 -25z"/>
<path d="M1870 1423 c-86 -77 -21 -215 93 -200 57 8 89 43 95 106 4 47 2 53
-31 86 -30 30 -42 35 -81 35 -36 0 -52 -6 -76 -27z m125 -38 c49 -48 19 -119
-50 -119 -43 0 -75 30 -75 71 0 32 42 73 75 73 14 0 37 -11 50 -25z"/>
<path d="M1436 1284 c-47 -48 -32 -124 30 -150 29 -12 39 -12 68 0 93 39 66
176 -34 176 -27 0 -45 -7 -64 -26z m92 -30 c25 -17 28 -41 8 -66 -16 -22 -49
-23 -70 -2 -21 20 -20 43 1 66 20 22 32 23 61 2z"/>
<path d="M714 1070 c-32 -13 -54 -50 -54 -88 0 -45 46 -92 90 -92 45 0 90 47
90 94 0 64 -69 111 -126 86z m78 -66 c17 -36 0 -59 -42 -59 -42 0 -59 23 -42
59 9 20 19 26 42 26 23 0 33 -6 42 -26z"/>
<path d="M2214 1070 c-32 -13 -54 -50 -54 -88 0 -45 46 -92 90 -92 45 0 90 47
90 94 0 64 -69 111 -126 86z m78 -66 c17 -36 0 -59 -42 -59 -42 0 -59 23 -42
59 16 37 68 37 84 0z"/>
<path d="M1363 876 c-79 -18 -178 -66 -240 -115 -138 -109 -570 -496 -585
-524 -25 -45 -23 -116 4 -157 33 -48 70 -72 104 -68 l29 3 -46 33 c-67 48 -86
104 -57 167 14 31 539 493 618 543 138 89 337 113 493 59 43 -15 102 -42 130
-61 77 -49 601 -511 615 -541 29 -63 8 -120 -61 -170 l-42 -30 29 -3 c34 -4
71 20 104 68 27 41 29 112 5 157 -15 27 -465 431 -582 522 -56 43 -120 77
-191 101 -84 28 -240 35 -327 16z"/>
<path d="M1465 689 c-80 -22 -119 -123 -75 -194 54 -87 163 -86 221 1 62 94
-37 224 -146 193z m103 -65 c32 -36 30 -93 -4 -128 -57 -57 -154 -17 -154 63
0 90 99 132 158 65z"/>
<path d="M1074 451 c-32 -14 -72 -68 -80 -106 -10 -53 32 -118 90 -140 44 -17
46 -17 90 4 61 30 94 94 78 150 -23 75 -111 120 -178 92z m117 -60 c38 -39 39
-80 0 -123 -22 -25 -36 -32 -66 -32 -47 0 -95 48 -95 95 0 45 47 89 95 89 27
0 44 -8 66 -29z"/>
<path d="M1824 451 c-32 -14 -72 -68 -80 -106 -15 -80 85 -170 160 -145 72 23
117 100 97 163 -17 52 -62 89 -113 93 -24 2 -52 0 -64 -5z m117 -60 c38 -39
39 -80 0 -123 -22 -25 -36 -32 -66 -32 -47 0 -95 48 -95 95 0 45 47 89 95 89
27 0 44 -8 66 -29z"/>
</g>
</svg>
