<?xml version="1.0" standalone="no"?>
<!DOCTYPE svg PUBLIC "-//W3C//DTD SVG 20010904//EN"
 "http://www.w3.org/TR/2001/REC-SVG-20010904/DTD/svg10.dtd">
<svg version="1.0" xmlns="http://www.w3.org/2000/svg"
 width="300.000000pt" height="300.000000pt" viewBox="0 0 300.000000 300.000000"
 preserveAspectRatio="xMidYMid meet">
<metadata>
Created by potrace 1.10, written by Peter Selinger 2001-2011
</metadata>
<g transform="translate(0.000000,300.000000) scale(0.100000,-0.100000)"
fill="#000000" stroke="none">
<path d="M215 2882 c-115 -55 -144 -173 -70 -278 41 -58 44 -92 10 -132 -32
-38 -55 -93 -55 -129 0 -34 31 -103 53 -122 9 -7 19 -28 23 -47 5 -29 0 -43
-32 -90 -34 -49 -39 -63 -39 -114 0 -51 5 -65 38 -112 43 -64 46 -95 12 -136
-32 -38 -55 -93 -55 -129 0 -34 31 -103 53 -122 9 -7 19 -28 23 -47 5 -29 0
-43 -32 -90 -34 -49 -39 -63 -39 -114 0 -51 5 -65 38 -112 45 -66 46 -94 7
-143 -56 -70 -62 -150 -17 -215 63 -94 167 -109 265 -40 46 32 58 34 135 15
55 -14 80 49 32 81 -63 41 -140 36 -212 -15 -51 -36 -90 -39 -127 -10 -38 30
-36 82 6 138 54 74 49 165 -13 243 -31 37 -26 75 15 137 29 43 36 62 36 103 0
51 -18 97 -52 134 -30 33 -26 78 12 131 56 78 52 167 -11 245 -31 37 -26 75
15 137 29 43 36 62 36 103 0 51 -18 97 -52 134 -30 33 -26 78 11 130 54 75 54
162 1 229 -38 48 -41 101 -7 133 32 30 87 29 125 -3 76 -63 161 -61 254 8 36
27 82 24 118 -6 68 -58 162 -61 236 -7 51 36 92 41 129 14 101 -72 170 -73
267 -1 36 27 82 24 118 -6 68 -58 162 -61 236 -7 51 36 92 41 129 14 101 -72
170 -73 267 -1 57 43 138 8 138 -60 0 -21 -11 -48 -30 -75 -53 -72 -58 -148
-16 -213 30 -46 95 -22 82 31 -20 79 -19 90 14 136 69 98 54 202 -40 265 -65
45 -145 39 -215 -17 -49 -39 -77 -38 -143 7 -47 33 -61 38 -111 38 -50 0 -65
-5 -112 -38 -30 -20 -63 -37 -74 -37 -12 0 -45 16 -75 35 -91 58 -157 57 -235
-5 -49 -39 -77 -38 -143 7 -47 33 -61 38 -111 38 -50 0 -65 -5 -112 -38 -30
-20 -63 -37 -74 -37 -12 0 -45 16 -75 35 -91 58 -157 57 -235 -5 -49 -39 -77
-38 -139 5 -65 44 -125 53 -181 27z"/>
<path d="M437 2562 c-24 -26 -21 -49 7 -67 45 -30 91 16 61 61 -19 29 -46 31
-68 6z"/>
<path d="M818 2569 c-26 -14 -23 -65 3 -79 16 -9 26 -8 45 5 28 18 31 46 8 69
-18 18 -32 20 -56 5z"/>
<path d="M1187 2562 c-24 -26 -21 -49 7 -67 45 -30 91 16 61 61 -19 29 -46 31
-68 6z"/>
<path d="M1568 2569 c-26 -14 -23 -65 3 -79 16 -9 26 -8 45 5 28 18 31 46 8
69 -18 18 -32 20 -56 5z"/>
<path d="M1937 2562 c-24 -26 -21 -49 7 -67 45 -30 91 16 61 61 -19 29 -46 31
-68 6z"/>
<path d="M806 2328 c-81 -17 -137 -84 -137 -165 -1 -56 9 -85 45 -132 34 -45
33 -82 -4 -133 -31 -42 -53 -106 -46 -129 2 -8 7 -26 10 -40 3 -14 19 -43 36
-64 40 -50 40 -90 0 -140 -17 -21 -33 -50 -36 -64 -3 -14 -8 -32 -10 -40 -7
-24 17 -95 47 -135 37 -51 37 -86 -1 -138 -31 -42 -53 -106 -46 -129 2 -8 7
-26 10 -40 3 -14 19 -43 36 -64 40 -50 40 -90 0 -140 -17 -21 -33 -50 -36 -64
-3 -14 -8 -32 -10 -40 -7 -24 17 -95 47 -135 37 -51 37 -85 -2 -139 -69 -98
-53 -200 41 -264 65 -45 145 -39 215 17 49 39 77 38 143 -7 77 -54 145 -54
223 0 30 20 63 37 74 37 12 0 45 -16 75 -35 91 -58 157 -57 235 5 49 39 77 38
143 -7 47 -33 61 -38 111 -38 50 0 65 5 112 38 30 20 63 37 74 37 12 0 45 -16
75 -35 91 -58 157 -57 235 5 49 39 79 38 139 -5 63 -45 119 -54 177 -27 118
53 150 171 74 278 -41 58 -44 92 -10 132 31 37 55 93 55 127 0 34 -24 90 -55
127 -34 41 -31 73 12 137 33 47 38 62 38 112 0 50 -5 64 -38 111 -43 64 -46
95 -12 136 31 37 55 93 55 127 0 34 -24 90 -55 127 -34 41 -31 73 12 137 33
47 38 62 38 112 0 50 -5 64 -38 111 -45 66 -46 94 -7 143 29 36 50 90 50 128
0 27 -28 89 -53 115 -62 66 -148 73 -236 18 -71 -44 -95 -45 -147 -7 -40 30
-111 54 -135 47 -8 -2 -26 -7 -40 -10 -14 -3 -43 -19 -64 -36 -50 -40 -83 -38
-146 5 -75 51 -135 51 -221 -1 -68 -42 -93 -42 -144 -5 -40 30 -111 54 -135
47 -8 -2 -26 -7 -40 -10 -14 -3 -43 -19 -64 -36 -50 -40 -83 -38 -146 5 -75
51 -135 51 -221 -1 -69 -42 -93 -42 -144 -4 -49 35 -106 49 -158 38z m620
-105 l45 5 -22 -24 c-33 -35 -19 -66 79 -166 105 -107 96 -98 91 -98 -2 0 -78
74 -169 165 -141 142 -158 162 -117 139 39 -21 57 -25 93 -21z m-381 -1 l45 5
-21 -28 c-24 -34 -18 -51 40 -113 20 -22 1 -9 -42 29 -43 37 -92 86 -109 107
l-30 39 36 -22 c28 -16 47 -20 81 -17z m733 -2 c18 0 42 5 52 10 16 8 18 8 14
-5 -4 -8 -9 -15 -13 -15 -3 0 -12 -9 -19 -20 -17 -27 -5 -49 67 -125 66 -71
63 -68 -56 42 -51 47 -104 100 -118 119 l-26 35 33 -21 c18 -11 48 -20 66 -20z
m399 3 l44 5 -22 -24 c-27 -29 -21 -60 22 -109 55 -63 26 -37 -76 66 -94 95
-97 100 -56 79 33 -17 56 -21 88 -17z m368 -1 l45 5 -21 -28 c-17 -24 -18 -32
-8 -51 19 -35 110 -128 142 -144 29 -16 38 -13 75 19 l22 21 -11 -33 c-14 -41
-7 -79 27 -133 17 -28 -41 25 -162 148 -104 104 -198 201 -209 213 l-20 23 38
-22 c29 -17 48 -21 82 -18z m-703 -940 c946 -945 958 -958 958 -996 0 -55 -30
-86 -84 -86 -41 0 -42 1 -998 958 -934 933 -958 958 -958 995 0 52 35 87 87
87 37 0 62 -24 995 -958z m184 186 c457 -456 774 -780 777 -794 4 -23 -8 -54
-46 -116 l-23 -37 -827 827 c-455 455 -827 828 -827 829 0 2 6 3 14 3 7 0 31
13 52 29 25 19 52 30 74 30 33 1 73 -38 806 -771z m182 200 c315 -315 578
-582 584 -593 17 -31 11 -72 -16 -108 -14 -18 -29 -43 -33 -55 -7 -19 -74 44
-648 619 -352 353 -635 643 -628 646 7 2 31 17 55 33 27 19 56 30 78 30 33 0
69 -34 608 -572z m193 176 c232 -232 399 -406 402 -420 4 -23 -8 -53 -46 -116
l-23 -37 -452 452 c-249 248 -452 453 -452 454 0 2 6 3 14 3 7 0 31 13 52 29
25 19 52 30 74 30 32 1 58 -23 431 -395z m182 199 c109 -109 203 -207 209
-218 17 -31 11 -72 -16 -108 -14 -18 -29 -43 -33 -55 -8 -20 -34 4 -273 244
-146 146 -260 268 -253 271 7 2 31 17 55 33 84 57 86 56 311 -167z m192 175
c35 -30 36 -76 3 -125 -14 -21 -30 -46 -35 -55 -7 -15 -20 -6 -88 62 -46 46
-73 80 -64 80 9 0 34 13 55 29 48 37 93 39 129 9z m-1831 -348 l51 -55 -60 56
c-83 78 -101 86 -129 60 -31 -29 -35 -27 -29 19 4 30 -1 51 -21 92 l-27 53 82
-85 c45 -47 105 -110 133 -140z m1626 -1250 c0 -5 -1411 1404 -1420 1418 -2 4
316 -312 708 -703 392 -390 712 -712 712 -715z m-151 1283 c2 -2 2 -5 0 -8 -3
-2 -34 26 -70 63 l-64 67 65 -60 c35 -33 66 -61 69 -62z m306 -663 c10 0 36
19 58 43 l39 42 -22 -43 c-27 -52 -23 -92 15 -153 15 -23 -173 160 -418 407
-245 247 -449 454 -453 459 -5 6 165 -162 377 -372 228 -227 393 -383 404
-383z m-1072 -147 c455 -456 823 -829 818 -831 -5 -2 -30 -17 -56 -34 -90 -59
-20 -118 -882 744 -863 863 -805 794 -743 880 17 22 30 47 30 55 0 7 1 13 3
13 1 0 375 -372 830 -827z m241 580 c50 -51 88 -93 85 -93 -2 0 -60 57 -129
127 -69 70 -107 111 -85 92 22 -19 80 -76 129 -126z m780 -27 c32 -29 67 -34
86 -11 21 25 31 17 24 -22 -4 -29 1 -49 21 -87 14 -27 24 -49 23 -50 -2 0 -82
80 -178 179 -96 99 -137 143 -90 99 47 -45 98 -94 114 -108z m-1569 64 c38
-38 67 -70 64 -70 -2 0 -36 32 -74 70 -38 39 -67 70 -64 70 2 0 36 -31 74 -70z
m-265 -105 c58 -60 88 -94 67 -77 -56 47 -82 50 -118 16 l-30 -29 10 28 c17
43 13 70 -14 121 -14 26 -25 50 -25 53 0 4 1 4 3 2 1 -3 49 -54 107 -114z
m530 -160 c63 -63 112 -115 110 -115 -3 0 -57 52 -120 115 -63 63 -112 115
-110 115 3 0 57 -52 120 -115z m105 -545 c352 -352 633 -640 624 -640 -8 0
-34 -14 -57 -31 -43 -32 -85 -39 -117 -21 -11 6 -278 269 -592 584 -542 542
-573 575 -573 609 0 24 10 48 30 75 16 21 30 45 30 52 0 6 3 12 8 12 4 0 295
-288 647 -640z m135 -65 c578 -579 649 -653 605 -634 -41 18 -56 20 -87 12
-21 -6 -38 -9 -38 -8 0 1 9 12 20 25 44 51 57 36 -567 662 -676 677 -597 598
-592 598 2 0 299 -295 659 -655z m575 545 c44 -44 77 -80 75 -80 -3 0 -41 36
-85 80 -44 44 -77 80 -75 80 3 0 41 -36 85 -80z m-1305 -192 c79 -84 110 -121
69 -82 -98 95 -113 102 -147 72 -15 -12 -28 -26 -30 -30 -2 -4 -13 -18 -23
-30 -15 -17 -14 -11 5 23 33 58 33 92 1 152 -14 26 -24 47 -22 47 2 0 68 -69
147 -152z m1520 -23 c69 -69 122 -125 120 -125 -3 0 -61 56 -130 125 -69 69
-122 125 -120 125 3 0 61 -56 130 -125z m-665 -85 c71 -71 127 -130 125 -130
-3 0 -64 59 -135 130 -71 72 -127 130 -125 130 3 0 64 -58 135 -130z m-458
-362 l452 -452 -37 -23 c-63 -38 -93 -50 -116 -46 -14 3 -188 170 -420 402
-443 444 -426 420 -366 503 17 22 30 47 30 55 0 7 1 13 3 13 1 0 206 -203 454
-452z m-162 232 c44 -44 77 -80 75 -80 -3 0 -41 36 -85 80 -44 44 -77 80 -75
80 3 0 41 -36 85 -80z m1609 -80 c13 0 29 7 36 15 21 25 31 17 24 -22 -4 -29
0 -49 20 -85 14 -27 24 -48 23 -48 -1 0 -70 68 -152 152 -83 84 -111 115 -63
70 60 -56 95 -82 112 -82z m-1599 -298 c348 -350 385 -390 341 -371 -34 15
-58 19 -83 14 l-35 -6 18 29 c14 25 15 35 5 59 -17 43 -490 510 -524 519 -23
5 -34 1 -58 -22 l-30 -29 10 28 c17 44 13 79 -14 122 -13 22 -25 44 -25 49 0
5 1 7 3 5 1 -3 178 -181 392 -397z m-25 -47 c146 -146 258 -265 249 -265 -8 0
-34 -14 -57 -31 -43 -32 -84 -39 -117 -21 -11 6 -109 100 -217 209 -182 183
-198 202 -198 234 0 24 10 48 30 75 16 21 30 45 30 52 0 6 3 12 8 12 4 0 126
-119 272 -265z m1070 120 c69 -69 122 -125 120 -125 -3 0 -61 56 -130 125 -69
69 -122 125 -120 125 3 0 61 -56 130 -125z m-1195 -300 c66 -66 127 -128 134
-137 12 -16 10 -16 -29 -1 -33 13 -50 15 -81 6 l-40 -11 19 22 c31 35 34 44
18 73 -20 38 -115 130 -147 142 -27 10 -45 -3 -100 -69 -15 -19 -14 -14 5 21
34 60 33 91 -5 163 l-31 58 68 -73 c37 -41 122 -128 189 -194z m1752 145 c9 0
34 19 56 43 l39 42 -22 -43 c-27 -52 -23 -91 16 -153 24 -40 25 -42 4 -24 -12
11 -72 74 -134 140 -85 92 -95 105 -43 58 37 -35 75 -63 84 -63z m-121 -278
c14 -20 14 -20 -27 -4 -32 12 -49 14 -80 5 l-40 -11 19 22 c45 50 42 58 -87
190 -76 79 -66 71 52 -41 82 -78 155 -150 163 -161z m-751 2 l14 -22 -40 16
c-32 12 -49 14 -80 5 l-40 -11 19 22 c43 48 39 60 -47 150 -33 35 -11 18 52
-39 59 -55 114 -109 122 -121z m-952 129 l76 -78 -27 -14 c-15 -8 -38 -22 -51
-32 -36 -29 -95 -25 -120 7 -29 37 -26 77 9 126 17 22 30 47 30 55 0 7 2 13 4
13 2 0 38 -35 79 -77z"/>
<path d="M430 2181 c-14 -27 -13 -37 6 -55 23 -23 51 -20 69 8 13 19 14 29 5
45 -14 28 -65 29 -80 2z"/>
<path d="M437 1812 c-24 -26 -21 -49 7 -67 45 -30 91 16 61 61 -19 29 -46 31
-68 6z"/>
<path d="M430 1431 c-14 -27 -13 -37 6 -55 23 -23 51 -20 69 8 13 19 14 29 5
45 -14 28 -65 29 -80 2z"/>
<path d="M437 1062 c-24 -26 -21 -49 7 -67 45 -30 91 16 61 61 -19 29 -46 31
-68 6z"/>
</g>
</svg>
