<?xml version="1.0" standalone="no"?>
<!DOCTYPE svg PUBLIC "-//W3C//DTD SVG 20010904//EN"
 "http://www.w3.org/TR/2001/REC-SVG-20010904/DTD/svg10.dtd">
<svg version="1.0" xmlns="http://www.w3.org/2000/svg"
 width="300.000000pt" height="300.000000pt" viewBox="0 0 300.000000 300.000000"
 preserveAspectRatio="xMidYMid meet">
<metadata>
Created by potrace 1.10, written by Peter Selinger 2001-2011
</metadata>
<g transform="translate(0.000000,300.000000) scale(0.100000,-0.100000)"
fill="#000000" stroke="none">
<path d="M457 2774 c-4 -4 -7 -30 -7 -58 l0 -51 192 2 193 2 0 53 0 53 -186 3
c-102 1 -188 -1 -192 -4z m331 -51 c3 -10 -30 -13 -142 -13 -132 0 -167 6
-149 24 4 4 70 5 147 4 100 -2 141 -6 144 -15z"/>
<path d="M242 2594 l-22 -15 0 -1078 c0 -1032 1 -1079 18 -1094 17 -15 61 -17
425 -17 l407 0 0 74 c0 59 3 75 16 80 31 12 44 -13 44 -85 l0 -69 799 0 c792
0 798 0 825 21 l26 20 0 892 0 892 -292 -3 c-323 -3 -337 0 -382 61 -19 25
-21 45 -24 183 l-3 154 -475 0 -474 0 0 -69 c0 -72 -14 -99 -45 -87 -12 4 -15
23 -15 81 l0 75 -403 0 c-348 0 -406 -2 -425 -16z m786 -84 c9 -128 142 -114
142 15 l0 35 435 0 435 0 0 -107 c0 -60 5 -125 11 -146 11 -39 57 -99 93 -120
14 -8 109 -14 306 -17 l285 -5 3 -852 c2 -764 0 -853 -14 -867 -14 -14 -96
-16 -769 -16 -414 0 -760 3 -769 6 -11 4 -16 19 -16 43 0 34 -20 76 -44 93
-41 29 -96 -19 -96 -83 0 -28 -5 -41 -19 -49 -30 -15 -723 -14 -739 2 -9 9
-12 258 -12 1058 0 576 3 1050 7 1053 4 4 176 6 382 5 l376 -3 3 -45z"/>
<path d="M1055 2324 c-23 -25 -25 -35 -25 -119 0 -89 1 -92 30 -120 29 -28 32
-29 58 -14 42 23 53 54 49 146 -2 70 -6 86 -27 108 -30 32 -55 32 -85 -1z m70
-119 c0 -100 0 -100 -25 -100 -25 0 -25 1 -28 89 -3 105 0 118 30 114 22 -3
23 -7 23 -103z"/>
<path d="M443 2137 c-112 -112 -122 -135 -80 -175 42 -40 63 -30 174 81 112
112 122 135 80 175 -42 40 -63 30 -174 -81z m156 59 c9 -10 9 -20 3 -33 -18
-32 -191 -195 -203 -191 -7 2 -17 12 -23 21 -9 14 6 34 89 117 55 55 105 100
111 100 6 0 17 -6 23 -14z"/>
<path d="M1061 1974 c-31 -25 -31 -27 -31 -120 0 -87 2 -97 25 -119 31 -32 55
-32 86 1 22 23 24 34 24 121 0 91 -1 96 -28 119 -35 30 -38 30 -76 -2z m63
-30 c3 -9 6 -53 6 -99 0 -72 -3 -86 -18 -94 -33 -17 -42 6 -42 104 0 51 3 95
7 98 12 13 41 7 47 -9z"/>
<path d="M1838 1951 c-166 -87 -238 -140 -238 -176 0 -25 41 -65 67 -65 15 0
76 28 137 62 166 93 195 130 141 183 -31 32 -41 31 -107 -4z m96 -28 c4 -9 1
-22 -6 -28 -31 -30 -260 -153 -273 -148 -8 3 -15 15 -15 27 1 16 28 37 123 92
127 74 160 86 171 57z"/>
<path d="M2405 1823 c-64 -34 -862 -496 -897 -519 -21 -13 -45 -35 -53 -48
-15 -22 -15 -27 -1 -54 16 -30 34 -42 65 -42 20 0 946 532 979 563 29 27 28
68 -1 95 -27 26 -51 27 -92 5z m75 -28 c26 -31 71 -3 -690 -442 -290 -167
-284 -165 -299 -150 -6 6 -11 18 -11 26 0 10 155 105 426 261 234 134 454 261
487 282 71 43 71 43 87 23z"/>
<path d="M1051 1614 c-18 -22 -21 -41 -21 -114 0 -73 3 -92 21 -114 34 -43 88
-31 108 25 16 46 14 155 -4 188 -25 49 -72 55 -104 15z m67 -16 c18 -18 16
-182 -3 -198 -8 -7 -22 -10 -30 -6 -20 7 -22 201 -2 209 19 8 22 8 35 -5z"/>
<path d="M1055 1265 c-23 -22 -25 -32 -25 -119 0 -93 0 -95 31 -120 38 -32 41
-32 76 -2 27 23 28 28 28 119 0 87 -2 98 -24 121 -31 33 -55 33 -86 1z m75
-113 c0 -94 -7 -116 -36 -110 -17 3 -19 14 -22 97 -3 102 6 128 39 110 16 -8
19 -21 19 -97z"/>
<path d="M2160 1225 c-134 -76 -160 -99 -160 -136 0 -29 40 -69 69 -69 25 0
243 128 274 161 32 35 34 48 6 83 -31 40 -62 33 -189 -39z m158 26 c32 -20 4
-47 -118 -118 -129 -75 -156 -84 -167 -57 -8 22 6 33 142 113 133 78 125 74
143 62z"/>
<path d="M703 956 c-111 -112 -122 -135 -80 -174 43 -41 65 -30 175 82 109
111 120 133 82 174 -40 43 -66 31 -177 -82z m161 51 c9 -14 -6 -34 -89 -117
-55 -55 -105 -100 -112 -100 -7 0 -17 9 -23 21 -10 18 -1 31 89 120 56 55 107
99 113 97 6 -2 16 -12 22 -21z"/>
<path d="M1057 912 c-25 -26 -27 -34 -27 -121 0 -84 2 -94 25 -116 31 -32 55
-32 86 1 22 23 24 34 24 121 0 91 -1 96 -28 119 -36 31 -47 30 -80 -4z m68
-117 c0 -100 0 -100 -25 -100 -25 0 -25 1 -28 89 -3 105 0 118 30 114 22 -3
23 -7 23 -103z"/>
<path d="M2140 2466 c0 -127 2 -147 19 -167 l19 -24 304 -2 303 -3 -42 39
c-140 128 -406 265 -570 295 l-33 6 0 -144z m171 54 c137 -50 348 -177 333
-201 -3 -5 -99 -9 -215 -9 -259 0 -249 -5 -249 133 0 52 3 97 7 100 12 13 42
7 124 -23z"/>
<path d="M452 280 l3 -55 190 0 190 0 0 53 0 53 -193 2 -193 2 3 -55z m336 -2
c-3 -9 -42 -14 -138 -16 -138 -3 -166 1 -155 18 10 16 298 13 293 -2z"/>
</g>
</svg>
