<?xml version="1.0" standalone="no"?>
<!DOCTYPE svg PUBLIC "-//W3C//DTD SVG 20010904//EN"
 "http://www.w3.org/TR/2001/REC-SVG-20010904/DTD/svg10.dtd">
<svg version="1.0" xmlns="http://www.w3.org/2000/svg"
 width="300.000000pt" height="300.000000pt" viewBox="0 0 300.000000 300.000000"
 preserveAspectRatio="xMidYMid meet">
<metadata>
Created by potrace 1.10, written by Peter Selinger 2001-2011
</metadata>
<g transform="translate(0.000000,300.000000) scale(0.100000,-0.100000)"
fill="#000000" stroke="none">
<path d="M1910 2512 c-22 -10 -60 -50 -102 -107 -65 -87 -68 -89 -120 -100
-67 -13 -78 -20 -78 -50 0 -13 6 -27 13 -32 6 -4 59 -8 117 -8 92 0 111 -3
154 -25 64 -33 130 -108 152 -173 32 -93 24 -154 -41 -316 -31 -80 -62 -175
-68 -212 -14 -91 2 -199 41 -284 21 -45 27 -65 18 -65 -21 0 -67 -40 -77 -67
-10 -26 3 -119 24 -177 14 -38 60 -56 144 -56 98 1 144 14 174 50 l26 30 64
-15 c129 -30 207 -18 393 63 132 56 156 59 164 19 5 -23 -50 -99 -127 -179
-59 -63 -63 -70 -53 -93 16 -35 45 -31 94 12 61 56 156 178 166 216 27 97 -53
185 -145 158 -15 -5 -82 -32 -147 -61 -106 -47 -130 -53 -205 -57 -193 -11
-348 80 -434 256 -30 62 -32 72 -32 176 l0 110 59 145 c72 178 82 256 47 361
-12 35 -28 72 -35 82 -12 16 -10 31 20 120 56 165 43 215 -70 268 -71 34 -89
35 -136 11z m109 -92 c21 -10 41 -27 45 -36 4 -10 -5 -52 -19 -95 l-26 -78
-44 30 c-25 17 -65 37 -90 45 -50 18 -51 13 14 97 48 63 62 67 120 37z m-196
-138 c15 -19 2 -25 -39 -18 l-36 7 28 30 c25 26 29 28 33 12 2 -10 8 -24 14
-31z m229 -122 l-7 -44 -27 29 -27 28 32 17 c18 9 33 15 34 15 2 -1 -1 -21 -5
-45z m46 -1064 c-2 -2 -22 -1 -44 2 l-42 4 17 29 16 30 28 -32 c16 -17 27 -32
25 -33z m11 -68 c21 -18 50 -42 66 -54 45 -32 26 -44 -70 -44 l-84 0 -11 55
c-6 30 -9 59 -5 65 13 22 67 10 104 -22z m171 -66 c0 -4 -12 -15 -27 -24 l-28
-16 0 38 -1 38 28 -14 c15 -8 28 -18 28 -22z"/>
<path d="M1451 2171 c-11 -11 -72 -109 -137 -218 -64 -109 -158 -268 -209
-353 -50 -85 -131 -221 -179 -302 -97 -165 -157 -232 -247 -277 -141 -70 -271
-64 -441 21 -96 49 -101 50 -140 39 -115 -35 -121 -140 -17 -295 97 -146 238
-243 429 -298 31 -9 119 -13 275 -13 254 0 301 8 419 67 73 37 173 114 210
163 33 43 62 45 102 7 114 -110 242 -183 384 -218 146 -37 440 -23 575 28 132
49 164 73 149 111 -10 26 -40 29 -81 9 -112 -56 -242 -82 -415 -82 -239 0
-372 50 -535 201 -95 88 -165 90 -240 5 -116 -129 -272 -206 -416 -206 l-42 0
0 58 c0 122 -100 183 -249 152 -47 -10 -67 -20 -107 -59 -43 -42 -49 -52 -49
-89 l0 -42 -57 25 c-139 61 -258 170 -317 290 -30 62 -32 78 -10 96 13 10 28
6 99 -29 105 -53 179 -72 273 -72 182 0 346 87 445 237 25 38 159 262 297 498
139 237 266 449 282 473 28 41 29 44 14 67 -20 30 -39 32 -65 6z m-661 -1499
c22 -18 31 -76 15 -101 -4 -7 -49 -11 -115 -11 l-108 0 -7 31 c-12 55 49 98
141 99 35 0 59 -6 74 -18z m-250 -96 c0 -7 7 -19 15 -26 21 -18 11 -27 -25
-22 -39 6 -46 18 -24 43 20 22 34 25 34 5z m333 -59 c-8 -5 -26 -6 -40 -2
l-26 6 23 24 23 24 17 -22 c16 -19 16 -23 3 -30z"/>
<path d="M1525 2000 c-8 -16 -15 -38 -15 -49 0 -19 26 -41 49 -41 16 0 44 48
44 76 0 50 -54 60 -78 14z"/>
<path d="M1656 1934 c-20 -19 -20 -34 0 -62 23 -34 71 -55 109 -48 40 8 58 27
53 58 -2 19 -10 24 -43 26 -23 2 -47 12 -58 23 -22 23 -40 24 -61 3z"/>
<path d="M1904 1892 c-39 -26 -41 -95 -3 -107 43 -14 86 66 54 99 -18 17 -34
20 -51 8z"/>
<path d="M1609 1643 c-10 -2 -30 -35 -47 -76 -72 -173 -130 -406 -139 -563 -6
-97 -5 -102 16 -113 41 -22 58 0 65 86 16 178 76 420 141 567 32 71 17 111
-36 99z"/>
<path d="M1175 1326 c-48 -47 -54 -65 -29 -90 23 -23 39 -20 79 15 51 46 60
65 40 95 -22 34 -40 30 -90 -20z"/>
<path d="M1141 1135 c-46 -50 -48 -57 -25 -79 24 -25 45 -19 91 26 44 43 52
65 31 86 -23 23 -55 12 -97 -33z"/>
</g>
</svg>
