<?xml version="1.0" standalone="no"?>
<!DOCTYPE svg PUBLIC "-//W3C//DTD SVG 20010904//EN"
 "http://www.w3.org/TR/2001/REC-SVG-20010904/DTD/svg10.dtd">
<svg version="1.0" xmlns="http://www.w3.org/2000/svg"
 width="300.000000pt" height="300.000000pt" viewBox="0 0 300.000000 300.000000"
 preserveAspectRatio="xMidYMid meet">
<metadata>
Created by potrace 1.10, written by Peter Selinger 2001-2011
</metadata>
<g transform="translate(0.000000,300.000000) scale(0.100000,-0.100000)"
fill="#000000" stroke="none">
<path d="M1370 2754 c-309 -45 -532 -146 -734 -335 -198 -185 -347 -469 -386
-736 -21 -150 -10 -350 30 -503 79 -307 315 -617 581 -761 29 -17 46 -24 35
-17 -60 42 -50 43 36 3 213 -98 351 -130 563 -130 217 0 348 31 550 130 341
167 576 475 661 865 14 63 18 125 18 240 -1 161 -12 238 -55 369 -17 49 -19
65 -9 71 10 6 10 12 0 26 -9 16 -11 16 -6 2 3 -10 0 -20 -6 -24 -7 -5 -9 4 -6
27 9 55 -62 180 -184 326 -240 288 -602 457 -966 452 -53 -1 -108 -3 -122 -5z
m358 -48 c526 -115 899 -514 978 -1047 74 -503 -214 -1032 -683 -1254 -401
-191 -842 -158 -1217 92 -332 221 -536 605 -536 1009 0 245 72 478 216 696 53
80 262 296 334 345 80 54 205 113 255 119 11 2 61 12 110 24 50 12 115 25 145
30 80 13 313 5 398 -14z"/>
<path d="M2748 1460 c-17 -337 -134 -607 -361 -838 -143 -144 -318 -253 -507
-313 -47 -15 -79 -28 -71 -28 27 -2 218 68 269 98 29 17 57 31 61 31 5 0 20 9
33 20 14 10 28 16 32 13 3 -3 6 -1 6 5 0 6 12 18 28 26 50 27 272 241 272 262
0 6 40 63 63 88 9 11 17 26 17 33 0 7 5 13 10 13 6 0 10 6 10 14 0 7 6 19 13
25 8 6 22 35 32 66 11 30 23 55 27 55 4 0 7 3 6 8 -1 8 10 58 19 82 4 8 7 17
8 20 1 3 4 12 8 20 25 65 45 258 37 360 -4 57 -6 50 -12 -60z"/>
<path d="M1448 243 c28 -2 76 -2 105 0 28 2 5 3 -53 3 -58 0 -81 -1 -52 -3z"/>
</g>
</svg>
