<?xml version="1.0" standalone="no"?>
<!DOCTYPE svg PUBLIC "-//W3C//DTD SVG 20010904//EN"
 "http://www.w3.org/TR/2001/REC-SVG-20010904/DTD/svg10.dtd">
<svg version="1.0" xmlns="http://www.w3.org/2000/svg"
 width="300.000000pt" height="300.000000pt" viewBox="0 0 300.000000 300.000000"
 preserveAspectRatio="xMidYMid meet">
<metadata>
Created by potrace 1.10, written by Peter Selinger 2001-2011
</metadata>
<g transform="translate(0.000000,300.000000) scale(0.100000,-0.100000)"
fill="#000000" stroke="none">
<path d="M1467 2842 c-24 -26 -25 -223 -1 -246 20 -20 233 -23 252 -4 17 17
17 239 0 256 -8 8 -50 12 -123 12 -96 0 -114 -3 -128 -18z m211 -30 c9 -6 12
-33 10 -98 l-3 -89 -85 -3 c-103 -4 -110 3 -110 96 0 96 6 102 98 102 42 0 83
-4 90 -8z"/>
<path d="M1814 2573 c-31 -73 -77 -93 -217 -93 -122 0 -175 16 -207 60 l-20
28 -58 -17 c-66 -21 -142 -58 -142 -70 0 -5 23 -18 51 -31 287 -123 1070 -141
1479 -34 96 25 153 51 153 69 0 19 -60 45 -156 70 -172 43 -296 56 -587 62
l-275 5 -21 -49z m657 -17 c137 -19 294 -57 294 -71 0 -14 -147 -51 -275 -71
-140 -21 -622 -30 -789 -15 -196 18 -431 63 -431 82 0 12 44 29 74 29 13 0 29
-7 37 -16 7 -8 30 -25 52 -36 35 -18 55 -19 171 -16 152 4 183 16 238 95 l31
46 241 -6 c133 -3 293 -13 357 -21z"/>
<path d="M1170 2273 l0 -100 88 -27 c191 -59 392 -80 757 -80 371 0 596 25
781 86 l64 21 0 98 c0 55 -2 99 -4 99 -2 0 -24 -9 -50 -20 -60 -27 -190 -55
-351 -76 -166 -22 -664 -25 -835 -6 -193 23 -335 54 -432 97 -17 6 -18 -1 -18
-92z m116 12 c179 -53 490 -80 829 -72 262 6 407 21 565 57 138 32 134 32 138
-16 2 -25 -2 -45 -10 -52 -7 -6 -48 -20 -91 -31 -339 -89 -1050 -89 -1402 0
-87 22 -105 36 -105 84 0 50 4 52 76 30z"/>
<path d="M774 2102 c-25 -17 -532 -754 -566 -822 -129 -260 -65 -586 153 -784
272 -246 701 -214 938 70 96 115 141 233 149 387 5 123 -7 201 -47 298 -36 85
-576 859 -599 859 -10 0 -22 -4 -28 -8z m74 -104 c127 -171 471 -673 499 -727
42 -83 63 -179 63 -283 -1 -288 -187 -527 -466 -598 -43 -11 -94 -20 -115 -20
l-38 0 24 36 c31 46 32 85 2 119 -17 20 -39 30 -96 40 -194 38 -335 193 -348
386 -7 100 10 180 53 256 71 122 70 120 48 151 -12 15 -36 36 -56 46 l-35 20
-33 -24 -32 -23 12 24 c14 27 110 159 115 159 2 0 -3 -12 -11 -27 -21 -41 -17
-66 14 -95 44 -42 76 -51 106 -27 31 24 66 80 66 106 0 23 -45 68 -82 82 -22
8 -31 6 -53 -11 -14 -11 -28 -18 -31 -16 -8 9 327 478 341 478 8 0 32 -24 53
-52z m-295 -450 c18 -12 34 -23 35 -24 5 -3 -57 -94 -64 -94 -5 0 -43 24 -72
46 -5 3 57 94 64 94 3 0 20 -10 37 -22z m-95 -214 c1 0 -18 -31 -43 -68 -103
-154 -113 -351 -27 -509 65 -121 214 -222 345 -234 l67 -6 0 -48 c0 -47 -1
-49 -28 -49 -50 0 -181 38 -241 70 -207 110 -324 342 -291 576 12 92 43 172
100 259 l42 64 37 -26 c20 -15 37 -28 39 -29z"/>
<path d="M1170 2033 c0 -41 2 -45 37 -59 66 -28 244 -63 398 -80 118 -13 221
-15 485 -11 389 6 479 16 698 79 l72 21 0 47 0 46 -70 -23 c-159 -53 -437 -83
-776 -83 -334 0 -617 30 -774 83 l-70 23 0 -43z"/>
<path d="M1170 1830 l0 -58 135 -194 c74 -106 140 -201 147 -210 37 -50 618
-72 958 -37 139 14 252 37 357 70 l93 30 0 230 c0 218 -1 229 -18 220 -10 -5
-54 -19 -97 -30 -397 -99 -1168 -92 -1502 14 l-73 23 0 -58z m195 -38 c183
-38 305 -47 650 -47 345 0 471 9 650 47 55 12 111 21 125 22 l25 1 3 -171 c2
-131 -1 -174 -11 -182 -22 -18 -181 -60 -290 -76 -285 -43 -872 -39 -1012 5
-24 8 -57 48 -155 190 -69 100 -128 190 -133 201 -10 27 1 41 27 35 11 -2 66
-14 121 -25z"/>
<path d="M2770 1303 c-94 -30 -256 -58 -423 -72 -223 -19 -649 -11 -809 15
l-37 6 16 -51 16 -50 66 -8 c36 -4 230 -8 431 -8 301 0 385 3 480 18 126 20
250 49 311 74 37 14 39 17 39 59 0 24 -3 44 -7 43 -5 -1 -42 -12 -83 -26z"/>
<path d="M2829 1130 c-33 -19 -226 -60 -364 -77 -159 -20 -725 -23 -850 -6
-38 6 -70 10 -71 9 -1 0 1 -18 4 -38 l4 -38 514 0 c495 0 516 -1 554 -20 44
-23 90 -83 90 -118 0 -15 5 -22 13 -19 6 3 32 13 57 22 80 32 80 32 80 172 0
67 -3 123 -7 123 -5 0 -15 -5 -24 -10z m-9 -134 c0 -79 -9 -98 -52 -111 -15
-5 -24 -2 -31 10 -20 36 -78 93 -107 105 -36 15 -39 28 -7 34 12 3 49 11 82
19 33 8 72 15 88 16 l27 1 0 -74z"/>
<path d="M1526 814 c-23 -95 -92 -235 -147 -297 l-41 -47 192 0 192 0 29 -29
c21 -22 29 -39 29 -66 0 -27 -8 -44 -29 -66 l-29 -29 -330 0 c-303 0 -335 -2
-408 -21 -102 -27 -273 -29 -354 -3 -69 21 -455 33 -490 14 -28 -15 -52 -73
-44 -104 3 -13 17 -35 31 -48 l25 -23 996 -3 c696 -2 1008 0 1034 8 47 13 68
50 68 119 0 38 6 56 24 78 l24 28 280 5 c304 5 302 5 322 64 12 39 3 72 -30
101 -21 19 -38 20 -389 22 l-366 3 -29 31 c-23 26 -27 38 -22 67 3 20 15 45
26 56 19 20 35 21 250 26 l230 5 26 26 c38 39 36 94 -5 131 l-31 28 -508 0
-508 0 -18 -76z m1035 17 c20 -16 22 -23 14 -47 -6 -17 -20 -31 -35 -35 -14
-4 -116 -7 -227 -8 l-202 -1 -35 -30 c-45 -40 -62 -88 -47 -133 15 -43 58 -85
102 -97 19 -6 180 -10 369 -10 355 0 360 -1 360 -46 0 -52 -12 -54 -283 -54
-220 0 -256 -2 -286 -18 -48 -24 -71 -60 -80 -125 -13 -96 98 -87 -1040 -87
-770 0 -1010 3 -1019 12 -17 17 -15 48 5 70 14 16 34 18 190 18 148 0 186 -3
256 -22 114 -31 280 -31 390 0 72 21 99 22 400 22 302 0 324 1 354 20 93 56
93 173 1 230 -29 17 -51 20 -170 20 -76 0 -138 2 -138 5 0 3 20 42 44 88 25
45 54 116 67 157 12 41 24 78 26 83 2 4 219 7 482 7 455 0 480 -1 502 -19z"/>
</g>
</svg>
