<?xml version="1.0" standalone="no"?>
<!DOCTYPE svg PUBLIC "-//W3C//DTD SVG 20010904//EN"
 "http://www.w3.org/TR/2001/REC-SVG-20010904/DTD/svg10.dtd">
<svg version="1.0" xmlns="http://www.w3.org/2000/svg"
 width="300.000000pt" height="300.000000pt" viewBox="0 0 300.000000 300.000000"
 preserveAspectRatio="xMidYMid meet">
<metadata>
Created by potrace 1.10, written by Peter Selinger 2001-2011
</metadata>
<g transform="translate(0.000000,300.000000) scale(0.100000,-0.100000)"
fill="#000000" stroke="none">
<path d="M572 2224 c-29 -14 -60 -38 -71 -52 -10 -15 -73 -136 -140 -269
l-121 -243 1270 0 c698 0 1270 2 1270 4 0 3 -15 31 -34 63 -18 32 -79 144
-135 250 -107 203 -140 243 -208 262 -25 7 -332 11 -909 11 l-870 0 -52 -26z
m1811 -25 c65 -18 100 -63 206 -263 55 -104 103 -197 106 -207 6 -18 -3 -19
-184 -19 l-191 0 30 42 c30 41 30 42 30 171 0 114 -2 134 -21 164 -39 64 -110
80 -170 40 -55 -37 -69 -76 -69 -200 0 -110 11 -159 43 -186 31 -25 18 -31
-65 -31 l-81 0 20 23 c38 41 43 63 43 192 0 142 -10 173 -63 205 -41 25 -83
25 -124 0 -54 -32 -67 -63 -71 -166 -6 -121 3 -177 34 -213 13 -16 24 -32 24
-35 0 -3 -36 -6 -80 -6 l-80 0 30 47 c29 45 30 51 30 165 0 127 -7 153 -53
196 -50 47 -137 35 -182 -26 -17 -23 -20 -46 -23 -162 l-3 -135 30 -43 31 -42
-81 0 -81 0 28 38 c29 37 29 38 29 177 0 124 -2 143 -20 167 -45 61 -132 73
-182 26 -46 -43 -53 -69 -53 -196 0 -114 1 -120 30 -165 l30 -47 -80 0 c-44 0
-80 3 -80 6 0 3 11 19 24 35 31 36 40 92 34 213 -4 103 -17 134 -71 166 -59
36 -130 18 -167 -43 -17 -27 -20 -51 -20 -160 0 -131 5 -153 43 -194 l20 -23
-81 0 c-45 0 -82 3 -82 6 0 3 11 19 24 35 31 36 40 92 34 213 -4 103 -17 133
-71 167 -31 19 -69 21 -122 5 -14 -4 -26 3 -43 24 -13 16 -21 34 -17 40 9 14
1706 14 1758 -1z m-1759 -65 c6 -16 -19 -74 -32 -74 -5 0 -16 6 -26 13 -17 13
-17 15 -2 45 18 34 50 43 60 16z m183 -48 l28 -24 0 -137 0 -137 -28 -24 c-38
-32 -90 -32 -122 1 -24 23 -25 29 -25 158 0 138 4 153 45 175 33 18 72 14 102
-12z m300 0 l28 -24 0 -137 0 -137 -28 -24 c-30 -26 -75 -31 -109 -13 -33 18
-48 70 -48 174 0 102 14 155 47 174 32 18 80 13 110 -13z m302 -2 l31 -26 0
-133 0 -133 -31 -26 c-41 -35 -83 -34 -120 3 -29 29 -29 29 -29 156 0 127 0
127 29 156 37 37 79 38 120 3z m302 -3 c29 -29 29 -29 29 -156 0 -127 0 -127
-29 -156 -37 -37 -79 -38 -120 -3 l-31 26 0 133 0 133 31 26 c41 35 83 34 120
-3z m291 18 c33 -18 48 -70 48 -174 0 -104 -15 -156 -48 -174 -34 -18 -79 -13
-109 13 l-28 24 0 137 0 137 28 24 c30 26 75 31 109 13z m297 -4 c16 -8 31
-22 35 -30 3 -9 6 -75 6 -146 0 -125 -1 -131 -25 -154 -35 -36 -88 -34 -126 4
-29 29 -29 29 -29 156 0 127 0 127 29 156 33 32 67 37 110 14z m-1774 -26 c4
-11 5 -22 3 -23 -14 -9 -58 -25 -58 -20 0 13 31 64 40 64 5 0 12 -9 15 -21z
m89 -100 c3 -34 6 -86 6 -116 0 -57 9 -84 43 -120 l20 -23 -111 0 c-103 0
-131 7 -101 26 17 10 120 228 116 244 -3 8 -8 23 -12 33 -5 13 -2 17 13 17 16
0 20 -9 26 -61z m-80 35 c9 -3 16 -14 16 -23 0 -22 -112 -239 -127 -245 -6 -3
-19 1 -29 9 -17 12 -15 20 40 126 55 106 74 139 81 139 2 0 10 -3 19 -6z
m-176 -266 c19 -19 14 -28 -13 -28 -27 0 -28 1 -19 24 7 19 16 20 32 4z"/>
<path d="M724 2039 c-4 -7 -7 -60 -7 -118 0 -110 9 -132 47 -118 14 6 16 22
14 124 -3 112 -4 118 -25 121 -11 2 -24 -2 -29 -9z"/>
<path d="M1022 2038 c-14 -14 -17 -205 -3 -226 4 -8 19 -12 32 -10 24 3 24 4
24 123 0 113 -1 120 -20 123 -11 1 -26 -3 -33 -10z"/>
<path d="M1325 2038 c-3 -8 -4 -63 -3 -124 3 -109 3 -109 28 -109 l25 0 0 120
c0 117 -1 120 -23 123 -12 2 -24 -3 -27 -10z"/>
<path d="M1625 2038 c-3 -8 -4 -63 -3 -124 3 -109 3 -109 28 -109 l25 0 0 120
c0 117 -1 120 -23 123 -12 2 -24 -3 -27 -10z"/>
<path d="M1924 2037 c-2 -7 -3 -62 -2 -123 3 -106 4 -109 27 -112 13 -2 28 2
32 10 14 21 11 212 -3 226 -16 16 -47 15 -54 -1z"/>
<path d="M2227 2043 c-4 -3 -7 -57 -7 -120 0 -96 3 -115 16 -120 38 -14 47 8
47 118 0 58 -3 111 -7 117 -8 13 -39 16 -49 5z"/>
<path d="M120 1570 l0 -40 1380 0 1380 0 0 40 0 40 -1380 0 -1380 0 0 -40z"/>
<path d="M120 1430 l0 -40 1380 0 1380 0 0 40 0 40 -1380 0 -1380 0 0 -40z"/>
<path d="M372 1078 c130 -257 134 -264 182 -293 l49 -30 880 -3 c595 -1 891 1
918 8 70 19 102 59 210 263 56 106 117 218 136 250 18 32 33 60 33 63 0 2
-572 4 -1270 4 l-1271 0 133 -262z m1198 206 c0 -2 -11 -20 -25 -40 -23 -34
-25 -45 -25 -161 0 -137 9 -166 59 -202 19 -14 45 -21 75 -21 38 0 51 5 80 35
43 43 49 71 44 213 -3 96 -6 114 -25 141 -13 17 -23 33 -23 36 0 3 34 5 76 5
l75 0 -28 -37 c-26 -33 -28 -44 -31 -142 -5 -131 7 -179 53 -220 29 -25 45
-31 80 -31 38 0 52 6 83 34 l37 34 3 142 c3 138 3 143 -22 181 l-26 39 75 0
76 0 -28 -37 c-27 -35 -28 -43 -32 -159 -3 -112 -1 -126 19 -162 54 -96 176
-97 225 -2 11 21 15 64 15 158 0 122 -1 130 -25 163 l-26 34 182 3 c100 1 184
1 186 -2 9 -9 -204 -408 -236 -442 -11 -12 -39 -29 -63 -38 -39 -15 -128 -16
-914 -14 l-870 3 -42 27 c-37 25 -53 51 -149 242 -59 118 -105 217 -102 221 4
3 83 4 178 3 l172 -3 -26 -34 c-24 -33 -25 -41 -25 -173 l0 -137 38 -41 c34
-34 45 -40 81 -40 56 0 97 25 121 75 16 34 20 61 19 145 -1 106 -13 155 -46
192 -15 17 -12 18 61 18 l77 0 -26 -37 c-24 -36 -25 -44 -25 -176 l0 -139 39
-39 c34 -34 45 -39 84 -39 37 0 53 6 81 31 44 38 56 80 56 194 -1 93 -15 152
-46 186 -17 19 -16 19 59 19 43 0 77 -2 77 -5 0 -2 -11 -21 -25 -41 -23 -34
-25 -45 -25 -156 0 -133 12 -174 60 -208 38 -27 103 -26 141 1 50 36 59 65 59
202 0 116 -2 127 -25 161 -14 20 -25 39 -25 41 0 6 101 11 123 6 9 -2 17 -5
17 -7z m-791 -25 c49 -17 61 -52 61 -179 0 -146 -17 -179 -93 -180 -27 0 -45
7 -62 25 -24 23 -25 29 -25 158 0 126 1 135 23 154 20 18 41 30 58 32 3 1 20
-4 38 -10z m300 0 c50 -17 61 -51 61 -183 0 -109 -1 -116 -26 -145 -35 -42
-98 -44 -135 -5 -23 24 -24 32 -24 154 0 114 2 130 20 150 17 20 48 37 66 39
3 1 20 -4 38 -10z m339 -25 c20 -23 22 -35 22 -155 0 -125 -1 -131 -25 -154
-18 -19 -35 -25 -65 -25 -30 0 -47 6 -65 25 -24 23 -25 30 -25 152 0 102 3
133 16 151 34 48 102 51 142 6z m300 0 c20 -23 22 -35 22 -155 0 -125 -1 -131
-25 -154 -18 -19 -35 -25 -65 -25 -30 0 -47 6 -65 25 -24 23 -25 30 -25 152 0
102 3 133 16 151 34 48 102 51 142 6z m302 0 c24 -24 25 -29 25 -153 0 -123
-1 -131 -24 -155 -37 -39 -100 -37 -135 5 -25 29 -26 36 -26 144 0 129 10 161
55 181 38 17 73 10 105 -22z m297 4 c22 -20 23 -29 23 -155 0 -129 -1 -135
-25 -158 -17 -18 -35 -25 -62 -25 -42 1 -63 13 -81 47 -17 31 -15 241 2 272
29 53 97 62 143 19z"/>
<path d="M725 1199 c-6 -8 -9 -161 -6 -225 1 -18 32 -26 47 -13 18 15 20 219
2 237 -15 15 -35 15 -43 1z"/>
<path d="M1022 1198 c-19 -19 -16 -212 4 -232 39 -40 54 -9 54 114 0 103 -7
130 -35 130 -6 0 -16 -5 -23 -12z"/>
<path d="M1333 1203 c-9 -3 -13 -37 -13 -118 0 -118 9 -143 44 -129 14 6 16
22 14 128 -3 124 -7 135 -45 119z"/>
<path d="M1627 1203 c-4 -3 -7 -59 -7 -124 0 -99 3 -118 16 -123 35 -14 44 12
44 129 0 94 -3 114 -16 119 -20 8 -29 8 -37 -1z"/>
<path d="M1932 1198 c-8 -8 -12 -49 -12 -118 0 -123 15 -154 54 -114 13 12 16
38 16 118 0 99 -7 126 -35 126 -6 0 -16 -5 -23 -12z"/>
<path d="M2232 1198 c-18 -18 -16 -222 2 -237 15 -13 46 -5 47 13 3 64 0 217
-6 225 -8 14 -28 14 -43 -1z"/>
</g>
</svg>
