<?xml version="1.0" encoding="UTF-8"?>
<svg version="1.1" xmlns="http://www.w3.org/2000/svg" width="512" height="512">
<path d="M0 0 C1.185417 -0.00668677 1.185417 -0.00668677 2.39478183 -0.01350862 C3.68815081 -0.01323207 3.68815081 -0.01323207 5.00764847 -0.01294994 C5.92830447 -0.01662663 6.84896048 -0.02030332 7.79751515 -0.02409142 C10.8896396 -0.03512489 13.98173043 -0.03897152 17.07387161 -0.04278088 C19.28805523 -0.04904572 21.5022378 -0.05569253 23.71641922 -0.0626936 C30.99344018 -0.08373161 38.27046134 -0.09409483 45.54750443 -0.10406017 C48.05225765 -0.10810764 50.55701076 -0.11222456 53.06176376 -0.11641026 C63.47946597 -0.13327756 73.89716662 -0.14791288 84.31488037 -0.155159 C87.01677069 -0.1570688 89.71866101 -0.15898915 92.4205513 -0.16094494 C93.09206975 -0.16142868 93.7635882 -0.16191242 94.45545569 -0.16241082 C105.33301356 -0.17071074 116.21046145 -0.1960486 127.0879713 -0.22852562 C138.26169483 -0.26161449 149.43537858 -0.2792767 160.60915494 -0.28280324 C166.88043389 -0.28515501 173.1515389 -0.2941325 179.42277145 -0.31926441 C185.32267098 -0.34252651 191.22228179 -0.34678568 197.12221527 -0.33650303 C199.28614512 -0.33600713 201.45008909 -0.34234339 203.61397552 -0.35605907 C206.57155491 -0.37375491 209.52809556 -0.36668281 212.48567581 -0.35352612 C213.33899892 -0.36449536 214.19232202 -0.37546461 215.0715034 -0.38676625 C221.88425969 -0.31375655 227.09117008 1.58464259 232.24281693 6.09906483 C232.78164505 6.75004139 233.32047318 7.40101795 233.87562943 8.07172108 C234.4299263 8.72011951 234.98422318 9.36851795 235.55531693 10.03656483 C238.94327433 14.95368139 239.31934197 19.55442956 239.33656693 25.39984608 C239.34322372 26.19267994 239.34988052 26.9855138 239.35673904 27.80237293 C239.36683766 29.47660482 239.37155693 31.15087673 239.37123489 32.82513905 C239.37559204 35.36245119 239.41189418 37.89799936 239.44984818 40.43500233 C239.57196898 56.87546564 234.81718042 64.24302837 223.39341068 75.88124752 C221.61554587 77.67102291 219.83501929 79.4581568 218.05234146 81.24313831 C217.05645117 82.24376974 216.0607669 83.24460626 215.06526917 84.24562824 C212.34730854 86.97738586 209.62628335 89.70607231 206.90467513 92.43419528 C204.56634574 94.77893024 202.22985121 97.12548939 199.89336763 99.47206344 C192.20371011 107.19490642 184.50826978 114.91197307 176.8112016 122.62742931 C174.80622575 124.63720697 172.80134034 126.6470748 170.79647422 128.65696192 C158.33033285 141.15406412 145.86204291 153.64902016 133.38881016 166.13904476 C130.50523654 169.02656741 127.62168996 171.91411707 124.73817825 174.80170155 C124.02155571 175.51933245 123.30493318 176.23696335 122.5665948 176.97634064 C110.95158573 188.60836615 99.34868608 200.25239483 87.75060568 211.90129711 C75.82860833 223.87510344 63.89527832 235.83752243 51.95097417 247.78907764 C45.25059729 254.49411066 38.55532418 261.20407294 31.8728466 267.9269495 C26.18410601 273.65004165 20.48522591 279.3627882 14.7729641 285.06240787 C11.86153654 287.96802215 8.95511233 290.8782041 6.06173706 293.80180454 C3.40780775 296.48322957 0.7401358 299.15016948 -1.93868718 301.80671833 C-3.35220605 303.21552595 -4.75104828 304.63901338 -6.14913577 306.06313622 C-13.70050199 313.50451819 -22.97968899 320.23948819 -33.99874115 320.26844215 C-34.78901915 320.2729 -35.57929716 320.27735784 -36.39352298 320.28195077 C-37.68689196 320.28167423 -37.68689196 320.28167423 -39.00638962 320.2813921 C-39.92704562 320.28506879 -40.84770163 320.28874547 -41.7962563 320.29253358 C-44.88838075 320.30356705 -47.98047158 320.30741368 -51.07261276 320.31122303 C-53.28679638 320.31748787 -55.50097895 320.32413469 -57.71516037 320.33113575 C-64.99218133 320.35217377 -72.26920249 320.36253698 -79.54624557 320.37250233 C-82.0509988 320.37654979 -84.55575191 320.38066671 -87.06050491 320.38485241 C-97.47820712 320.40171972 -107.89590777 320.41635504 -118.31362152 320.42360115 C-121.01551184 320.42551096 -123.71740216 320.4274313 -126.41929245 320.42938709 C-127.0908109 320.42987083 -127.76232935 320.43035457 -128.45419684 320.43085297 C-139.33175471 320.43915289 -150.2092026 320.46449075 -161.08671245 320.49696777 C-172.26043598 320.53005664 -183.43411973 320.54771885 -194.60789609 320.55124539 C-200.87917504 320.55359716 -207.15028005 320.56257465 -213.4215126 320.58770657 C-219.32141213 320.61096867 -225.22102294 320.61522783 -231.12095642 320.60494518 C-233.28488627 320.60444928 -235.44883024 320.61078554 -237.61271667 320.62450123 C-240.57029606 320.64219707 -243.52683671 320.63512496 -246.48441696 320.62196827 C-247.76440162 320.63842214 -247.76440162 320.63842214 -249.07024455 320.65520841 C-255.88300084 320.5821987 -261.08991123 318.68379956 -266.24155807 314.16937733 C-266.7803862 313.51840076 -267.31921432 312.8674242 -267.87437057 312.19672108 C-268.42866745 311.54832264 -268.98296432 310.8999242 -269.55405807 310.23187733 C-272.94201548 305.31476077 -273.31808312 300.71401259 -273.33530807 294.86859608 C-273.34196487 294.07576221 -273.34862167 293.28292835 -273.35548019 292.46606922 C-273.36557881 290.79183733 -273.37029808 289.11756542 -273.36997604 287.44330311 C-273.37433319 284.90599097 -273.41063533 282.37044279 -273.44858932 279.83343983 C-273.54805695 266.4426516 -271.39204964 258.93600722 -261.99937057 249.13422108 C-261.08322097 248.14581644 -260.16844354 247.15613889 -259.25474167 246.16547108 C-256.65266283 243.35745327 -254.00676979 240.59558235 -251.33945847 237.84955311 C-250.23312077 236.70121086 -249.13676908 235.54316768 -248.05039597 234.3759203 C-238.87667448 224.53464369 -238.87667448 224.53464369 -234.16074753 223.52875233 C-231.53062057 223.63422108 -231.53062057 223.63422108 -229.109478 223.95843983 C-226.73759871 224.35548409 -226.73759871 224.35548409 -224.01890182 222.44672108 C-219.69768364 218.38256451 -219.69768364 218.38256451 -217.90952682 213.03656483 C-218.06292526 212.38816639 -218.2163237 211.73976795 -218.37437057 211.07172108 C-218.99937057 207.13422108 -218.99937057 207.13422108 -217.81216687 205.28835785 C-216.93571844 204.35426301 -216.93571844 204.35426301 -216.04156399 203.40129757 C-215.39251579 202.70204041 -214.74346759 202.00278325 -214.07475126 201.28233647 C-213.38987563 200.57345839 -212.70500001 199.86458031 -211.99937057 199.13422108 C-211.37176728 198.47934074 -210.74416398 197.82446041 -210.09754241 197.14973521 C-208.06506443 195.0569014 -206.01045535 192.98806139 -203.94927597 190.9234972 C-203.16771973 190.13685314 -202.3861635 189.35020909 -201.58092374 188.53972733 C-198.97967913 185.92287415 -196.37494206 183.30952716 -193.77012253 180.6962328 C-192.37453743 179.29353514 -190.97895573 177.89083409 -189.58361921 176.48788916 C-183.50246129 170.37359862 -177.41556682 164.26503653 -171.32702735 158.15809745 C-169.74050535 156.56677074 -168.15407217 154.97535553 -166.56765723 153.3839221 C-156.69655942 143.48186414 -146.82330818 133.58195651 -136.94512272 123.6869688 C-134.66312674 121.40102402 -132.38115794 119.1150521 -130.09922409 116.8290453 C-129.53213229 116.26094513 -128.96504049 115.69284497 -128.38076409 115.10752966 C-119.19069441 105.90044568 -110.01274954 96.6813712 -100.83961723 87.45741545 C-91.40366551 77.96961816 -81.95635405 68.49324967 -72.49806756 59.02771676 C-67.19496186 53.71995993 -61.89695916 48.40732083 -56.61179161 43.08169651 C-52.11249791 38.54800072 -47.60303133 34.02473854 -43.08019481 29.51452385 C-40.77631637 27.21644676 -38.4791596 24.91231075 -36.19170761 22.59786701 C-13.87936927 0.03646981 -13.87936927 0.03646981 0 0 Z " fill="#DAD7DA" transform="translate(272.9993705749512,95.86577892303467)"/>
<path d="M0 0 C1.185417 -0.00668677 1.185417 -0.00668677 2.39478183 -0.01350862 C3.68815081 -0.01323207 3.68815081 -0.01323207 5.00764847 -0.01294994 C5.92830447 -0.01662663 6.84896048 -0.02030332 7.79751515 -0.02409142 C10.8896396 -0.03512489 13.98173043 -0.03897152 17.07387161 -0.04278088 C19.28805523 -0.04904572 21.5022378 -0.05569253 23.71641922 -0.0626936 C30.99344018 -0.08373161 38.27046134 -0.09409483 45.54750443 -0.10406017 C48.05225765 -0.10810764 50.55701076 -0.11222456 53.06176376 -0.11641026 C63.47946597 -0.13327756 73.89716662 -0.14791288 84.31488037 -0.155159 C87.01677069 -0.1570688 89.71866101 -0.15898915 92.4205513 -0.16094494 C93.09206975 -0.16142868 93.7635882 -0.16191242 94.45545569 -0.16241082 C105.33301356 -0.17071074 116.21046145 -0.1960486 127.0879713 -0.22852562 C138.26169483 -0.26161449 149.43537858 -0.2792767 160.60915494 -0.28280324 C166.88043389 -0.28515501 173.1515389 -0.2941325 179.42277145 -0.31926441 C185.32267098 -0.34252651 191.22228179 -0.34678568 197.12221527 -0.33650303 C199.28614512 -0.33600713 201.45008909 -0.34234339 203.61397552 -0.35605907 C206.57155491 -0.37375491 209.52809556 -0.36668281 212.48567581 -0.35352612 C213.33899892 -0.36449536 214.19232202 -0.37546461 215.0715034 -0.38676625 C221.88425969 -0.31375655 227.09117008 1.58464259 232.24281693 6.09906483 C232.78164505 6.75004139 233.32047318 7.40101795 233.87562943 8.07172108 C234.4299263 8.72011951 234.98422318 9.36851795 235.55531693 10.03656483 C238.94327433 14.95368139 239.31934197 19.55442956 239.33656693 25.39984608 C239.34322372 26.19267994 239.34988052 26.9855138 239.35673904 27.80237293 C239.36683766 29.47660482 239.37155693 31.15087673 239.37123489 32.82513905 C239.37559204 35.36245119 239.41189418 37.89799936 239.44984818 40.43500233 C239.57196898 56.87546564 234.81718042 64.24302837 223.39341068 75.88124752 C221.61554587 77.67102291 219.83501929 79.4581568 218.05234146 81.24313831 C217.05645117 82.24376974 216.0607669 83.24460626 215.06526917 84.24562824 C212.34730854 86.97738586 209.62628335 89.70607231 206.90467513 92.43419528 C204.56634574 94.77893024 202.22985121 97.12548939 199.89336763 99.47206344 C192.20371011 107.19490642 184.50826978 114.91197307 176.8112016 122.62742931 C174.80622575 124.63720697 172.80134034 126.6470748 170.79647422 128.65696192 C158.33033285 141.15406412 145.86204291 153.64902016 133.38881016 166.13904476 C130.50523654 169.02656741 127.62168996 171.91411707 124.73817825 174.80170155 C124.02155571 175.51933245 123.30493318 176.23696335 122.5665948 176.97634064 C110.95158573 188.60836615 99.34868608 200.25239483 87.75060568 211.90129711 C75.82860833 223.87510344 63.89527832 235.83752243 51.95097417 247.78907764 C45.25059729 254.49411066 38.55532418 261.20407294 31.8728466 267.9269495 C26.18410601 273.65004165 20.48522591 279.3627882 14.7729641 285.06240787 C11.86153654 287.96802215 8.95511233 290.8782041 6.06173706 293.80180454 C3.40780775 296.48322957 0.7401358 299.15016948 -1.93868718 301.80671833 C-3.35220605 303.21552595 -4.75104828 304.63901338 -6.14913577 306.06313622 C-13.70050199 313.50451819 -22.97968899 320.23948819 -33.99874115 320.26844215 C-34.78901915 320.2729 -35.57929716 320.27735784 -36.39352298 320.28195077 C-37.68689196 320.28167423 -37.68689196 320.28167423 -39.00638962 320.2813921 C-39.92704562 320.28506879 -40.84770163 320.28874547 -41.7962563 320.29253358 C-44.88838075 320.30356705 -47.98047158 320.30741368 -51.07261276 320.31122303 C-53.28679638 320.31748787 -55.50097895 320.32413469 -57.71516037 320.33113575 C-64.99218133 320.35217377 -72.26920249 320.36253698 -79.54624557 320.37250233 C-82.0509988 320.37654979 -84.55575191 320.38066671 -87.06050491 320.38485241 C-97.47820712 320.40171972 -107.89590777 320.41635504 -118.31362152 320.42360115 C-121.01551184 320.42551096 -123.71740216 320.4274313 -126.41929245 320.42938709 C-127.0908109 320.42987083 -127.76232935 320.43035457 -128.45419684 320.43085297 C-139.33175471 320.43915289 -150.2092026 320.46449075 -161.08671245 320.49696777 C-172.26043598 320.53005664 -183.43411973 320.54771885 -194.60789609 320.55124539 C-200.87917504 320.55359716 -207.15028005 320.56257465 -213.4215126 320.58770657 C-219.32141213 320.61096867 -225.22102294 320.61522783 -231.12095642 320.60494518 C-233.28488627 320.60444928 -235.44883024 320.61078554 -237.61271667 320.62450123 C-240.57029606 320.64219707 -243.52683671 320.63512496 -246.48441696 320.62196827 C-247.76440162 320.63842214 -247.76440162 320.63842214 -249.07024455 320.65520841 C-255.88300084 320.5821987 -261.08991123 318.68379956 -266.24155807 314.16937733 C-266.7803862 313.51840076 -267.31921432 312.8674242 -267.87437057 312.19672108 C-268.42866745 311.54832264 -268.98296432 310.8999242 -269.55405807 310.23187733 C-272.94201548 305.31476077 -273.31808312 300.71401259 -273.33530807 294.86859608 C-273.34196487 294.07576221 -273.34862167 293.28292835 -273.35548019 292.46606922 C-273.36557881 290.79183733 -273.37029808 289.11756542 -273.36997604 287.44330311 C-273.37433319 284.90599097 -273.41063533 282.37044279 -273.44858932 279.83343983 C-273.54787348 266.46735229 -271.41439611 258.90042874 -261.99937057 249.13422108 C-261.06776481 248.1452178 -260.13682406 247.15558786 -259.20640182 246.16547108 C-256.55943329 243.36327124 -253.87564341 240.5996561 -251.17466354 237.84955311 C-250.05062035 236.69864558 -248.93380742 235.54063527 -247.82407761 234.3759203 C-246.20123695 232.67405601 -244.55660456 230.996242 -242.90562057 229.32172108 C-242.41686447 228.79997303 -241.92810837 228.27822498 -241.42454147 227.74066639 C-238.6690913 225.00079424 -237.19193525 224.15607813 -233.2825737 223.71234608 C-229.99937057 224.13422108 -229.99937057 224.13422108 -227.56187057 225.69672108 C-225.29777099 229.22871643 -225.24062987 230.99563542 -225.99937057 235.13422108 C-229.53569561 240.74782795 -235.09123744 245.2341894 -239.76890182 249.90765858 C-240.3694841 250.50795887 -240.97006638 251.10825916 -241.58884811 251.72675037 C-243.05887918 253.19605045 -244.52910508 254.66515558 -245.99937057 256.13422108 C-214.08475516 262.47423858 -182.08022579 266.47429624 -149.62437057 268.75922108 C-148.41518589 268.84688409 -147.20600121 268.93454711 -145.96017456 269.02486658 C-82.32138486 273.51040977 -31.77510702 265.93124688 16.877491 224.22455311 C41.60253634 202.74544227 64.33798567 179.27315278 86.50062943 155.19672108 C87.62409178 153.97876762 88.74760635 152.76086232 89.8711729 151.54300499 C115.18272756 124.08205149 139.75222622 96.0226422 163.35570717 67.07801723 C164.42727446 65.76502284 164.42727446 65.76502284 165.52048957 64.42550331 C166.84140851 62.80353736 168.158726 61.17862909 169.47174275 59.55025953 C170.04496073 58.84462655 170.61817871 58.13899357 171.20876694 57.41197777 C171.70346371 56.79872943 172.19816049 56.1854811 172.70784807 55.55364949 C174.68991202 53.37741305 175.92879135 53.14202956 178.87562943 52.82172108 C182.00062943 53.13422108 182.00062943 53.13422108 184.37562943 54.69672108 C186.71189475 58.20111906 186.62974914 59.95863698 186.00062943 64.13422108 C183.81558549 67.31121485 181.07939059 69.85673093 178.29396439 72.50771046 C177.46500326 73.32430785 176.63604213 74.14090524 175.78196096 74.98224801 C173.4796405 77.24374542 171.16247455 79.48867482 168.83840251 81.72777212 C166.33463873 84.14780603 163.85130092 86.58862664 161.36594009 89.02753162 C157.05543317 93.25299965 152.73381306 97.46681811 148.40585709 101.67440701 C141.55568759 108.33657747 134.74487292 115.03821844 127.94044876 121.74705982 C125.60968447 124.04419758 123.27873103 126.34114337 120.94776535 128.63807678 C120.36519703 129.21217648 119.78262872 129.78627618 119.18240681 130.37777284 C112.55044875 136.91257832 105.91206001 143.44082837 99.26967239 149.96503162 C98.6625776 150.56134784 98.0554828 151.15766406 97.42999119 151.77205046 C87.61164857 161.41371776 77.75812114 171.01876303 67.8941316 180.61369476 C57.7529771 190.48057398 47.66268726 200.39756631 37.61431932 210.35892266 C31.42339242 216.49265172 25.19539075 222.58297742 18.91225493 228.62224188 C14.59949498 232.77455548 10.33651231 236.97402411 6.10816181 241.21224526 C3.67248285 243.65066572 1.22153331 246.0637391 -1.29216194 248.42187786 C-10.76439614 257.38427312 -17.81721192 264.32135146 -18.25300074 277.8880989 C-18.12588621 283.01560346 -17.73307218 288.05810526 -16.99937057 293.13422108 C13.29515754 262.90832364 43.58180812 232.67455315 73.85787909 202.4301674 C77.43030787 198.86149085 81.00280198 195.2928797 84.57533646 191.72430897 C85.28657815 191.0138542 85.99781985 190.30339944 86.73061432 189.57141574 C98.2549039 178.06018862 109.78448028 166.5542707 121.31601094 155.05029795 C133.1437572 143.25058253 144.96582322 131.44519863 156.78260911 119.63450688 C164.07740365 112.34383359 171.37661986 105.05764528 178.68151142 97.77708849 C183.68681195 92.78761648 188.68659628 87.79266112 193.68203698 82.79331765 C196.56652147 79.90690713 199.45341464 77.02301614 202.34687042 74.1455965 C204.9946121 71.51242265 207.63537119 68.8724519 210.27069522 66.22685196 C211.67986298 64.81581071 213.09644959 63.41219058 214.51326549 62.00882894 C215.76281086 60.75032385 215.76281086 60.75032385 217.03759956 59.46639442 C218.12094167 58.38476106 218.12094167 58.38476106 219.22616947 57.28127652 C222.51704885 53.29938869 223.25259369 49.68502294 223.19594193 44.61468983 C223.18949661 43.5931078 223.1830513 42.57152576 223.17641068 41.5189867 C223.15965286 40.46388905 223.14289505 39.40879139 223.12562943 38.32172108 C223.11209427 36.71007069 223.11209427 36.71007069 223.09828568 35.0658617 C223.07478248 32.42175254 223.04192518 29.77810235 223.00062943 27.13422108 C222.23770584 27.94427601 222.23770584 27.94427601 221.45936966 28.77069569 C219.13498622 31.22017936 216.78711982 33.64583466 214.43812943 36.07172108 C213.63826614 36.9218578 212.83840286 37.77199451 212.0143013 38.64789295 C205.24386395 45.58413693 205.24386395 45.58413693 201.06312943 46.29047108 C198.00062943 46.13422108 198.00062943 46.13422108 195.56312943 44.69672108 C193.84635376 41.88120899 193.31747022 39.72256303 193.38319778 36.42303944 C194.74331227 31.38109664 199.28127266 28.06317762 203.00062943 24.63422108 C203.85914505 23.8117992 204.71766068 22.98937733 205.60219193 22.14203358 C207.71809079 20.12017466 209.85030926 18.11932752 212.00062943 16.13422108 C184.40163877 16.01736337 156.80268525 15.92922076 129.20349693 15.87516022 C116.38839441 15.84939057 103.57344571 15.8142634 90.75844193 15.75702381 C79.5874715 15.7071513 68.41661249 15.67492106 57.24553382 15.6637786 C51.33176941 15.65726646 45.41832372 15.64198626 39.50466156 15.60557079 C33.93472728 15.5715509 28.36524201 15.56118041 22.7952137 15.56868267 C20.75466659 15.56731082 18.71410397 15.5574144 16.67364693 15.5381937 C13.87837967 15.51316165 11.08478772 15.51935251 8.2894783 15.53294849 C7.48983473 15.51838429 6.69019116 15.50382008 5.86631596 15.48881453 C-4.98222176 15.63057007 -12.3040044 21.69174382 -19.59141159 29.13171864 C-20.39483742 29.9315779 -21.19826324 30.73143717 -22.02603531 31.5555346 C-24.69712965 34.22076644 -27.35001877 36.90339014 -30.00327682 39.58636951 C-31.9201846 41.50912536 -33.84088192 43.42807947 -35.76144028 45.347188 C-39.88536289 49.47189685 -44.00012582 53.60556103 -48.10874557 57.74551105 C-54.05068102 63.73264131 -60.00697745 69.70531694 -65.96689248 75.67454329 C-75.63984489 85.36329103 -85.30195491 95.06277503 -94.95689011 104.76947498 C-104.32827746 114.19104668 -113.70351438 123.6087548 -123.08481979 133.02045155 C-123.66352589 133.60103666 -124.24223199 134.18162178 -124.83847463 134.77980039 C-131.15303349 141.11466893 -137.46851607 147.44861613 -143.78442001 153.78214359 C-145.45798518 155.46040847 -147.13154649 157.1386772 -148.80510271 158.81695101 C-149.90800959 159.92295282 -151.01093202 161.02893912 -152.11387026 162.13490966 C-159.13620723 169.17668961 -166.15447482 176.22249149 -173.16843128 183.27261877 C-176.70120763 186.82348865 -180.23564254 190.37270557 -183.77060908 193.92139497 C-186.11753086 196.27763356 -188.46324865 198.63504198 -190.80733681 200.99410152 C-193.34371134 203.54653495 -195.88307892 206.09595268 -198.4231987 208.64465809 C-199.54233076 209.77327531 -199.54233076 209.77327531 -200.68407154 210.92469287 C-201.36114879 211.60286256 -202.03822603 212.28103225 -202.73582077 212.97975254 C-203.32200432 213.56902617 -203.90818787 214.1582998 -204.51213455 214.76543021 C-206.64390081 216.7274202 -207.90743033 217.12196238 -210.81187057 217.50922108 C-213.99937057 217.13422108 -213.99937057 217.13422108 -216.93687057 215.07172108 C-218.99937057 212.13422108 -218.99937057 212.13422108 -219.10054874 208.97051811 C-217.54102047 203.53741576 -214.41450189 200.71744532 -210.44301987 196.81596851 C-209.64208886 196.00567757 -208.84115786 195.19538662 -208.01595622 194.3605414 C-205.32492975 191.64555853 -202.61293288 188.95255479 -199.90049362 186.25897694 C-197.96619561 184.31985073 -196.03638827 182.37627682 -194.10631943 180.43294239 C-189.40204097 175.70197969 -184.68167813 170.98738774 -179.95535734 166.27845614 C-176.11149691 162.44815233 -172.27354056 158.61202462 -168.43971825 154.77167416 C-167.89379689 154.2248334 -167.34787553 153.67799264 -166.78541109 153.11458095 C-165.676302 152.00355345 -164.56720636 150.89251253 -163.45812402 149.78145833 C-153.05483117 139.36105282 -142.63322296 128.95912109 -132.20526759 118.56340409 C-123.27064818 109.65555396 -114.35182432 100.73214271 -105.44443893 91.79706287 C-95.0933984 81.41385427 -84.73261677 71.04052596 -74.3562873 60.68258482 C-73.24784445 59.57605317 -72.13941408 58.46950902 -71.03099632 57.36295223 C-70.48568602 56.81856759 -69.94037572 56.27418294 -69.37854087 55.71330179 C-65.54893318 51.88885979 -61.72630176 48.05753022 -57.90635872 44.22343731 C-53.24266307 39.54284669 -48.56829148 34.87323409 -43.88025524 30.2170183 C-41.49143893 27.84388722 -39.10935686 25.46493665 -36.73670959 23.07557774 C-34.15566588 20.47804164 -31.55668455 17.89983867 -28.95254135 15.32549 C-28.21776981 14.57733412 -27.48299826 13.82917825 -26.72596091 13.05835098 C-19.58200069 6.07116454 -10.29566166 0.02705316 0 0 Z " fill="#010101" transform="translate(272.9993705749512,95.86577892303467)"/>
<path d="M0 0 C74.25 0 148.5 0 225 0 C225 10.56 225 21.12 225 32 C221.73823528 33.63088236 218.13974145 33.14796242 214.55497742 33.14717102 C213.22850959 33.15268605 213.22850959 33.15268605 211.87524444 33.1583125 C208.89428153 33.16937835 205.91335345 33.17319807 202.93237305 33.17700195 C200.80228565 33.18326436 198.67219935 33.18991095 196.54211426 33.19691467 C190.74249896 33.21434388 184.94289192 33.22488142 179.1432569 33.2331202 C175.52265068 33.23826571 171.90204704 33.24434161 168.28144264 33.25063133 C156.9614647 33.26968776 145.6414933 33.28391859 134.32150239 33.2922433 C121.2392888 33.30202191 108.15724414 33.3283559 95.07509011 33.36874419 C84.97314294 33.39886538 74.8712443 33.41370833 64.76925308 33.41702431 C58.73110426 33.41937915 52.69313581 33.428396 46.65503502 33.45348549 C40.97595668 33.47670159 35.2971783 33.48102545 29.61806488 33.47072411 C27.53189155 33.47022708 25.44570378 33.4765964 23.35957527 33.49028015 C20.51467849 33.50789915 17.67086989 33.50094221 14.82597351 33.48774719 C13.99756618 33.49871644 13.16915884 33.50968568 12.31564826 33.52098733 C8.34255329 33.47639948 6.44673119 33.28477889 3.01087666 31.0945158 C-5.25179092 22.488176 0 15.81563522 0 0 Z " fill="#C7C3C7" transform="translate(15,368)"/>
<path d="M0 0 C0.08751413 3.87485635 0.14056435 7.74945643 0.1875 11.625 C0.21263672 12.71941406 0.23777344 13.81382812 0.26367188 14.94140625 C0.27817383 16.53662109 0.27817383 16.53662109 0.29296875 18.1640625 C0.31653442 19.62513428 0.31653442 19.62513428 0.34057617 21.11572266 C-0.31722769 26.68654329 -3.20030106 30.57545214 -7.08328438 34.45522118 C-7.91768897 35.29621561 -8.75209357 36.13721005 -9.61178315 37.00368917 C-10.5284082 37.91225782 -11.44503325 38.82082646 -12.38943481 39.75692749 C-13.37365289 40.74317092 -14.35721287 41.73007145 -15.34017169 42.71756995 C-18.0383257 45.42436267 -20.74573671 48.12172622 -23.45476937 50.81762528 C-26.3763364 53.72828811 -29.28923341 56.64760518 -32.20321655 59.56585693 C-37.91002503 65.27829744 -43.62477091 70.98273336 -49.34219469 76.68454711 C-55.99545218 83.32027264 -62.64065071 89.96404406 -69.28547536 96.60821219 C-81.13623929 108.4572883 -92.99405113 120.29928586 -104.85595703 132.13720703 C-116.37703783 143.63500903 -127.89354395 155.13736627 -139.40478516 166.64501953 C-140.11433653 167.35434814 -140.8238879 168.06367674 -141.55494083 168.79450016 C-142.98425968 170.22337641 -144.41357824 171.65225295 -145.84289651 173.08112977 C-146.54789818 173.78591187 -147.25289986 174.49069398 -147.97926521 175.21683311 C-149.03402757 176.27127149 -149.03402757 176.27127149 -150.11009825 177.34701165 C-161.06834284 188.30156007 -172.03041682 199.25227595 -182.99302242 210.20245992 C-186.97192829 214.17692438 -190.95033115 218.15189155 -194.92838921 222.12720458 C-201.23449478 228.42888674 -207.54225399 234.72890365 -213.85344853 241.02548949 C-216.7388104 243.9042246 -219.6233784 246.78374328 -222.50582123 249.66540146 C-225.13983341 252.29863106 -227.7761231 254.92955703 -230.41432653 257.55858727 C-231.82978251 258.97031591 -233.24277487 260.3845133 -234.65570366 261.79877126 C-235.48489276 262.62411922 -236.31408186 263.44946717 -237.1683979 264.29982567 C-237.88937947 265.01956074 -238.61036104 265.73929581 -239.35319054 266.48084104 C-241 268 -241 268 -242 268 C-243.51097819 257.08646106 -245.19018882 244.85884743 -238.75688171 235.28635406 C-234.53954688 230.04231096 -229.74468575 225.39928107 -224.83777308 220.80661464 C-222.29719841 218.3989864 -219.83686258 215.91141086 -217.36531067 213.43333435 C-213.08771527 209.16538512 -208.76450825 204.9488913 -204.40522766 200.76447296 C-198.09967282 194.71109407 -191.8749565 188.57948671 -185.66685194 182.42639062 C-175.5850042 172.43743762 -165.44705075 162.50759326 -155.26904297 152.61669922 C-145.40034804 143.02605182 -135.55051243 133.41685156 -125.73095703 123.77587891 C-125.12459693 123.18057016 -124.51823683 122.58526141 -123.89350218 121.97191301 C-117.27472768 115.4726512 -110.66151423 108.96775797 -104.05286407 102.45820236 C-103.47232416 101.88640782 -102.89178424 101.31461328 -102.29365221 100.72549163 C-98.81310102 97.29732713 -98.81310102 97.29732713 -95.33314806 93.8685554 C-88.54727088 87.18178749 -81.74491554 80.5128227 -74.9116255 73.87449649 C-70.63362298 69.71820472 -66.36642345 65.55105841 -62.10753238 61.3751857 C-59.64981536 58.96665298 -57.18636974 56.56474401 -54.70720863 54.17827415 C-52.02429923 51.5903011 -49.36337292 48.98158279 -46.70666504 46.36676025 C-45.91680254 45.61570487 -45.12694003 44.86464949 -44.3131423 44.09083486 C-40.03514757 39.85549352 -40.03514757 39.85549352 -38.39333344 34.16457748 C-38.81524754 30.85666097 -38.81524754 30.85666097 -41 28 C-40.319375 27.67 -39.63875 27.34 -38.9375 27 C-34.91125248 24.25872509 -32.08175948 20.73896467 -29 17 C-28.01 17.66 -27.02 18.32 -26 19 C-21.88923432 19.25368705 -20.00856521 18.80143734 -16.76269531 16.22216797 C-14.30450285 13.85954349 -11.95428066 11.42722543 -9.625 8.9375 C-8.01472042 7.2574839 -6.40283353 5.57900636 -4.7890625 3.90234375 C-4.08475098 3.15460693 -3.38043945 2.40687012 -2.65478516 1.63647461 C-1 0 -1 0 0 0 Z " fill="#B5AFB5" transform="translate(497,122)"/>
</svg>
