<?xml version="1.0" encoding="UTF-8"?>
<svg version="1.1" xmlns="http://www.w3.org/2000/svg" width="512" height="512">
<path d="M0 0 C2.5 1.5 2.5 1.5 4 4 C4.4530254 7.17117779 4.70763977 8.99404305 4 12 C1.75 14.5 1.75 14.5 -1 17 C-5.56640072 23.20038436 -5.85830448 29.52924774 -5 37 C-3.02315698 47.27292018 0.63145418 56.54937921 5 66 C8.06005368 66 9.49467342 64.17881403 11.875 62.3125 C22.72309077 54.25146813 33.60514649 50.95585774 47 52 C66.98497193 56.13654032 80.79838458 72.63425381 94.625 86.421875 C95.65164764 87.44428158 95.65164764 87.44428158 96.69903564 88.48734283 C100.31832229 92.09173921 103.93480138 95.69892368 107.54882812 99.30859375 C111.24671068 103.00099345 114.95378669 106.68401535 118.66311646 110.36491013 C121.54756056 113.23058172 124.42513033 116.10308439 127.30096436 118.9773941 C128.66338418 120.33682194 130.02826227 121.6937914 131.39581299 123.04805756 C138.8926943 130.47725788 145.77704339 137.87708075 151.86813354 146.51524353 C154.11650022 149.13578462 155.3773637 149.94517816 158.6953125 150.70703125 C160.91650237 150.88454716 160.91650237 150.88454716 163.125 150.8125 C163.89070313 150.84923828 164.65640625 150.88597656 165.4453125 150.92382812 C167.29527945 151.00476418 169.14829457 151.01074075 171 151 C171.15855469 150.23816406 171.31710937 149.47632813 171.48046875 148.69140625 C174.63060671 134.75074049 181.40012711 124.14984388 193.4375 116.0625 C205.71245004 108.91335327 219.96044426 107.7769997 233.79296875 110.984375 C239.65107647 112.55721607 245.28779277 114.45078301 250.625 117.375 C255.23549682 119.59486884 258.17536825 118.77812082 262.9453125 117.46411133 C274.90427439 114.76282966 288.41476766 116.55136374 298.890625 122.6953125 C309.77257197 130.0391401 316.57163053 139.28652213 319.75 152 C321.12321538 168.47858453 316.82244115 183.1323089 307.74609375 196.90234375 C306.47191171 200.48472991 306.97979091 204.17864841 307.125 207.9375 C307.34973463 220.65675504 304.15054055 230.44103512 297 241 C297.4846875 241.40089844 297.969375 241.80179688 298.46875 242.21484375 C305.58162062 248.24710518 312.26053436 254.90341286 317 263 C317 263.66 317 264.32 317 265 C317.58265625 265.01417969 318.1653125 265.02835937 318.765625 265.04296875 C331.78290921 265.80026359 341.3433059 271.39078939 350 281 C356.55881156 289.75400563 359.58443444 298.92256805 359.5 309.8125 C359.49355469 310.6876123 359.48710938 311.56272461 359.48046875 312.46435547 C359.10625763 325.78085517 352.99256181 334.81175082 343.90625 344.15234375 C338.86739711 348.90821758 330.22412981 357 323 357 C322.86464844 357.60585938 322.72929687 358.21171875 322.58984375 358.8359375 C319.91122551 369.26169711 313.92955284 377.90759606 305 384 C289.83861522 392.85458285 271.47327066 395.30715413 254.3125 391.875 C243.00820911 388.88635027 233.34357067 383.21217586 225 375 C225 374.34 225 373.68 225 373 C224.55011719 373.40089844 224.10023438 373.80179687 223.63671875 374.21484375 C221.4374092 376.15852213 219.2212802 378.08146164 217 380 C216.15566406 380.73347656 215.31132812 381.46695312 214.44140625 382.22265625 C199.88190193 394.54223683 185.29912556 401.38995267 166.10351562 400.20214844 C161.70199901 399.77916146 157.43096546 398.82713057 153.1484375 397.75390625 C140.7483674 395.17766938 127.94152723 396.03910194 115.39175415 396.66534424 C112.34313968 396.81720023 109.29414235 396.95717362 106.24487305 397.09521484 C97.12414466 397.51515285 88.00888577 397.97770353 78.8984375 398.58203125 C76.75319026 398.71974985 74.60784605 398.85567103 72.46237183 398.98980713 C71.02628381 399.08011431 69.59034692 399.1728569 68.15457153 399.26800537 C57.23077206 399.96854108 46.36037069 400.00073375 35.42133904 399.78162384 C33.15615561 399.73820457 30.89097222 399.70192153 28.62562561 399.66815186 C27.49554345 399.65108185 27.49554345 399.65108185 26.34263134 399.63366699 C24.81240292 399.61059392 23.28217075 399.58776768 21.75193501 399.56518555 C17.95481359 399.5046246 14.16087757 399.42011388 10.3656311 399.28497314 C-7.42144469 397.72893061 -7.42144469 397.72893061 -23.26071167 403.75233459 C-25.47293535 405.98873347 -27.25297597 408.38914214 -29 411 C-30.31962636 412.53274201 -31.65014586 414.0563109 -33 415.5625 C-33.495 416.18253906 -33.99 416.80257813 -34.5 417.44140625 C-36.21822429 419.22674868 -37.69561778 420.10435144 -40 421 C-43.5012527 420.85411447 -45.47615008 420.35842363 -48.375 418.375 C-50.76444559 414.88273336 -50.75289583 413.17514962 -50 409 C-47.3422905 404.03346951 -43.25760769 400.20545034 -39.18359375 396.39453125 C-31.27472467 388.94910126 -25.73050628 383.22681166 -22.265625 372.77734375 C-15.32608021 352.06580111 -1.307658 332.59971577 13.50390625 316.8046875 C15.21281979 314.96489717 15.21281979 314.96489717 16 312 C15.16340347 311.98786972 15.16340347 311.98786972 14.30990601 311.97549438 C8.4358879 311.88855757 2.56217337 311.78903106 -3.31152344 311.68261719 C-5.4953903 311.64464249 -7.67931304 311.60973853 -9.86328125 311.578125 C-53.57214632 310.93770207 -53.57214632 310.93770207 -69.25 294.9375 C-76.67562611 286.10662592 -78.77231986 275.19570995 -80 264 C-89.40795174 269.5070937 -94.25080951 277.18157045 -97.80078125 287.27734375 C-99.76300236 292.84200158 -99.76300236 292.84200158 -103 295 C-109.81918819 295.64944649 -109.81918819 295.64944649 -113.5 293.625 C-116.31484816 288.69901571 -115.61733139 283.67767489 -114.375 278.2890625 C-111.99020101 270.85785849 -107.82985537 265.06076511 -103 259 C-114.80313141 261.63686978 -123.99703597 268.1208186 -131 278 C-132.45764776 280.76345721 -133.72212679 283.52684015 -134.89453125 286.421875 C-137.95266211 293.55391164 -137.95266211 293.55391164 -142.375 295.4375 C-146.19240147 296.0298554 -147.69844601 295.88660228 -151 294 C-153.42901902 291.57098098 -153.32209476 290.84361143 -153.375 287.5 C-153.0379815 274.44989469 -144.29739207 263.55258828 -135.19921875 254.84765625 C-128.81427161 249.48339338 -121.92609365 245.54233192 -114 243 C-114.66386719 242.48050781 -115.32773438 241.96101562 -116.01171875 241.42578125 C-125.71665898 233.76100364 -135.54497779 225.72519846 -138 213 C-138.63211851 206.69637376 -138.70047603 201.40838804 -135 196 C-131.79729456 194.39864728 -128.47536616 194.51138416 -125 195 C-121.99660807 197.00226129 -121.18536657 198.25853373 -120.3125 201.75 C-120.084624 204.1199104 -119.92756735 206.49694149 -119.8125 208.875 C-119.02521445 214.95330755 -115.42034044 218.93937988 -110.87109375 222.8125 C-101.81936249 229.49318469 -91.52927727 234.17536099 -81 238 C-80.78085938 236.76765625 -80.56171875 235.5353125 -80.3359375 234.265625 C-77.62149633 219.77394069 -74.06987023 207.51137023 -62 198 C-49.25443579 189.77106777 -34.6957211 188.89153209 -19.96875 188.68359375 C-18.73709106 188.66281265 -17.50543213 188.64203156 -16.2364502 188.62062073 C-12.32435374 188.55553812 -8.41219344 188.49643307 -4.5 188.4375 C-1.83852655 188.39476101 0.82292217 188.35065998 3.484375 188.30664062 C9.98951698 188.19989931 16.49472165 188.09805821 23 188 C22.56453354 187.57119537 22.12906708 187.14239075 21.68040466 186.70059204 C17.11219032 182.19921873 12.55494543 177.68694697 8.00366211 173.16845703 C6.30815855 171.48795507 4.60996149 169.81016581 2.90893555 168.13525391 C0.45152383 165.71460605 -1.99574176 163.2840718 -4.44140625 160.8515625 C-5.19273331 160.1157193 -5.94406036 159.3798761 -6.71815491 158.62173462 C-13.3410382 152.00093499 -19.17994167 144.73951628 -22.875 136.0625 C-23.26429688 135.16660156 -23.65359375 134.27070313 -24.0546875 133.34765625 C-27.74525224 124.18224546 -27.31951909 112.31927975 -24 103.0625 C-21.21433047 96.75259725 -17.31896415 91.34779928 -13 86 C-18.34144803 83.32927598 -27.43730162 84.31292331 -33.07421875 85.82421875 C-36.1753234 87.07115022 -39.0920593 88.50124727 -42.01953125 90.109375 C-45.32113892 91.59412164 -48.45826314 91.56609728 -52 91 C-54.5 89.5 -54.5 89.5 -56 87 C-56.67430306 82.2798786 -56.8567119 80.22795373 -54.125 76.3125 C-45.05004813 69.59703562 -35.93299193 67.66843425 -25 66 C-36.6312766 59.63800737 -47.62214595 56.89566127 -60.75 60.3125 C-63.89333204 61.2456767 -66.8023991 62.32225581 -69.75 63.75 C-73.72713493 65.27966728 -75.92026957 65.15464069 -80 64 C-82.4375 62.375 -82.4375 62.375 -84 60 C-84.67357707 55.88369569 -84.57853419 53.86780128 -82.25 50.375 C-72.2105177 41.75754068 -56.69121968 40.05284133 -44.046875 40.78710938 C-36.19974358 41.60327094 -28.2354442 43.92285706 -21 47 C-21.32226562 46.03707031 -21.64453125 45.07414062 -21.9765625 44.08203125 C-24.65436494 34.65284904 -24.64141024 21.914573 -20.26953125 13.078125 C-15.00699894 4.46376442 -10.7755178 -1.19727976 0 0 Z M17 80 C16.04996094 80.80566406 15.09992188 81.61132812 14.12109375 82.44140625 C6.68729043 88.89009315 0.60050172 95.91625695 -5 104 C-5.49757812 104.70769531 -5.99515625 105.41539062 -6.5078125 106.14453125 C-10.00957472 111.96039508 -9.96933292 118.42838076 -9 125 C-5.91457941 134.85585769 0.87191 141.86636429 8 149 C8.77859375 149.78552246 9.5571875 150.57104492 10.359375 151.38037109 C15.87939926 156.94744102 21.42832063 162.48465275 27 168 C28.87306829 165.57987368 30.52355315 163.2051217 31.9453125 160.49609375 C36.5518698 151.90425477 41.39948667 144.25226958 48 137 C48.64582031 136.27296875 49.29164063 135.5459375 49.95703125 134.796875 C56.67881958 127.62331678 65.02409387 121.04582827 75.02734375 120.671875 C77.63043425 121.10486431 78.44505257 121.89072086 80 124 C80.93770423 127.1557354 80.92963361 129.84142029 80 133 C77.36208403 135.60153092 74.21383427 137.19496979 71 139 C58.9681896 147.08290852 51.60993523 158.40398859 45 171 C44.27876953 172.36125 44.27876953 172.36125 43.54296875 173.75 C41.99666526 176.78023593 41.99666526 176.78023593 41 180 C42.37701791 183.57235343 44.59910146 185.84380428 47.2890625 188.51953125 C48.14886719 189.37740234 49.00867188 190.23527344 49.89453125 191.11914062 C50.79558594 192.00794922 51.69664062 192.89675781 52.625 193.8125 C53.50285156 194.68970703 54.38070312 195.56691406 55.28515625 196.47070312 C64.24638474 205.92560496 64.24638474 205.92560496 75 213 C75.53367187 212.55269531 76.06734375 212.10539063 76.6171875 211.64453125 C84.28590561 205.42199008 91.13225972 201.40415818 100.9375 199.75 C105.2364047 198.99677735 105.2364047 198.99677735 108.31640625 196.23828125 C109.0686688 193.843937 109.51900415 191.46284343 110 189 C112.74296894 181.32172635 116.13515443 174.53877093 121 168 C122.11375 166.453125 122.11375 166.453125 123.25 164.875 C127.0480235 160.90433907 131.420601 158.00550847 136 155 C133.72017281 150.8391065 130.88856631 147.47400183 127.65234375 144.04223633 C127.12559555 143.47810185 126.59884735 142.91396738 126.05613708 142.33273792 C120.00533239 135.8851956 113.79649373 129.59396668 107.5625 123.32421875 C106.94859406 122.70623728 106.33468811 122.08825581 105.70217896 121.45154762 C102.46221691 118.19096921 99.21916345 114.93350189 95.97363281 111.6784668 C92.65724812 108.35096562 89.35273583 105.011922 86.0506134 101.67027569 C83.47314854 99.06650335 80.88668109 96.47181159 78.29782104 93.87937355 C77.07621773 92.65295443 75.8579412 91.42321078 74.64334106 90.18985558 C60.0904831 74.94040548 60.0904831 74.94040548 40.75 68.625 C31.17813384 68.89802303 23.98878064 73.91738217 17 80 Z M194.75390625 137.7265625 C189.12103027 145.02797412 187.36532692 152.59067531 186.80712891 161.60546875 C186.56192369 164.75523423 186.36495837 166.59599587 184.2109375 168.98046875 C181.68005413 170.14753688 180.42261481 170.22543918 177.6875 169.8125 C176.96949219 169.71582031 176.25148438 169.61914062 175.51171875 169.51953125 C173 169 173 169 169.671875 167.96875 C162.1357923 165.9805069 152.15089085 165.39029817 144.89453125 168.7734375 C135.77259266 174.67918743 129.60785362 182.29409068 125.6875 192.375 C124.87535039 196.65724337 124.56710614 200.88060786 124.34375 205.23046875 C124.00280058 207.97743622 123.48994716 209.68526067 122 212 C119.49051219 213.25474391 117.1520088 213.27307792 114.38891602 213.49243164 C100.32955147 214.70384459 90.90550409 219.94326684 81 230 C80.53094238 230.47324707 80.06188477 230.94649414 79.57861328 231.43408203 C63.58581476 247.7116188 48.58162704 268.29222825 41 290 C41.33 290.66 41.66 291.32 42 292 C42.7528125 291.45472656 43.505625 290.90945313 44.28125 290.34765625 C51.73638725 285.05487071 59.36330364 280.35547322 67.37109375 275.9453125 C67.98525146 275.60113281 68.59940918 275.25695312 69.23217773 274.90234375 C71 274 71 274 74.1875 272.9453125 C78.80666831 269.75038775 79.80752603 264.92638624 81.5625 259.75 C81.94889648 258.67274658 82.33529297 257.59549316 82.73339844 256.4855957 C84.41977173 251.74665983 86.02569993 246.98911183 87.51171875 242.18359375 C87.72691162 241.49620117 87.94210449 240.80880859 88.16381836 240.10058594 C88.71020012 238.3173925 89.22362005 236.52419148 89.734375 234.73046875 C91.28842836 231.37774252 92.63277711 230.43729122 96 229 C99.6875 229.125 99.6875 229.125 103 230 C105.50648923 233.75973384 105.50453229 236.65087528 105 241 C104.18367419 244.18441835 103.08745517 247.23490379 101.9375 250.3125 C101.35510064 251.8889289 100.78050232 253.46826823 100.21484375 255.05078125 C99.95823975 255.73825439 99.70163574 256.42572754 99.43725586 257.1340332 C98.77874435 259.21011832 98.77874435 259.21011832 100 262 C107.63447793 260.5868094 112.17173702 257.64200529 117.6875 252.23828125 C119.62265284 250.36523635 121.49853178 248.91411828 123.6875 247.375 C130.37876581 241.74609156 134.04332077 230.29259293 136 222 C136.34844072 218.40258513 136.34844072 218.40258513 136.3125 214.8125 C136.33763672 213.02779297 136.33763672 213.02779297 136.36328125 211.20703125 C135.96873152 207.72396319 135.19770178 206.61332932 133 204 C132.51052709 200.08421671 132.41120253 197.91852406 134.5625 194.5625 C137.98314143 192.36978113 140.00951279 192.36992307 144 193 C148.19241383 196.14431037 150.80462844 199.90922184 152 205 C152.53122744 209.99766395 152.8125995 214.97895909 153 220 C173.06962209 206.87404079 189.69865607 189.17120521 196.48828125 165.5234375 C197.23909529 161.82094993 197.4108442 158.76607184 197 155 C196.01 153.515 196.01 153.515 195 152 C194.5483871 145.67741935 194.5483871 145.67741935 197 142 C205.82711864 140.29152542 205.82711864 140.29152542 209 142 C210.125 144.1875 210.125 144.1875 211 147 C211.37125 147.886875 211.7425 148.77375 212.125 149.6875 C214.96315766 160.43195401 211.4108275 170.76751749 208 181 C211.18507084 179.81938311 214.20737872 178.42213388 217.23828125 176.8984375 C226.91208901 172.0605699 236.64346755 167.77854977 246.875 164.25 C247.87829346 163.89083496 248.88158691 163.53166992 249.9152832 163.16162109 C255.70063449 161.24245851 259.38216222 160.33339967 265 163 C267.34549674 166.51824511 267.57991403 167.85775694 267 172 C262.8654792 177.49238448 257.66587636 178.78698062 251.25 180.6875 C249.33652909 181.26814821 247.42494392 181.85506006 245.515625 182.44921875 C244.67290039 182.70018311 243.83017578 182.95114746 242.96191406 183.2097168 C240.81196378 183.82394611 240.81196378 183.82394611 240 186 C241.14275391 186.23783203 241.14275391 186.23783203 242.30859375 186.48046875 C253.30634576 188.96560372 261.42159647 192.52485628 268 202 C269.8704347 206.06616239 270.4849869 209.53812054 270 214 C268.875 216.3125 268.875 216.3125 267 218 C263.60501058 219.10706177 261.74778178 219.26706492 258.375 218.0625 C255.99725502 215.9976162 255.32591556 214.84929316 254.0625 212.0625 C252.13299775 207.88956855 250.2194051 206.06989684 246 204 C235.51054715 200.37144176 224.90862011 201.8221242 214.25 203.8125 C213.36280273 203.97766113 212.47560547 204.14282227 211.56152344 204.31298828 C202.96029028 206.02454029 195.93213853 208.512057 189 214 C189 214.33 189 214.66 189 215 C190.31871094 215.02578125 191.63742187 215.0515625 192.99609375 215.078125 C221.17923583 215.87702967 221.17923583 215.87702967 231 222 C232.59633757 225.19267515 232.36932376 228.52693615 232 232 C231 234 231 234 229 235 C224.15284755 235.52878027 220.57011895 234.91814866 215.9375 233.5 C200.72077535 229.47430956 183.82337089 231.18074265 169 236 C168.34032227 236.20898926 167.68064453 236.41797852 167.00097656 236.63330078 C157.57555934 239.71584169 150.21776221 244.16735075 143 251 C142.24074219 251.70898438 141.48148437 252.41796875 140.69921875 253.1484375 C138.77461772 254.82674041 138.77461772 254.82674041 139 257 C142.96 257.99 146.92 258.98 151 260 C152.258125 258.494375 153.51625 256.98875 154.8125 255.4375 C165.45656474 243.64227465 179.28056328 237.89530198 195 237 C206.81559006 237.17186313 218.8553563 242.5772485 228 250 C228.37769531 249.57589844 228.75539063 249.15179688 229.14453125 248.71484375 C238.55336079 238.68904178 250.00155098 232.71417493 263.828125 231.7265625 C272.46174328 231.63625269 272.46174328 231.63625269 276.7421875 232.6484375 C277.48726562 232.76445312 278.23234375 232.88046875 279 233 C284.91099183 228.24237243 288.44472935 222.38753559 290 215 C290.3680142 209.84780122 289.43168961 205.92143304 288 201 C287.37589928 195.60115283 289.13222384 192.67301869 292.1875 188.4375 C299.76309956 177.20142791 303.6866873 166.79582913 302 153 C300.13447044 146.03169842 294.96998742 140.4351224 288.8984375 136.7109375 C280.55144685 132.61117884 273.00123674 132.18362617 264.2265625 135.11328125 C262.00364268 135.93652863 262.00364268 135.93652863 260.0859375 137.10546875 C256.65317524 138.57757092 253.67932118 138.64946864 250.16552734 137.29052734 C248.13899059 136.3112647 246.16399519 135.26405109 244.1875 134.1875 C242.75571642 133.44830613 241.32213503 132.71258344 239.88671875 131.98046875 C239.20786621 131.63290527 238.52901367 131.2853418 237.82958984 130.92724609 C222.84660582 123.33378822 206.29370226 125.18431956 194.75390625 137.7265625 Z M-56.375 216 C-62.34330428 223.77739367 -63.68602271 234.47147192 -64 244 C-64.03996094 244.92039062 -64.07992187 245.84078125 -64.12109375 246.7890625 C-64.4417874 260.78639721 -63.63711058 275.75442058 -53.6875 286.5 C-44.04490959 295.07119147 -30.45813812 294.27729639 -18.375 294.125 C-16.97526686 294.11494398 -15.57552669 294.10582279 -14.17578125 294.09765625 C-10.78367075 294.07426238 -7.3919294 294.04148173 -4 294 C-4.33773437 292.8140625 -4.67546875 291.628125 -5.0234375 290.40625 C-10.34739341 271.28334787 -15.34186976 248.80236645 -6 230 C-3.72682554 228.30115199 -2.47278062 227.9953035 0.359375 228.0234375 C1.14828125 228.13945312 1.9371875 228.25546875 2.75 228.375 C3.54921875 228.48585938 4.3484375 228.59671875 5.171875 228.7109375 C5.77515625 228.80632812 6.3784375 228.90171875 7 229 C8.01446595 235.0456687 7.77874188 239.07086041 6 245 C3.3777196 262.06866148 7.37838504 279.24300886 14 295 C16.64 295 19.28 295 22 295 C22.29390625 294.11183594 22.5878125 293.22367187 22.890625 292.30859375 C31.48656324 267.44343187 45.66166705 246.3479697 62 226 C60.9495752 225.00214478 60.9495752 225.00214478 59.87792969 223.98413086 C57.75308121 221.88532264 56.02583014 219.69200135 54.28613281 217.26782227 C49.10179561 210.68828042 43.83514952 206.02008551 35.25595856 204.93344688 C25.93370512 204.12209735 16.5607279 204.49413264 7.22436523 204.85345459 C3.92306509 204.96558805 0.62228734 205.01385704 -2.68051529 205.05855465 C-31.57715567 203.9494537 -31.57715567 203.9494537 -56.375 216 Z M244 258 C242.05361065 260.51033315 240.26770638 263.06347541 238.54296875 265.73046875 C236.54031184 268.67614891 235.04550535 270.60440338 231.6875 271.875 C227.90679432 272.05084678 226.16862699 271.06930742 223 269 C222.0524954 267.92217959 221.13761838 266.8151504 220.25 265.6875 C214.23101999 258.29275313 205.28970369 254.42077821 196 253 C186.2996241 252.61198496 177.39312132 256.97123093 170.0390625 263 C167.29650117 265.69002185 165.27806817 268.61241994 163.2890625 271.88671875 C159.71041677 277.75352888 159.71041677 277.75352888 155.9375 279.0625 C151.93403484 278.99895293 150.74701068 278.54073514 147.375 276.6875 C136.48830285 270.7912253 125.23974972 271.36657647 113.62207031 274.67773438 C101.94740489 278.18234093 90.85894325 282.46876319 80 288 C79.38463379 288.30518555 78.76926758 288.61037109 78.13525391 288.92480469 C68.40795559 293.75715623 59.63294204 299.42086272 51 306 C50.113125 306.66128906 49.22625 307.32257813 48.3125 308.00390625 C29.76318971 322.45314033 15.32187751 340.14808624 3 360 C3.66 360.33 4.32 360.66 5 361 C6.91759831 360.1307579 6.91759831 360.1307579 9.0078125 358.75390625 C9.8220166 358.24996338 10.6362207 357.74602051 11.47509766 357.22680664 C12.78679932 356.40297485 12.78679932 356.40297485 14.125 355.5625 C23.62006275 349.72430799 33.30317585 344.65167925 43.36401367 339.87841797 C49.27452426 337.01468578 54.67992452 333.75621877 60.0625 330 C60.87541504 329.43748535 61.68833008 328.8749707 62.52587891 328.29541016 C77.47827843 317.86208696 91.69278909 306.57089423 105.1875 294.3125 C106.78907967 292.87211828 108.39324319 291.4346043 110 290 C110.8559375 289.22914063 111.711875 288.45828125 112.59375 287.6640625 C118.95664365 282.20193994 118.95664365 282.20193994 123.875 281.25 C127.554518 282.13308432 128.91895319 282.83680884 131 286 C131.6875 288.75 131.6875 288.75 131 292 C124.3847202 302.43638004 112.02249728 311.9842519 102 319 C105.36181064 320.68090532 108.86842388 319.02897694 112.375 318.15625 C113.21409912 317.94947632 114.05319824 317.74270264 114.91772461 317.52966309 C116.7008786 317.0863133 118.48300155 316.6387995 120.26416016 316.1875 C122.95671319 315.51087771 125.655358 314.86443942 128.35546875 314.21875 C137.77797867 311.88815151 145.56866763 309.56604025 153 303 C153.97453125 302.22914063 154.9490625 301.45828125 155.953125 300.6640625 C162.95257279 294.45026701 169.01722468 288.92483646 169.625 279.1875 C169.66496094 278.26710938 169.70492187 277.34671875 169.74609375 276.3984375 C170 274 170 274 171.6875 271.3125 C174.80428257 269.5435153 176.46742951 269.35116052 180 270 C182.875 271.6875 182.875 271.6875 185 275 C186.26432306 283.19061461 185.02181875 289.85173092 181 297 C180.32870775 298.33101049 179.6607077 299.66370379 179 301 C203.81685756 299.47523545 227.14340364 291.1309264 244.58203125 272.69140625 C247.98489265 268.63234568 248.53024409 265.46463797 249.2421875 260.375 C250.19956503 257.37455908 251.26423825 256.49945563 254 255 C257.35942381 255.11787452 259.90205963 255.21284553 262.68359375 257.20703125 C265.54805972 261.1084849 264.58608359 266.42854803 264 271 C260.93376511 280.52576973 253.90097297 287.1067984 247 294 C247.93046143 294.06993164 248.86092285 294.13986328 249.81958008 294.21191406 C281.12077046 296.61865619 281.12077046 296.61865619 292.375 298.9375 C293.48452026 299.1555127 293.48452026 299.1555127 294.61645508 299.37792969 C298.82124788 300.33377109 301.37417695 301.53838866 304 305 C304.76876191 309.01464553 304.32068052 310.51380695 302.0625 313.9375 C298.32027187 316.45777609 296.8249224 316.2760508 292.53515625 315.53125 C291.69855469 315.3559375 290.86195313 315.180625 290 315 C288.10479007 314.64251241 286.2089396 314.28840583 284.3125 313.9375 C283.3946875 313.76347656 282.476875 313.58945312 281.53125 313.41015625 C278.65770538 312.94453559 275.90601607 312.84291805 273 313 C273.845625 313.94875 274.69125 314.8975 275.5625 315.875 C282.52187082 324.05763315 287.34084427 330.61745586 288.3125 341.5 C287.9219721 345.87391246 286.79687131 348.99159476 285 353 C281.90826248 354.54586876 279.40570448 354.29359521 276 354 C273.5625 352.625 273.5625 352.625 272 350 C271.90234375 347.7890625 271.90234375 347.7890625 272 345.25 C272.18157764 339.87372296 271.30646448 336.2921314 268 332 C256.72194905 320.76963637 236.83906745 312.93454945 220.875 312.8125 C220.02679688 312.79832031 219.17859375 312.78414063 218.3046875 312.76953125 C215.72325376 312.84566317 215.72325376 312.84566317 213 315 C214.43279297 315.70962891 214.43279297 315.70962891 215.89453125 316.43359375 C224.45671935 320.77413972 231.84151815 325.51752993 239 332 C239.65097656 332.55816406 240.30195313 333.11632812 240.97265625 333.69140625 C243.529693 336.00664284 244.92268959 337.76323685 246 341.0625 C246 344.25698108 245.51944441 346.20102345 244 349 C240.84203893 350.57898053 237.39329364 350.81928171 234 350 C232.27238706 348.39659453 230.61270704 346.71893326 229 345 C211.70301409 330.20120325 190.87032891 321.36535078 167.85546875 321.671875 C160.76067278 322.27568742 153.77581577 323.81836249 147 326 C146.67 326.66 146.34 327.32 146 328 C146.76183594 328.40089844 147.52367187 328.80179687 148.30859375 329.21484375 C158.98880616 335.0949607 168.11898825 342.50004049 173 354 C173.73663759 357.62180151 173.69392949 360.61214101 172 364 C168.73301237 365.63349382 165.51911614 365.61638287 162 365 C159.54554276 363.33963187 158.32008228 361.53769598 156.81640625 359.01171875 C150.22671359 348.20312938 140.05756098 342.31516089 128 339 C91.78027502 331.28670849 49.69254835 353.27905746 19.5 371.8125 C18.62118164 372.35173096 17.74236328 372.89096191 16.83691406 373.4465332 C12.36049981 376.27081219 8.5492467 379.06528183 5 383 C9.12513793 383.99381908 13.09279045 384.15383517 17.3125 384.125 C18.09061035 384.12089111 18.8687207 384.11678223 19.67041016 384.11254883 C39.47959981 383.93792754 59.22110559 383.08152453 78.98950195 381.85522461 C96.71842355 380.75588476 114.42012425 379.6971323 132.1875 379.625 C132.88669556 379.61741669 133.58589111 379.60983337 134.30627441 379.60202026 C145.53075351 379.50155611 156.40952374 380.82192637 167.28979492 383.58056641 C176.61240369 385.86696782 186.21079663 381.4530515 194.1484375 376.9140625 C202.69181568 371.17946619 209.73436901 363.4601641 216.5234375 355.79638672 C219.2704392 352.70290702 220.6401866 351.18130845 224.8125 350.625 C229.17229219 351.13791673 230.20969843 352.65163811 233 356 C233.9625596 357.3094037 234.92064427 358.62210494 235.875 359.9375 C242.68918159 369.11508128 251.56348207 374.07372703 262.75 376.4375 C274.08811596 377.98360672 286.69990029 375.98945945 296.24609375 369.46484375 C301.6202125 365.13596644 304.87520929 360.4091796 306.5859375 353.703125 C308.11180363 347.79782491 310.16976891 345.55012865 315.40234375 342.453125 C316.68818359 341.73382813 316.68818359 341.73382813 318 341 C329.4722537 334.16546588 338.93346682 327.14237213 342.62890625 313.71484375 C343.90203182 306.11629432 341.67873752 299.07570936 337.4375 292.75 C330.72570092 284.64673038 322.48952658 282.27994708 312.41796875 280.93359375 C306.37855868 279.28397203 303.75996609 274.94903235 300.75 269.75 C294.56388909 259.84422326 286.34401623 251.91776752 274.9609375 248.36328125 C263.62687274 246.26354415 252.16551671 249.83448329 244 258 Z " fill="#000000" transform="translate(153,40)"/>
</svg>
