<?xml version="1.0" standalone="no"?>
<!DOCTYPE svg PUBLIC "-//W3C//DTD SVG 20010904//EN"
 "http://www.w3.org/TR/2001/REC-SVG-20010904/DTD/svg10.dtd">
<svg version="1.0" xmlns="http://www.w3.org/2000/svg"
 width="300.000000pt" height="300.000000pt" viewBox="0 0 300.000000 300.000000"
 preserveAspectRatio="xMidYMid meet">
<metadata>
Created by potrace 1.10, written by Peter Selinger 2001-2011
</metadata>
<g transform="translate(0.000000,300.000000) scale(0.100000,-0.100000)"
fill="#000000" stroke="none">
<path d="M1347 2796 c-68 -19 -127 -63 -155 -118 -21 -42 -22 -49 -10 -75 28
-59 140 -83 206 -43 41 25 82 108 82 167 0 33 -5 46 -26 62 -31 24 -32 24 -97
7z m81 -63 c4 -27 -5 -29 -30 -6 -24 22 -23 35 5 31 14 -2 23 -11 25 -25z
m-49 -42 c-17 -47 -47 -74 -78 -66 -14 4 -28 9 -30 11 -8 8 44 56 74 70 42 19
45 18 34 -15z"/>
<path d="M638 2634 c-11 -23 -10 -29 11 -45 19 -16 38 -19 103 -17 79 2 81 2
109 -30 40 -44 40 -93 0 -133 l-29 -29 -369 0 c-388 0 -393 -1 -393 -45 0 -44
5 -45 389 -45 333 0 370 2 406 19 143 64 150 263 13 330 -35 17 -63 21 -136
21 -90 0 -93 -1 -104 -26z"/>
<path d="M1245 2380 c-15 -17 -16 -24 -7 -45 l12 -25 360 0 360 0 12 25 c9 21
8 28 -7 45 -17 19 -31 20 -365 20 -334 0 -348 -1 -365 -20z"/>
<path d="M2636 2309 c-35 -27 -66 -90 -66 -132 0 -19 10 -49 23 -68 31 -47
111 -99 152 -99 112 0 94 225 -23 302 -35 23 -54 23 -86 -3z m74 -111 c11 -18
20 -48 20 -67 l0 -34 -32 25 c-36 28 -43 46 -34 84 9 33 23 30 46 -8z m62
-113 c-5 -31 -17 -39 -38 -27 -14 8 -12 12 11 30 34 27 33 27 27 -3z"/>
<path d="M82 2158 c-18 -18 -14 -56 7 -68 13 -6 189 -10 505 -10 427 0 486 2
500 16 19 18 21 45 4 62 -17 17 -999 17 -1016 0z"/>
<path d="M2125 2023 c-69 -9 -155 -45 -198 -84 -71 -61 -93 -147 -74 -276 7
-52 7 -52 -28 -76 -30 -21 -42 -23 -73 -16 -43 10 -105 2 -144 -17 -33 -17
-38 -17 -38 -1 0 18 -67 81 -108 101 -37 19 -98 24 -157 13 -38 -7 -41 -6 -63
27 -29 42 -83 81 -152 107 -60 23 -87 18 -96 -18 -8 -31 7 -46 64 -62 51 -14
116 -70 143 -122 24 -48 47 -55 98 -28 31 16 52 20 83 16 66 -9 90 -33 138
-137 10 -21 48 -25 69 -6 26 23 87 46 123 46 48 -1 111 -33 141 -72 15 -19 32
-59 38 -89 16 -71 30 -85 90 -92 68 -8 115 -45 145 -113 13 -29 32 -58 43 -63
11 -6 47 -11 81 -11 64 0 120 -21 152 -57 24 -27 48 -87 48 -122 0 -21 7 -35
24 -46 22 -15 29 -15 71 -1 125 43 261 -11 333 -132 24 -41 27 -57 27 -132 0
-102 -19 -146 -91 -209 -74 -65 -107 -71 -413 -71 -146 0 -271 -4 -277 -8 -22
-15 -24 -42 -4 -62 19 -19 34 -20 268 -20 137 0 275 5 307 11 159 29 282 154
293 298 l5 56 -21 -25 -21 -25 0 55 0 55 21 -25 21 -25 -5 55 c-17 199 -245
351 -440 294 -12 -4 -18 0 -18 11 0 25 -39 97 -71 131 l-30 31 27 53 c14 29
29 70 31 91 5 35 3 40 -28 59 -46 27 -152 60 -199 60 -44 0 -95 -16 -131 -41
-25 -17 -30 -18 -63 -4 -19 8 -47 15 -61 15 -19 0 -25 5 -25 23 -1 34 -38 108
-72 144 l-31 32 23 19 c13 11 51 24 84 30 188 35 276 155 248 340 -10 61 -17
82 -38 100 -14 12 -28 21 -32 21 -4 -1 -20 -4 -37 -6z m19 -105 c12 -48 6
-129 -14 -167 -18 -36 -73 -81 -99 -81 -6 0 7 24 29 53 42 55 48 75 28 95 -28
28 -57 13 -100 -53 -24 -35 -46 -65 -50 -65 -15 0 -7 86 11 127 22 47 51 69
125 95 65 22 63 22 70 -4z m-141 -224 c-3 -8 4 -25 17 -39 l23 -24 -27 -11
c-15 -5 -35 -10 -44 -10 -31 -1 -100 -38 -112 -60 -6 -12 -9 -33 -6 -46 8 -30
-1 -30 -38 -1 l-29 23 32 13 c17 8 42 27 56 43 21 25 24 36 18 73 -6 48 0 54
29 28 17 -16 20 -15 46 5 33 25 43 27 35 6z m-413 -195 c0 -14 -33 -20 -42 -7
-17 27 -10 38 17 26 14 -6 25 -15 25 -19z m560 -238 c-5 -11 -10 -30 -10 -42
l0 -22 -25 23 -26 24 33 18 c41 22 41 22 28 -1z m198 -16 c29 -9 52 -18 52
-20 0 -3 -10 -24 -22 -49 l-21 -44 -69 3 -69 4 -24 48 c-13 26 -23 48 -22 49
40 28 100 31 175 9z m48 -141 c-3 -8 -1 -24 4 -35 12 -22 7 -24 -23 -8 -32 17
-32 17 -12 39 22 24 40 26 31 4z m134 -232 c0 -23 -35 -8 -38 16 -3 21 -2 22
17 10 12 -7 21 -19 21 -26z"/>
<path d="M748 1720 c-53 -54 -61 -59 -84 -50 -58 23 -216 -1 -257 -38 -16 -14
-18 -26 -14 -70 6 -61 43 -145 80 -184 25 -27 26 -29 11 -65 -11 -25 -15 -60
-12 -109 l3 -71 -45 -12 c-61 -16 -141 -98 -159 -163 -12 -41 -18 -48 -64 -69
-103 -48 -186 -161 -194 -263 l-4 -51 20 25 21 25 0 -59 c0 -58 0 -59 -20 -41
-20 18 -20 17 -20 -22 0 -98 112 -238 228 -285 l57 -23 831 -3 c824 -3 830 -3
849 18 15 17 16 24 7 45 l-11 24 -838 3 -838 3 -41 22 c-61 33 -101 70 -132
122 -24 40 -27 56 -27 131 0 68 5 93 22 125 31 59 101 119 161 139 56 19 72
38 72 84 0 62 90 142 161 142 29 0 60 28 61 56 0 11 -5 40 -13 66 -23 82 15
159 106 212 50 30 65 51 65 94 0 67 30 134 86 188 57 56 64 73 38 98 -26 27
-46 19 -106 -44z m-20 -97 c-18 -42 -25 -48 -43 -33 -24 20 -18 35 18 47 17 5
33 11 34 12 2 0 -3 -11 -9 -26z m-77 -93 c-1 -30 -7 -56 -12 -58 -4 -2 -25
-15 -45 -28 -44 -30 -56 -23 -90 51 -41 87 -34 94 86 91 l65 -1 -4 -55z m-83
-141 l23 1 -23 -29 c-25 -31 -28 -30 -46 13 -12 26 -11 28 5 21 10 -4 28 -7
41 -6z m-48 -284 c-7 -8 -19 -15 -26 -15 -12 0 -11 5 2 26 11 17 20 22 27 15
7 -7 6 -15 -3 -26z"/>
<path d="M1292 1278 c-16 -16 -15 -43 1 -56 11 -9 58 -15 99 -13 25 1 41 36
28 61 -9 16 -21 20 -63 20 -29 0 -58 -5 -65 -12z"/>
<path d="M712 975 c-99 -28 -114 -48 -93 -131 31 -124 110 -213 206 -235 50
-11 69 -11 139 4 l81 17 36 -40 c40 -44 42 -45 70 -30 31 17 23 56 -20 103
-21 23 -42 58 -46 77 -21 95 -75 177 -142 217 -55 32 -153 40 -231 18z m199
-100 c27 -20 71 -76 65 -82 -2 -2 -26 10 -54 27 -52 33 -88 36 -105 9 -17 -27
-2 -46 67 -86 37 -20 66 -41 66 -45 0 -13 -99 -9 -134 6 -18 8 -45 29 -59 48
-31 40 -61 118 -50 129 28 26 167 22 204 -6z m147 -172 c19 -50 19 -52 1 -43
-11 7 -33 7 -58 1 -47 -10 -57 -4 -34 21 15 17 15 20 -5 48 l-22 29 28 13 c16
8 28 23 31 38 3 23 5 22 21 -15 10 -22 27 -64 38 -92z"/>
<path d="M1480 920 c-8 -14 -8 -26 0 -40 10 -18 19 -21 67 -18 40 2 59 8 67
21 20 31 -4 52 -67 55 -48 3 -57 0 -67 -18z"/>
<path d="M2055 810 c-75 -17 -148 -83 -196 -175 l-24 -47 -47 5 c-55 5 -78 -6
-78 -37 0 -33 20 -46 81 -52 34 -4 85 -21 138 -47 71 -36 93 -42 145 -42 105
1 185 62 248 189 39 80 34 103 -30 145 -80 51 -176 76 -237 61z m155 -115 c57
-29 57 -27 -1 -112 -44 -64 -89 -87 -156 -80 -79 8 -84 21 -16 36 92 20 126
54 91 89 -17 17 -43 15 -117 -8 -36 -11 -67 -17 -69 -15 -9 9 68 92 100 109
42 21 101 15 168 -19z m-237 -125 c14 0 15 -4 5 -26 -9 -20 -9 -30 0 -45 8
-12 8 -19 2 -19 -12 0 -82 34 -116 57 l-22 14 31 34 31 35 26 -25 c14 -14 34
-25 43 -25z"/>
<path d="M338 534 c-11 -23 -10 -29 11 -45 58 -47 170 8 119 59 -7 7 -36 12
-65 12 -48 0 -55 -3 -65 -26z"/>
<path d="M2683 553 c-21 -8 -16 -61 6 -73 29 -15 87 -12 105 6 19 18 21 45 4
62 -12 12 -91 15 -115 5z"/>
</g>
</svg>
