<?xml version="1.0" encoding="iso-8859-1"?>
<!-- Uploaded to: SVG Repo, www.svgrepo.com, Generator: SVG Repo Mixer Tools -->
<!DOCTYPE svg PUBLIC "-//W3C//DTD SVG 1.1//EN" "http://www.w3.org/Graphics/SVG/1.1/DTD/svg11.dtd">
<svg fill="#000000" height="800px" width="800px" version="1.1" id="Capa_1" xmlns="http://www.w3.org/2000/svg" xmlns:xlink="http://www.w3.org/1999/xlink" 
	 viewBox="0 0 457.191 457.191" xml:space="preserve">
<path id="XMLID_1070_" d="M449.484,98.976C372.906,56.37,297.5,77.348,224.576,97.633c-70.178,19.523-136.465,37.965-202.283,1.344
	c-4.645-2.585-10.312-2.518-14.896,0.177C2.814,101.849,0,106.767,0,112.084v233.022c0,5.444,2.95,10.461,7.707,13.107
	c32.728,18.209,65.237,24.806,97.434,24.805c43.141-0.001,85.717-11.844,127.475-23.461c70.179-19.523,136.465-37.962,202.283-1.344
	c4.645,2.584,10.312,2.517,14.896-0.177c4.583-2.695,7.397-7.614,7.397-12.931V112.084
	C457.191,106.64,454.242,101.623,449.484,98.976z M30,135.872c10.262,4.148,20.5,7.253,30.712,9.484v202.135
	c-10.26-2.68-20.493-6.426-30.712-11.455V135.872z M90.712,352.451V149.538c8.629,0.556,17.236,0.589,25.82,0.191l-5.26,5.26
	c-5.858,5.857-5.858,15.355,0,21.213l20.893,20.894l-20.893,20.894c-5.858,5.857-5.858,15.355,0,21.213l20.893,20.894
	l-20.893,20.894c-5.858,5.857-5.858,15.355,0,21.213l20.893,20.894l-20.893,20.894c-2.436,2.436-3.924,5.621-4.288,9.003
	C101.548,353.034,96.124,352.862,90.712,352.451z M224.575,330.655c-25.784,7.173-51.041,14.196-75.943,18.4l15.353-15.353
	c5.858-5.857,5.858-15.355,0-21.213l-20.893-20.894l20.893-20.894c5.858-5.857,5.858-15.355,0-21.213l-20.893-20.894l20.893-20.894
	c5.858-5.857,5.858-15.355,0-21.213l-20.893-20.894l20.893-20.894l-0.83-0.83c23.372-4.517,46.539-10.96,69.462-17.336
	c25.783-7.172,51.04-14.196,75.942-18.399l-15.352,15.353c-5.858,5.857-5.858,15.355,0,21.213l20.893,20.894l-20.893,20.894
	c-5.858,5.857-5.858,15.355,0,21.213l20.893,20.894l-20.893,20.894c-5.858,5.857-5.858,15.355,0,21.213l20.893,20.894
	l-20.893,20.894l0.829,0.829C270.664,317.835,247.497,324.278,224.575,330.655z M340.661,307.461l5.259-5.259
	c5.858-5.857,5.858-15.355,0-21.213l-20.893-20.894l20.893-20.894c5.858-5.857,5.858-15.355,0-21.213l-20.893-20.894l20.893-20.894
	c5.858-5.857,5.858-15.355,0-21.213l-20.893-20.894l20.893-20.894c2.432-2.432,3.938-5.614,4.302-9.003
	c5.431-0.042,10.85,0.131,16.258,0.542v202.912C357.851,307.097,349.244,307.063,340.661,307.461z M427.191,321.318
	c-10.262-4.148-20.5-7.252-30.712-9.484V109.699c10.26,2.68,20.493,6.426,30.712,11.454V321.318z"/>
</svg>