<?xml version="1.0" standalone="no"?>
<!DOCTYPE svg PUBLIC "-//W3C//DTD SVG 20010904//EN"
 "http://www.w3.org/TR/2001/REC-SVG-20010904/DTD/svg10.dtd">
<svg version="1.0" xmlns="http://www.w3.org/2000/svg"
 width="300.000000pt" height="300.000000pt" viewBox="0 0 300.000000 300.000000"
 preserveAspectRatio="xMidYMid meet">
<metadata>
Created by potrace 1.10, written by Peter Selinger 2001-2011
</metadata>
<g transform="translate(0.000000,300.000000) scale(0.100000,-0.100000)"
fill="#000000" stroke="none">
<path d="M1161 2779 c-45 -44 -44 -98 3 -145 l34 -34 299 0 c265 0 301 2 323
17 40 27 49 45 50 91 0 35 -6 49 -29 73 l-29 29 -310 0 -310 0 -31 -31z"/>
<path d="M1229 2397 c-5 -130 -6 -134 -117 -256 -40 -44 -72 -82 -72 -85 0 -3
207 -6 460 -6 253 0 460 2 460 5 0 3 -37 48 -83 99 -96 108 -107 135 -107 265
l0 91 -269 0 -269 0 -3 -113z"/>
<path d="M906 1920 c-19 -22 -38 -50 -41 -62 -3 -13 -4 -378 -3 -811 l3 -789
37 -34 38 -34 560 0 560 0 38 34 37 34 3 789 c1 433 0 798 -3 811 -3 12 -22
40 -41 62 l-36 40 -558 0 -558 0 -36 -40z m152 -232 c17 -17 15 -84 -4 -102
-34 -34 -74 -6 -74 53 0 42 14 61 45 61 12 0 26 -5 33 -12z m-10 -204 c22 -15
22 -18 22 -274 0 -222 -2 -261 -16 -274 -18 -19 -28 -20 -55 -6 -18 10 -19 24
-19 275 0 226 2 266 16 279 19 20 24 20 52 0z"/>
</g>
</svg>
