<?xml version="1.0" standalone="no"?>
<!DOCTYPE svg PUBLIC "-//W3C//DTD SVG 20010904//EN"
 "http://www.w3.org/TR/2001/REC-SVG-20010904/DTD/svg10.dtd">
<svg version="1.0" xmlns="http://www.w3.org/2000/svg"
 width="300.000000pt" height="300.000000pt" viewBox="0 0 300.000000 300.000000"
 preserveAspectRatio="xMidYMid meet">
<metadata>
Created by potrace 1.10, written by Peter Selinger 2001-2011
</metadata>
<g transform="translate(0.000000,300.000000) scale(0.100000,-0.100000)"
fill="#000000" stroke="none">
<path d="M1109 2781 l-29 -29 0 -156 0 -156 420 0 420 0 0 156 0 156 -29 29
-29 29 -362 0 -362 0 -29 -29z"/>
<path d="M835 2139 c-99 -111 -181 -205 -183 -210 -2 -5 357 -9 848 -9 515 0
850 4 848 9 -1 5 -84 100 -183 210 l-180 201 -485 0 -485 -1 -180 -200z"/>
<path d="M610 1475 l0 -355 890 0 890 0 0 355 0 355 -890 0 -890 0 0 -355z"/>
<path d="M612 653 c3 -360 4 -379 23 -405 44 -60 10 -58 865 -58 855 0 821 -2
865 58 19 26 20 45 23 405 l3 377 -891 0 -891 0 3 -377z"/>
</g>
</svg>
